<?xml version="1.0" ?><!DOCTYPE svg  PUBLIC '-//W3C//DTD SVG 1.1//EN'  'http://www.w3.org/Graphics/SVG/1.1/DTD/svg11.dtd'><svg height="42px" style="fill-rule:evenodd;clip-rule:evenodd;stroke-linejoin:round;stroke-miterlimit:2;" version="1.1" width="42px" xml:space="preserve" xmlns="http://www.w3.org/2000/svg" xmlns:serif="http://www.serif.com/" xmlns:xlink="http://www.w3.org/1999/xlink"><path d="M4,5l0,32c0,0.552 0.448,1 1,1l32,0c0.552,-0 1,-0.448 1,-1c-0,-0.552 -0.448,-1 -1,-1l-31,0c-0,0 0,-31 0,-31c-0,-0.552 -0.448,-1 -1,-1c-0.552,0 -1,0.448 -1,1Z"/><path d="M34.153,18.178c-0.91,1.154 -2.274,2.806 -3.513,3.993c-0.202,0.194 -0.4,0.375 -0.592,0.537c-0.305,-0.188 -0.664,-0.297 -1.048,-0.297c-0.282,0 -0.55,0.059 -0.794,0.164c-0.498,-0.739 -0.958,-1.712 -1.419,-2.565c-0.266,-0.492 -0.535,-0.949 -0.805,-1.328c0.012,-0.089 0.018,-0.179 0.018,-0.271c-0,-1.104 -0.896,-2 -2,-2c-1.104,0 -2,0.896 -2,2c0,0.131 0.013,0.259 0.037,0.383c-0.457,0.679 -0.916,1.59 -1.37,2.503c-0.258,0.52 -0.517,1.039 -0.781,1.499c-0.267,-0.133 -0.568,-0.207 -0.886,-0.207c-0.279,-0 -0.545,0.057 -0.787,0.161c-0.359,-0.738 -0.683,-1.617 -0.985,-2.405c-0.146,-0.378 -0.289,-0.738 -0.428,-1.062c0.128,-0.263 0.2,-0.559 0.2,-0.872c-0,-1.104 -0.896,-2 -2,-2c-1.104,0 -2,0.896 -2,2c0,0.034 0.001,0.068 0.003,0.102c-0.104,0.093 -0.209,0.191 -0.315,0.293c-0.807,0.777 -1.702,1.808 -2.382,2.629c-0.1,-0.016 -0.202,-0.024 -0.306,-0.024c-1.104,0 -2,0.896 -2,2c-0,1.104 0.896,2 2,2c1.104,0 2,-0.896 2,-2c-0,-0.256 -0.048,-0.5 -0.136,-0.725c0.637,-0.767 1.464,-1.719 2.212,-2.44c0.014,-0.013 0.027,-0.026 0.042,-0.04c0.266,0.132 0.565,0.205 0.882,0.205c0.036,0 0.071,-0.001 0.106,-0.002c0.083,0.206 0.168,0.426 0.255,0.654c0.476,1.238 1.027,2.662 1.64,3.599c0.039,1.07 0.92,1.927 1.999,1.927c1.05,-0 1.911,-0.81 1.994,-1.839c0.501,-0.678 0.993,-1.614 1.464,-2.563c0.326,-0.655 0.646,-1.313 0.968,-1.859c0.182,0.054 0.375,0.083 0.574,0.083c0.23,0 0.45,-0.039 0.656,-0.11c0.278,0.461 0.554,1.002 0.838,1.543c0.478,0.913 0.98,1.824 1.509,2.459c-0.002,0.035 -0.003,0.072 -0.003,0.108c0,1.104 0.896,2 2,2c1.07,0 1.945,-0.842 1.998,-1.899c0.326,-0.254 0.672,-0.558 1.025,-0.897c1.313,-1.257 2.761,-3.01 3.715,-4.221c0.086,0.012 0.173,0.017 0.262,0.017c1.104,0 2,-0.896 2,-2c0,-1.104 -0.896,-2 -2,-2c-1.104,0 -2,0.896 -2,2c0,0.272 0.054,0.531 0.153,0.767Z"/></svg>