<svg width="64" height="63" viewBox="0 0 64 63" fill="none" xmlns="http://www.w3.org/2000/svg">
<path d="M50.2562 57.0374V21.5999L35.7312 21.5374C34.9 21.5312 34.225 20.8562 34.225 20.0249V5.5249H18.1875V57.0311H50.2562V57.0374Z" fill="#D4ECEA"/>
<path d="M37.2563 8.92505V18.5125L47.9625 18.5563L37.2563 8.92505Z" fill="#D4ECEA"/>
<path d="M12.1312 22.7812C11.2937 22.7812 10.6187 22.0999 10.6187 21.2687V5.52495C10.6187 4.68745 11.2937 4.01245 12.1312 4.01245H35.7375C36.575 4.01245 37.25 4.6937 37.25 5.52495C37.25 6.3562 36.575 7.03745 35.7375 7.03745H13.6437V21.2625C13.6437 22.1 12.9687 22.7812 12.1312 22.7812V22.7812ZM12.1312 32.2C11.2937 32.2 10.6187 31.5187 10.6187 30.6875V27.0125C10.6187 26.175 11.2937 25.5 12.1312 25.5C12.9687 25.5 13.6437 26.1812 13.6437 27.0125V30.6875C13.6437 31.525 12.9687 32.2 12.1312 32.2Z" fill="#61C1BD"/>
<path d="M53.2687 19.8939V19.8626V19.8251C53.2687 19.8126 53.2687 19.7939 53.2625 19.7814C53.2625 19.7689 53.2625 19.7626 53.2562 19.7501C53.2562 19.7314 53.25 19.7189 53.25 19.7001C53.25 19.6939 53.25 19.6814 53.2437 19.6751C53.2375 19.6564 53.2375 19.6376 53.2312 19.6251C53.2312 19.6189 53.225 19.6064 53.225 19.6001C53.2187 19.5814 53.2187 19.5626 53.2125 19.5501C53.2125 19.5439 53.2062 19.5314 53.2062 19.5251C53.2 19.5064 53.1937 19.4939 53.1875 19.4751C53.1875 19.4689 53.1812 19.4564 53.1812 19.4501C53.175 19.4376 53.1687 19.4189 53.1625 19.4064C53.1562 19.3939 53.1562 19.3876 53.15 19.3751L53.1312 19.3376L53.1125 19.3001C53.1125 19.2939 53.1062 19.2876 53.1062 19.2814C53.0875 19.2439 53.0687 19.2126 53.05 19.1751C53.05 19.1689 53.0437 19.1689 53.0437 19.1626C53.0312 19.1439 53.025 19.1314 53.0125 19.1189C53.0062 19.1126 53.0062 19.1064 53 19.1001C52.9875 19.0876 52.9812 19.0751 52.9687 19.0564C52.9625 19.0501 52.9562 19.0439 52.95 19.0314C52.9375 19.0189 52.9312 19.0064 52.9187 18.9939C52.9125 18.9876 52.9062 18.9751 52.8937 18.9689C52.8875 18.9564 52.875 18.9501 52.8687 18.9376L52.8312 18.9001L52.8125 18.8814C52.7937 18.8626 52.775 18.8439 52.75 18.8251L36.7375 4.40011C36.2937 4.00011 35.6562 3.90011 35.1062 4.14386C34.5625 4.38761 34.2062 4.93136 34.2062 5.52511V20.0189C34.2062 20.8501 34.8812 21.5314 35.7125 21.5314L50.2375 21.5939V57.0314H13.6312V36.1314C13.6312 35.2939 12.9562 34.6189 12.1187 34.6189C11.2812 34.6189 10.6062 35.3001 10.6062 36.1314V58.5501C10.6062 59.3876 11.2812 60.0626 12.1187 60.0626H51.7562C52.5937 60.0626 53.2687 59.3814 53.2687 58.5501V19.9439V19.8939V19.8939ZM37.2375 18.5126V8.92511L47.95 18.5564L37.2375 18.5126Z" fill="#61C1BD"/>
<path d="M29.0156 55.7812C28.5755 55.9974 28.0013 56.1055 27.293 56.1055C26.3815 56.1055 25.6576 55.8333 25.1211 55.2891C24.5872 54.7422 24.3203 54.0143 24.3203 53.1055C24.3203 52.1497 24.6185 51.3685 25.2148 50.7617C25.8138 50.1523 26.5859 49.8477 27.5312 49.8477C28.1224 49.8477 28.6172 49.9245 29.0156 50.0781V51.3242C28.6068 51.0846 28.1432 50.9648 27.625 50.9648C27.0339 50.9648 26.5612 51.1536 26.207 51.5312C25.8529 51.9089 25.6758 52.4023 25.6758 53.0117C25.6758 53.6055 25.8438 54.0833 26.1797 54.4453C26.5156 54.8073 26.9701 54.9883 27.543 54.9883C28.082 54.9883 28.5729 54.8581 29.0156 54.5977V55.7812ZM29.8125 54.4766C30.2995 54.8802 30.8529 55.082 31.4727 55.082C31.8242 55.082 32.0885 55.0221 32.2656 54.9023C32.4427 54.7799 32.5312 54.6237 32.5312 54.4336C32.5312 54.2695 32.4609 54.1146 32.3203 53.9688C32.1797 53.8229 31.8086 53.625 31.207 53.375C30.2617 52.974 29.7891 52.3906 29.7891 51.625C29.7891 51.0625 30.0026 50.6263 30.4297 50.3164C30.8594 50.0039 31.4271 49.8477 32.1328 49.8477C32.724 49.8477 33.2201 49.9245 33.6211 50.0781V51.2891C33.2148 51.013 32.7396 50.875 32.1953 50.875C31.8776 50.875 31.6237 50.9336 31.4336 51.0508C31.2435 51.1654 31.1484 51.3203 31.1484 51.5156C31.1484 51.6719 31.2135 51.8164 31.3438 51.9492C31.474 52.0794 31.7956 52.2565 32.3086 52.4805C32.9102 52.7383 33.3229 53.0104 33.5469 53.2969C33.7734 53.5833 33.8867 53.9245 33.8867 54.3203C33.8867 54.901 33.681 55.3438 33.2695 55.6484C32.8581 55.9531 32.2734 56.1055 31.5156 56.1055C30.8229 56.1055 30.2552 55.9935 29.8125 55.7695V54.4766ZM39.8789 49.9492L37.7773 56H36.3203L34.2461 49.9492H35.6367L36.9453 54.2266C37.0104 54.4375 37.0508 54.6367 37.0664 54.8242H37.0898C37.1107 54.6315 37.1549 54.4271 37.2227 54.2109L38.5312 49.9492H39.8789Z" fill="#61C1BD"/>
<path d="M33.7813 29.5313H20.0313C19.1938 29.5313 18.5188 28.8501 18.5188 28.0188C18.5188 27.1876 19.1938 26.5063 20.0313 26.5063H33.7875C34.625 26.5063 35.3 27.1876 35.3 28.0188C35.3 28.8501 34.6188 29.5313 33.7813 29.5313V29.5313ZM40.85 37.6438H20.0313C19.1938 37.6438 18.5188 36.9626 18.5188 36.1313C18.5188 35.3001 19.1938 34.6188 20.0313 34.6188H40.85C41.6875 34.6188 42.3625 35.3001 42.3625 36.1313C42.3625 36.9626 41.6875 37.6438 40.85 37.6438ZM43.875 45.7501H20.0313C19.1938 45.7501 18.5188 45.0688 18.5188 44.2376C18.5188 43.4001 19.1938 42.7251 20.0313 42.7251H43.875C44.7125 42.7251 45.3875 43.4063 45.3875 44.2376C45.3938 45.0751 44.7125 45.7501 43.875 45.7501Z" fill="#61C1BD"/>
</svg>
