<svg width="12" height="12" viewBox="0 0 12 12" fill="none" xmlns="http://www.w3.org/2000/svg">
<path d="M11.1724 1.77778H4.91214L4.26083 0.469778C4.19024 0.327761 4.08503 0.209028 3.95645 0.12628C3.82788 0.0435317 3.68078 -0.000117932 3.5309 2.39305e-07H0.827586C0.371172 2.39305e-07 0 0.398667 0 0.888889V11.1111C0 11.6013 0.371172 12 0.827586 12H11.1724C11.6288 12 12 11.6013 12 11.1111V2.66667C12 2.17644 11.6288 1.77778 11.1724 1.77778ZM0.827586 0.888889H3.5309L4.416 2.66667H11.1724V4.02756C11.167 4.02756 11.1621 4.02578 11.1567 4.02578H0.843724C0.838345 4.02578 0.833379 4.02756 0.827586 4.02756V0.888889ZM0.827586 11.1111V9.77778L0.843724 4.91467L11.1724 4.93156V9.77778H11.1732V11.1111H0.827586Z" fill="#171717"/>
</svg>
