<svg width="54" height="54" viewBox="0 0 54 54" fill="none" xmlns="http://www.w3.org/2000/svg">
<path d="M42.4037 48.125V18.2247L30.1482 18.1719C29.4469 18.1667 28.8773 17.5971 28.8773 16.8958V4.66138H15.3457V48.1198H42.4037V48.125Z" fill="#D4ECEA"/>
<path d="M23.6992 47V40.9492H25.7891C27.9375 40.9492 29.0117 41.9323 29.0117 43.8984C29.0117 44.8333 28.7109 45.5846 28.1094 46.1523C27.5078 46.7174 26.7318 47 25.7812 47H23.6992ZM24.9883 42.0039V45.9453H25.6914C26.3034 45.9453 26.7839 45.763 27.1328 45.3984C27.4818 45.0339 27.6562 44.5404 27.6562 43.918C27.6562 43.3164 27.474 42.8477 27.1094 42.5117C26.7448 42.1732 26.2708 42.0039 25.6875 42.0039H24.9883ZM30.0352 47V40.9492H32.1836C32.8424 40.9492 33.3503 41.0742 33.707 41.3242C34.0638 41.5742 34.2422 41.9206 34.2422 42.3633C34.2422 42.6914 34.1315 42.9792 33.9102 43.2266C33.6888 43.474 33.4102 43.6445 33.0742 43.7383V43.7539C33.4961 43.806 33.8359 43.9622 34.0938 44.2227C34.3542 44.4831 34.4844 44.8099 34.4844 45.2031C34.4844 45.7526 34.2891 46.1901 33.8984 46.5156C33.5078 46.8385 32.974 47 32.2969 47H30.0352ZM31.3242 41.9102V43.4062H31.9375C32.2318 43.4062 32.4635 43.3359 32.6328 43.1953C32.8021 43.0547 32.8867 42.8581 32.8867 42.6055C32.8867 42.1419 32.5482 41.9102 31.8711 41.9102H31.3242ZM31.3242 44.3789V46.0391H32.0898C32.4154 46.0391 32.6693 45.9635 32.8516 45.8125C33.0365 45.6615 33.1289 45.4518 33.1289 45.1836C33.1289 44.9284 33.0378 44.7305 32.8555 44.5898C32.6732 44.4492 32.4141 44.3789 32.0781 44.3789H31.3242Z" fill="#61C1BD"/>
<path d="M31.435 7.53027V15.6197L40.4684 15.6566L31.435 7.53027Z" fill="#D4ECEA"/>
<path d="M10.2357 19.2214C9.5291 19.2214 8.95956 18.6466 8.95956 17.9452V4.66143C8.95956 3.95479 9.5291 3.38525 10.2357 3.38525H30.1535C30.8601 3.38525 31.4297 3.96006 31.4297 4.66143C31.4297 5.36279 30.8601 5.9376 30.1535 5.9376H11.5119V17.9399C11.5119 18.6466 10.9424 19.2214 10.2357 19.2214V19.2214ZM10.2357 27.1685C9.5291 27.1685 8.95956 26.5937 8.95956 25.8923V22.7915C8.95956 22.0849 9.5291 21.5153 10.2357 21.5153C10.9424 21.5153 11.5119 22.0901 11.5119 22.7915V25.8923C11.5119 26.5989 10.9424 27.1685 10.2357 27.1685Z" fill="#61C1BD"/>
<path d="M44.9455 16.7852V16.7588V16.7271C44.9455 16.7166 44.9455 16.7008 44.9402 16.6902C44.9402 16.6797 44.9402 16.6744 44.935 16.6639C44.935 16.648 44.9297 16.6375 44.9297 16.6217C44.9297 16.6164 44.9297 16.6059 44.9244 16.6006C44.9192 16.5848 44.9192 16.5689 44.9139 16.5584C44.9139 16.5531 44.9086 16.5426 44.9086 16.5373C44.9033 16.5215 44.9033 16.5057 44.8981 16.4951C44.8981 16.4898 44.8928 16.4793 44.8928 16.474C44.8875 16.4582 44.8822 16.4477 44.877 16.4318C44.877 16.4266 44.8717 16.416 44.8717 16.4107C44.8664 16.4002 44.8611 16.3844 44.8559 16.3738C44.8506 16.3633 44.8506 16.358 44.8453 16.3475L44.8295 16.3158L44.8137 16.2842C44.8137 16.2789 44.8084 16.2736 44.8084 16.2684C44.7926 16.2367 44.7768 16.2103 44.7609 16.1787C44.7609 16.1734 44.7557 16.1734 44.7557 16.1682C44.7451 16.1523 44.7399 16.1418 44.7293 16.1312C44.724 16.126 44.724 16.1207 44.7188 16.1154C44.7082 16.1049 44.7029 16.0943 44.6924 16.0785C44.6871 16.0732 44.6818 16.068 44.6766 16.0574C44.666 16.0469 44.6608 16.0363 44.6502 16.0258C44.6449 16.0205 44.6397 16.01 44.6291 16.0047C44.6238 15.9941 44.6133 15.9889 44.608 15.9783L44.5764 15.9467L44.5606 15.9309C44.5447 15.915 44.5289 15.8992 44.5078 15.8834L30.9973 3.7123C30.6229 3.3748 30.085 3.29043 29.6209 3.49609C29.1621 3.70175 28.8615 4.16054 28.8615 4.66152V16.8906C28.8615 17.592 29.4311 18.1668 30.1324 18.1668L42.3879 18.2195V48.1199H11.5014V30.4855C11.5014 29.7789 10.9318 29.2094 10.2252 29.2094C9.51857 29.2094 8.94904 29.7842 8.94904 30.4855V49.4014C8.94904 50.108 9.51857 50.6775 10.2252 50.6775H43.6693C44.376 50.6775 44.9455 50.1027 44.9455 49.4014V16.8273V16.7852V16.7852ZM31.4192 15.6197V7.53027L40.4578 15.6566L31.4192 15.6197Z" fill="#61C1BD"/>
<path d="M28.5029 24.9168H16.9014C16.1947 24.9168 15.6252 24.342 15.6252 23.6407C15.6252 22.9393 16.1947 22.3645 16.9014 22.3645H28.5082C29.2148 22.3645 29.7844 22.9393 29.7844 23.6407C29.7844 24.342 29.2096 24.9168 28.5029 24.9168V24.9168ZM34.4672 31.7618H16.9014C16.1947 31.7618 15.6252 31.187 15.6252 30.4856C15.6252 29.7842 16.1947 29.2094 16.9014 29.2094H34.4672C35.1738 29.2094 35.7433 29.7842 35.7433 30.4856C35.7433 31.187 35.1738 31.7618 34.4672 31.7618ZM37.0195 38.6014H16.9014C16.1947 38.6014 15.6252 38.0266 15.6252 37.3252C15.6252 36.6186 16.1947 36.0491 16.9014 36.0491H37.0195C37.7262 36.0491 38.2957 36.6239 38.2957 37.3252C38.301 38.0319 37.7262 38.6014 37.0195 38.6014Z" fill="#61C1BD"/>
</svg>
