<svg width="53" height="60" viewBox="0 0 53 60" fill="none" xmlns="http://www.w3.org/2000/svg">
<path d="M12.5781 48.4384H11.8922C11.5003 48.4384 11.0472 48.4751 10.5573 48.5486C10.2511 48.5976 10.0306 48.6221 9.92039 48.6221C9.50398 48.6221 9.14881 48.4384 8.89161 48.0832C8.62217 47.7158 8.49969 47.2504 8.49969 46.6625C8.49969 46.2584 8.56093 45.9399 8.67116 45.7072C8.79363 45.4745 8.97734 45.2908 9.24679 45.1561C9.50398 45.0336 9.6632 44.8499 9.76118 44.5927C9.84691 44.3355 9.92039 43.8211 9.96938 43.0618C10.0184 42.1922 10.0674 40.4776 10.1041 37.9546C10.1408 35.4194 10.1653 32.9087 10.1653 30.4102C10.1653 29.4304 10.1286 28.7813 10.0429 28.4507C9.95713 28.12 9.77342 27.8628 9.46724 27.6668C9.02633 27.3606 8.81813 26.8462 8.81813 26.1114C8.81813 25.5358 8.9651 25.0949 9.27128 24.7764C9.56522 24.458 9.99388 24.2988 10.5205 24.2988C10.692 24.2988 10.9002 24.2988 11.1451 24.311C11.6718 24.3478 12.0637 24.36 12.2964 24.36C13.2027 24.36 14.2192 24.311 15.346 24.2008C15.5909 24.1763 15.8849 24.1641 16.2401 24.1641C17.6852 24.1641 18.8243 24.4702 19.6571 25.0704C20.9063 25.9767 21.8494 27.5076 22.474 29.6509C23.0374 31.537 23.319 33.7905 23.319 36.4115C23.319 37.7342 23.2211 39.0569 23.0129 40.3796C22.8047 41.7023 22.523 42.8536 22.1678 43.8211C21.4329 45.7807 20.4287 47.1647 19.1427 47.9485C18.3833 48.4139 17.575 48.6466 16.7177 48.6466L15.5787 48.5731L14.5989 48.5241C13.8273 48.4629 13.1537 48.4384 12.5781 48.4384ZM14.5622 29.4672V43.0128C14.5622 43.7477 14.6479 44.2743 14.8194 44.5805C14.9908 44.8867 15.2725 45.0459 15.6644 45.0459C17.5015 45.0459 18.4201 42.4494 18.4201 37.2688C18.4201 34.4151 18.1996 32.1984 17.7832 30.6184C17.3056 28.8793 16.5095 28.0097 15.3827 28.0097C15.0765 28.0097 14.8683 28.12 14.7459 28.3404C14.6234 28.5609 14.5622 28.9405 14.5622 29.4672ZM29.2713 48.4262L28.0098 48.4384C27.1157 48.4629 26.4666 48.4996 26.0625 48.5486C25.695 48.6099 25.4378 48.6344 25.2786 48.6344C24.899 48.6344 24.5928 48.4507 24.3601 48.0955C24.1396 47.7281 24.0294 47.2994 24.0294 46.7973C24.0294 46.4666 24.0661 46.2094 24.1519 46.0257C24.2376 45.842 24.4336 45.548 24.752 45.1561C24.9357 44.9234 25.0582 44.556 25.1317 44.0661C25.2051 43.5762 25.2786 42.5107 25.3644 40.8695C25.4868 38.3221 25.5481 35.1867 25.5481 31.4635C25.5481 30.104 25.4991 29.1855 25.4011 28.7446C25.3031 28.2914 25.0704 27.924 24.7152 27.6301C24.2988 27.2994 24.0906 26.8217 24.0906 26.1971C24.0906 25.6827 24.2131 25.2663 24.4581 24.9356C24.703 24.605 25.0214 24.4458 25.4134 24.4458C25.6216 24.4458 25.9032 24.458 26.2339 24.4947C26.7851 24.5437 27.3852 24.5682 28.0343 24.5682C28.5119 24.5682 29.4427 24.5315 30.8267 24.458C31.2676 24.4335 31.6595 24.4213 32.0147 24.4213C32.8475 24.4213 33.5334 24.5437 34.0478 24.8009C34.5622 25.0581 35.0031 25.4745 35.3827 26.0747C35.9951 27.0422 36.3135 28.3404 36.3135 29.9571C36.3135 30.7654 36.2278 31.5492 36.0441 32.3086C35.8604 33.0679 35.6154 33.6803 35.3092 34.1334C35.0888 34.4641 34.9786 34.7581 34.9786 35.0275C34.9786 35.3214 35.1133 35.5664 35.3705 35.7623C35.8849 36.142 36.3625 36.7911 36.7789 37.7097C37.2198 38.6527 37.428 39.8407 37.428 41.2614C37.428 42.9393 37.0974 44.4825 36.436 45.8665C35.5542 47.7036 34.2682 48.6099 32.5536 48.6099C32.3209 48.6099 31.7453 48.5854 30.8267 48.5241C29.9694 48.4629 29.4672 48.4262 29.2713 48.4262ZM29.9326 29.4304V33.0312C29.9326 33.6068 29.9694 34.011 30.0551 34.2437C30.1286 34.4764 30.2756 34.5988 30.4715 34.5988C30.9369 34.5988 31.2799 34.3294 31.5003 33.8028C31.7208 33.2761 31.831 32.4433 31.831 31.3043C31.831 30.202 31.7208 29.357 31.4881 28.7568C31.2554 28.1567 30.9369 27.8505 30.5205 27.8505C30.3001 27.8505 30.1531 27.9608 30.0674 28.1935C29.9816 28.4262 29.9326 28.8303 29.9326 29.4304ZM29.9326 39.5101V41.1757C29.9326 42.7066 29.9939 43.7232 30.1164 44.2253C30.2388 44.7274 30.4838 44.9724 30.8389 44.9724C31.7942 44.9724 32.2719 43.9314 32.2719 41.8616C32.2719 39.2651 31.733 37.9791 30.6675 37.9791C30.3858 37.9791 30.2021 38.0894 30.0919 38.3098C29.9816 38.5303 29.9326 38.9222 29.9326 39.5101ZM45.1194 48.4384H38.6773C38.1139 48.4384 37.8322 48.1445 37.8322 47.5443C37.8322 47.2382 37.8934 46.9565 38.0159 46.6993C38.1384 46.4421 38.5181 45.7317 39.1794 44.5927C40.3919 42.4739 41.2982 40.4898 41.8861 38.6527C42.1923 37.7219 42.3393 36.9136 42.3393 36.24C42.3393 35.6521 42.2535 35.1867 42.0698 34.8438C41.8861 34.5009 41.6412 34.3294 41.335 34.3294C41.041 34.3294 40.8206 34.4029 40.6736 34.5499C40.5266 34.6968 40.1837 35.1745 39.6693 35.9706C39.5346 36.1788 39.3509 36.289 39.1182 36.289C38.8242 36.289 38.5548 36.0808 38.2976 35.6521C38.0527 35.2235 37.9302 34.7581 37.9302 34.2559C37.9302 33.8028 38.0404 33.2884 38.2731 32.7127C38.5058 32.1371 38.7998 31.586 39.1672 31.0716C40.5266 29.259 42.0331 28.3527 43.6987 28.3527C44.9602 28.3527 46.0012 28.8058 46.834 29.6999C47.2015 30.1041 47.5077 30.6797 47.7281 31.4145C47.9608 32.1494 48.071 32.921 48.071 33.7293C48.071 35.7746 47.3117 37.9914 45.7808 40.3796C45.2419 41.2247 44.9724 41.8493 44.9724 42.2657C44.9724 42.5964 45.0582 42.8658 45.2174 43.0985C45.3766 43.3312 45.5848 43.4415 45.8175 43.4415C46.3686 43.4415 46.8708 43.0495 47.2994 42.2535C47.5199 41.8616 47.6669 41.6166 47.7404 41.5309C47.8138 41.4451 47.9118 41.4084 48.0343 41.4084C48.5854 41.4084 48.8671 42.278 48.8671 44.0293C48.8671 44.8989 48.7814 45.793 48.5977 46.687C48.414 47.5811 48.169 48.3649 47.8628 49.014C47.5321 49.7121 47.177 50.0673 46.7851 50.0673C46.6258 50.0673 46.5034 50.0061 46.4054 49.8836C46.3074 49.7611 46.2094 49.5284 46.087 49.1977C45.9767 48.8671 45.8665 48.6589 45.7563 48.5731C45.6216 48.4874 45.4133 48.4384 45.1194 48.4384Z" fill="#009D89"/>
<path d="M4.73974 36.1298C4.73974 36.632 4.75199 37.1219 4.78873 37.624C1.76363 36.2278 0 34.5254 0 32.6883V20.6369C2.09431 22.0821 4.83772 23.2333 7.9853 24.1274C5.92774 27.6424 4.73974 31.7453 4.73974 36.1298ZM27.7771 59.9878C27.275 60 26.7606 60 26.2462 60C11.7575 60 0 56.1543 0 51.4268V39.3754C1.51868 40.4287 3.38028 41.3227 5.49908 42.0698C8.07103 52.1249 17.0239 59.6203 27.7771 59.9878ZM52.4923 8.57318V13.9253C52.4923 16.1053 49.9816 18.1017 45.8665 19.6081C41.5187 15.0643 35.395 12.2352 28.6222 12.2352C21.2982 12.2352 14.7336 15.5419 10.3613 20.7348C4.06614 19.1672 0 16.6932 0 13.913V8.57318C0 3.84568 11.7575 0 26.2462 0C40.7348 0 52.4923 3.85793 52.4923 8.57318ZM52.4923 20.6246V32.6761C52.4923 32.97 52.4434 33.2639 52.3576 33.5579C51.929 29.5897 50.545 25.9155 48.414 22.7802C49.9571 22.1555 51.3288 21.4329 52.4923 20.6246ZM52.4923 39.3754V51.4391C52.4923 55.5787 43.4783 59.0447 31.5003 59.8408C42.2045 58.5548 50.7287 50.1776 52.2474 39.5468C52.3331 39.4856 52.4189 39.4366 52.4923 39.3754Z" fill="#009D89" fill-opacity="0.6"/>
<path d="M31.5003 59.8286C30.5573 59.9388 29.5897 60.0001 28.6099 60.0001C28.3282 60.0001 28.0465 60.0001 27.7771 59.9878C29.0508 59.9633 30.2878 59.9143 31.5003 59.8286Z" fill="#009D89"/>
</svg>
