<svg width="12" height="12" viewBox="0 0 12 12" fill="none" xmlns="http://www.w3.org/2000/svg">
<path d="M0 2.57124V9.42876H6.85753V2.57124H0ZM4.92876 7.71371H3.64247L3.26075 6.95161L2.78495 7.71371H1.92742L2.88038 6.18952L1.92742 4.28495H3.21371L3.59409 5.04704L4.06989 4.28495H4.92742L3.97446 5.80914L4.92876 7.71371ZM12 0.857527V12H1.71371V9.85753H2.57124V11.1438H11.1425V0.857527H2.57124V2.14247H1.71371V0H12V0.857527V0.857527ZM7.28629 5.14247H10.2863V6H7.28629V5.14247ZM7.28629 3.42876H10.2863V4.28629H7.28629V3.42876ZM7.28629 6.85753H10.2863V7.71505H7.28629V6.85753Z" fill="black"/>
</svg>
