<svg width="11" height="12" viewBox="0 0 11 12" fill="none" xmlns="http://www.w3.org/2000/svg">
<path d="M0.472701 0.988901L7.38586 0.00274637C7.42484 -0.00280366 7.46456 7.96892e-05 7.50232 0.0112011C7.54009 0.0223225 7.57502 0.041422 7.60475 0.0672052C7.63448 0.0929884 7.65832 0.124853 7.67463 0.160639C7.69095 0.196425 7.69938 0.235296 7.69934 0.274619V11.7254C7.69938 11.7647 7.69095 11.8036 7.67463 11.8394C7.65832 11.8751 7.63448 11.907 7.60475 11.9328C7.57502 11.9586 7.54009 11.9777 7.50232 11.9888C7.46456 11.9999 7.42484 12.0028 7.38586 11.9973L0.472701 11.0111C0.341572 10.9925 0.221576 10.9272 0.134743 10.8273C0.0479103 10.7274 6.8133e-05 10.5996 0 10.4674V1.53265C0 1.25913 0.20129 1.02762 0.471876 0.988901H0.472701V0.988901ZM0.797735 1.88278V10.2812L6.81993 11.1075V1.05646L0.797735 1.88278ZM8.24959 10.0365H10.1198V1.88031H8.24959V1.05646H10.4498C10.7533 1.05646 11 1.30197 11 1.60597V10.3932C11 10.5389 10.942 10.6787 10.8388 10.7818C10.7356 10.8848 10.5957 10.9427 10.4498 10.9427H8.24959V9.84452V10.0365V10.0365ZM8.30486 2.70417H9.29481V3.69279H8.30486V2.70417ZM8.30486 4.59903H9.29481V5.58766H8.30486V4.59903ZM8.30486 6.41152H9.29481V7.40014H8.30486V6.41152ZM8.30486 8.224H9.29481V9.21262H8.30486V8.224ZM4.51005 5.99959L6.05025 8.19681H4.73031L3.85008 6.94125L2.96985 8.19681H1.64992L3.19012 5.99959L1.64992 3.80237H2.96985L3.85008 5.05792L4.73031 3.80237H6.05025L4.51005 5.99959Z" fill="#171717"/>
</svg>
