<svg width="64" height="65" viewBox="0 0 64 65" fill="none" xmlns="http://www.w3.org/2000/svg">
<path d="M50.2562 57.4659V22.0284L35.7312 21.9659C34.9 21.9596 34.225 21.2846 34.225 20.4534V5.95337H18.1875V57.4596H50.2562V57.4659Z" fill="#D4ECEA"/>
<path d="M37.2563 9.35352V18.941L47.9625 18.9848L37.2563 9.35352Z" fill="#D4ECEA"/>
<path d="M12.1312 23.2097C11.2937 23.2097 10.6187 22.5284 10.6187 21.6972V5.95342C10.6187 5.11592 11.2937 4.44092 12.1312 4.44092H35.7375C36.575 4.44092 37.25 5.12217 37.25 5.95342C37.25 6.78467 36.575 7.46592 35.7375 7.46592H13.6437V21.6909C13.6437 22.5284 12.9687 23.2097 12.1312 23.2097ZM12.1312 32.6284C11.2937 32.6284 10.6187 31.9472 10.6187 31.1159V27.4409C10.6187 26.6034 11.2937 25.9284 12.1312 25.9284C12.9687 25.9284 13.6437 26.6097 13.6437 27.4409V31.1159C13.6437 31.9534 12.9687 32.6284 12.1312 32.6284Z" fill="#61C1BD"/>
<path d="M53.2687 20.3223V20.2911V20.2536C53.2687 20.2411 53.2687 20.2223 53.2625 20.2098C53.2625 20.1973 53.2625 20.1911 53.2562 20.1786C53.2562 20.1598 53.25 20.1473 53.25 20.1286C53.25 20.1223 53.25 20.1098 53.2437 20.1036C53.2375 20.0848 53.2375 20.0661 53.2312 20.0536C53.2312 20.0473 53.225 20.0348 53.225 20.0286C53.2187 20.0098 53.2187 19.9911 53.2125 19.9786C53.2125 19.9723 53.2062 19.9598 53.2062 19.9536C53.2 19.9348 53.1937 19.9223 53.1875 19.9036C53.1875 19.8973 53.1812 19.8848 53.1812 19.8786C53.175 19.8661 53.1687 19.8473 53.1625 19.8348C53.1562 19.8223 53.1562 19.8161 53.15 19.8036L53.1312 19.7661L53.1125 19.7286C53.1125 19.7223 53.1062 19.7161 53.1062 19.7098C53.0875 19.6723 53.0687 19.6411 53.05 19.6036C53.05 19.5973 53.0437 19.5973 53.0437 19.5911C53.0312 19.5723 53.025 19.5598 53.0125 19.5473C53.0062 19.5411 53.0062 19.5348 53 19.5286C52.9875 19.5161 52.9812 19.5036 52.9687 19.4848C52.9625 19.4786 52.9562 19.4723 52.95 19.4598C52.9375 19.4473 52.9312 19.4348 52.9187 19.4223C52.9125 19.4161 52.9062 19.4036 52.8937 19.3973C52.8875 19.3848 52.875 19.3786 52.8687 19.3661L52.8312 19.3286L52.8125 19.3098C52.7937 19.2911 52.775 19.2723 52.75 19.2536L36.7375 4.82857C36.2937 4.42857 35.6562 4.32857 35.1062 4.57232C34.5625 4.81607 34.2062 5.35982 34.2062 5.95357V20.4473C34.2062 21.2786 34.8812 21.9598 35.7125 21.9598L50.2375 22.0223V57.4598H13.6312V36.5598C13.6312 35.7223 12.9562 35.0473 12.1187 35.0473C11.2812 35.0473 10.6062 35.7286 10.6062 36.5598V58.9786C10.6062 59.8161 11.2812 60.4911 12.1187 60.4911H51.7562C52.5937 60.4911 53.2687 59.8098 53.2687 58.9786V20.3723V20.3223V20.3223ZM37.2375 18.9411V9.35357L47.95 18.9848L37.2375 18.9411Z" fill="#61C1BD"/>
<path d="M33.7813 29.9598H20.0313C19.1938 29.9598 18.5188 29.2786 18.5188 28.4473C18.5188 27.6161 19.1938 26.9348 20.0313 26.9348H33.7875C34.625 26.9348 35.3 27.6161 35.3 28.4473C35.3 29.2786 34.6188 29.9598 33.7813 29.9598V29.9598ZM40.85 38.0723H20.0313C19.1938 38.0723 18.5188 37.3911 18.5188 36.5598C18.5188 35.7286 19.1938 35.0473 20.0313 35.0473H40.85C41.6875 35.0473 42.3625 35.7286 42.3625 36.5598C42.3625 37.3911 41.6875 38.0723 40.85 38.0723ZM43.875 46.1786H20.0313C19.1938 46.1786 18.5188 45.4973 18.5188 44.6661C18.5188 43.8286 19.1938 43.1536 20.0313 43.1536H43.875C44.7125 43.1536 45.3875 43.8348 45.3875 44.6661C45.3938 45.5036 44.7125 46.1786 43.875 46.1786Z" fill="#61C1BD"/>
<path d="M24.5195 56H20.9375V49.9492H24.3789V51.0039H22.2266V52.4297H24.2266V53.4805H22.2266V54.9453H24.5195V56ZM30.375 56H28.8438L27.7578 53.9922C27.7188 53.9193 27.6784 53.7878 27.6367 53.5977H27.6211C27.6003 53.6914 27.5534 53.8268 27.4805 54.0039L26.3906 56H24.8477L26.7891 52.9727L25.0156 49.9492H26.5859L27.4883 51.8008C27.5612 51.9518 27.6237 52.1185 27.6758 52.3008H27.6914C27.7461 52.1367 27.8125 51.9635 27.8906 51.7812L28.8867 49.9492H30.3281L28.5 52.9492L30.375 56ZM35.4336 55.7812C34.9935 55.9974 34.4193 56.1055 33.7109 56.1055C32.7995 56.1055 32.0755 55.8333 31.5391 55.2891C31.0052 54.7422 30.7383 54.0143 30.7383 53.1055C30.7383 52.1497 31.0365 51.3685 31.6328 50.7617C32.2318 50.1523 33.0039 49.8477 33.9492 49.8477C34.5404 49.8477 35.0352 49.9245 35.4336 50.0781V51.3242C35.0247 51.0846 34.5612 50.9648 34.043 50.9648C33.4518 50.9648 32.9792 51.1536 32.625 51.5312C32.2708 51.9089 32.0938 52.4023 32.0938 53.0117C32.0938 53.6055 32.2617 54.0833 32.5977 54.4453C32.9336 54.8073 33.388 54.9883 33.9609 54.9883C34.5 54.9883 34.9909 54.8581 35.4336 54.5977V55.7812ZM40.0898 56H36.5078V49.9492H39.9492V51.0039H37.7969V52.4297H39.7969V53.4805H37.7969V54.9453H40.0898V56ZM44.6367 56H41.0859V49.9492H42.375V54.9453H44.6367V56Z" fill="#61C1BD"/>
</svg>
