<svg width="61" height="60" viewBox="0 0 61 60" fill="none" xmlns="http://www.w3.org/2000/svg">
<path d="M28.6472 0.0300716C33.7779 -0.199954 38.9699 0.891921 43.548 3.22803C48.3263 5.64479 52.4324 9.36702 55.3077 13.8839C58.1816 18.3649 59.8171 23.6286 59.9874 28.9506C60.2159 34.9656 58.5669 41.0329 55.3182 46.1009C52.5086 50.5192 48.522 54.1847 43.8782 56.6029C37.6465 59.886 30.2349 60.827 23.373 59.2617C19.0339 58.2908 14.9263 56.3251 11.4401 53.5663C7.57891 50.5297 4.48402 46.5311 2.51386 42.0307C0.0717074 36.5026 -0.60642 30.2202 0.546695 24.2918C1.68637 18.2514 4.78873 12.6143 9.22344 8.36477C14.4035 3.35349 21.4417 0.322832 28.6472 0.0300716ZM26.9175 9.54477C26.6307 9.66128 26.3185 9.67323 26.0138 9.71057C25.7046 9.78973 25.3895 9.84201 25.0773 9.91221C24.8771 9.963 24.677 10.0138 24.4798 10.072C24.4126 10.0929 24.2797 10.1348 24.2139 10.1557C23.9555 10.2319 23.6941 10.2976 23.4372 10.3753C23.3685 10.3947 23.2341 10.432 23.1654 10.4514C23.012 10.5036 22.8576 10.5529 22.7023 10.5993C22.4484 10.7278 22.1975 10.8577 21.948 10.9921C21.8778 11.0041 21.7374 11.0265 21.6672 11.0384C21.4626 11.1445 21.2565 11.2491 21.0503 11.3521C20.8532 11.4522 20.6545 11.5508 20.4574 11.6494C20.1556 11.8032 19.8524 11.9511 19.5447 12.0915C19.0279 12.3738 18.5888 12.7726 18.0809 13.0669C17.8404 13.2073 17.6044 13.3536 17.3834 13.5239C16.1601 14.5351 14.8755 15.5045 13.9151 16.7861C13.3983 17.3462 12.989 17.9945 12.4811 18.5636C12.4767 18.6353 12.4662 18.7772 12.4602 18.8489C11.7836 19.5912 11.3235 20.5038 10.8665 21.3911C10.8172 21.5479 10.7649 21.7033 10.7111 21.8586C10.6992 21.9288 10.6723 22.0677 10.6589 22.1364C10.5125 22.3291 10.3736 22.5263 10.2347 22.7234L10.2212 23.182C10.1346 23.3284 10.0494 23.4748 9.9643 23.6226C9.92248 23.7795 9.88066 23.9348 9.83585 24.0902C9.73876 24.3934 9.6342 24.6921 9.52516 24.9908C9.48633 25.2418 9.44899 25.4927 9.39372 25.7422C9.34144 25.9408 9.28916 26.141 9.23091 26.3396C9.18759 26.595 9.14876 26.8505 9.07407 27.0984C9.03972 27.4494 9.05167 27.8139 8.91574 28.147C8.86795 29.7661 8.86795 31.3897 8.91574 33.0104C9.0681 33.4107 9.01731 33.8513 9.13233 34.2621C9.16668 34.395 9.19954 34.5294 9.2339 34.6639C9.29663 34.9103 9.33845 35.1613 9.38326 35.4122C9.43853 35.6124 9.48334 35.8155 9.53114 36.0186C9.60732 36.274 9.67602 36.5325 9.75071 36.7894C9.76714 36.8581 9.79851 36.9955 9.81494 37.0627C9.8717 37.2136 9.92845 37.3644 9.98223 37.5153C10.0285 37.6617 10.0748 37.8081 10.1211 37.9559C10.4572 38.0694 10.3676 38.4369 10.4079 38.7132C10.5633 39.0149 10.7186 39.3196 10.871 39.6259C10.9695 39.823 11.0696 40.0217 11.1697 40.2203C11.2683 40.4205 11.3654 40.6221 11.461 40.8238C11.6372 41.118 11.8209 41.4063 11.9778 41.711C12.2302 42.0576 12.5349 42.3638 12.7366 42.7446C13.0338 43.3063 13.4685 43.7738 13.8912 44.2428C14.3871 44.891 15.0174 45.4153 15.5745 46.0068C16.5574 47.0524 17.7852 47.8112 18.9562 48.6208C19.1638 48.7402 19.367 48.8687 19.5731 48.9927C19.8166 49.1152 20.0615 49.2346 20.305 49.3586C20.6605 49.5349 21.016 49.7126 21.373 49.8859C21.5179 49.9651 21.6628 50.0457 21.8076 50.1264L22.0914 50.1742C22.3917 50.3176 22.7009 50.443 23.0085 50.5685C23.0788 50.5834 23.2192 50.6103 23.2879 50.6238C23.4925 50.7014 23.6986 50.7716 23.9033 50.8478C24.1064 50.8926 24.311 50.9389 24.5142 50.9942C24.5799 51.0151 24.7143 51.0584 24.7815 51.0793C25.0399 51.16 25.3028 51.2272 25.5612 51.3109C25.7928 51.3318 26.0258 51.3512 26.2588 51.3766C26.6636 51.5274 27.1147 51.4468 27.5179 51.6126C29.1864 51.6574 30.8593 51.6574 32.5277 51.6126C32.928 51.4513 33.3731 51.5155 33.7839 51.387C34.0782 51.3482 34.3754 51.3123 34.6682 51.2541C34.8668 51.1973 35.0655 51.1436 35.2641 51.0838C35.3314 51.0629 35.4673 51.0226 35.536 51.0032C35.7914 50.924 36.0513 50.8583 36.3067 50.7806C36.3754 50.7627 36.5128 50.7283 36.5801 50.7104C36.7294 50.6507 36.8803 50.5939 37.0326 50.5401C37.188 50.4938 37.3433 50.452 37.5002 50.4117C37.6465 50.328 37.7914 50.2444 37.9378 50.1622L38.2291 50.1264C38.6697 49.8844 39.1223 49.6648 39.5719 49.4393C39.8721 49.2914 40.1709 49.1405 40.4711 48.9927C40.6757 48.8672 40.8759 48.7373 41.0835 48.6163C42.6011 47.6812 44.0111 46.5684 45.2195 45.254C46.5757 44.0352 47.5137 42.4594 48.5145 40.9567C48.6788 40.6102 48.8506 40.2651 49.0253 39.9231C49.224 39.5123 49.4257 39.1046 49.6467 38.7072C49.6557 38.5146 49.6646 38.3234 49.6751 38.1322C49.823 37.9365 49.9649 37.7349 50.1038 37.5332C50.1127 37.46 50.1292 37.3122 50.1366 37.239C50.1949 37.0896 50.2502 36.9402 50.3054 36.7894C50.3726 36.5325 50.4339 36.2726 50.5086 36.0186C50.5549 35.8155 50.6042 35.6124 50.6639 35.4137C50.7027 35.1642 50.7401 34.9148 50.7953 34.6684C50.8536 34.4652 50.9104 34.2621 50.9761 34.0634C51.0015 33.7094 50.9865 33.342 51.1269 33.0089C51.1732 31.3897 51.1747 29.7661 51.1269 28.147C50.988 27.8139 51.003 27.4479 50.9731 27.0954C50.8835 26.7847 50.8312 26.4651 50.752 26.1529C50.7207 26.017 50.6908 25.8811 50.6594 25.7466C50.5952 25.4987 50.5549 25.2448 50.5145 24.9908C50.407 24.6936 50.3069 24.3934 50.2098 24.0931C50.162 23.9423 50.1157 23.7914 50.0724 23.6421C49.9918 23.4344 49.9156 23.2253 49.8349 23.0207C49.8274 22.946 49.814 22.7981 49.8065 22.7234C49.6676 22.5233 49.5257 22.3261 49.3793 22.1334C49.3674 21.9886 49.3554 21.8452 49.345 21.7018C49.1792 21.4001 49.0253 21.0909 48.879 20.7802C47.3674 18.2992 45.7094 15.7913 43.3106 14.0811C42.9102 13.6824 42.4563 13.3416 41.9618 13.0683C41.5361 12.8249 41.1552 12.5157 40.7668 12.2199C40.6996 12.211 40.5622 12.1945 40.4935 12.1871C40.2142 11.969 39.902 11.7987 39.5883 11.6389C39.433 11.5687 39.2791 11.497 39.1268 11.4268C38.8758 11.2939 38.6249 11.1669 38.377 11.031C38.3067 11.0205 38.1663 11.0026 38.0961 10.9921C37.8452 10.8577 37.5928 10.7278 37.3388 10.5993C37.1835 10.553 37.0297 10.5037 36.8773 10.4514L36.6069 10.3738C36.3485 10.2961 36.0872 10.2319 35.8302 10.1542C35.763 10.1348 35.6286 10.0929 35.5629 10.0735C35.3642 10.0123 35.1656 9.9615 34.9669 9.90923C34.7204 9.85247 34.4725 9.80915 34.226 9.76434C33.8601 9.68368 33.4822 9.66277 33.1252 9.54626C31.058 9.49996 28.9862 9.49996 26.9175 9.54477Z" fill="#009D89" fill-opacity="0.6"/>
<path d="M29.391 12.481C29.8316 12.2853 30.3589 12.2898 30.801 12.481C31.394 12.5348 32.0049 12.4317 32.586 12.5975C32.8339 12.6468 33.0834 12.6931 33.3313 12.7514C33.5793 12.7962 33.8302 12.841 34.0766 12.9037C34.3216 12.9455 34.5666 12.9859 34.81 13.0367C34.9609 13.0979 35.1103 13.1606 35.2611 13.2249C35.3313 13.2368 35.4717 13.2622 35.5434 13.2742C35.7466 13.3593 35.9527 13.44 36.1573 13.5266C36.229 13.537 36.3754 13.555 36.4486 13.5639C36.595 13.655 36.7414 13.7447 36.8892 13.8358L37.1835 13.8657C37.3851 13.9762 37.5898 14.0837 37.7944 14.1913C38.1379 14.3586 38.4815 14.5318 38.8265 14.7006C39.0312 14.8261 39.2328 14.956 39.4434 15.0755C41.6018 16.4422 43.4719 18.2541 44.9267 20.3527C45.3315 21.0487 45.8319 21.6925 46.1067 22.4588C46.2351 22.6589 46.3696 22.8561 46.513 23.0488C46.5204 23.1951 46.5279 23.34 46.5369 23.4864C46.6295 23.6343 46.7206 23.7807 46.8132 23.9285C46.8207 24.0002 46.8326 24.1451 46.8401 24.2168C46.9267 24.3662 47.0119 24.5155 47.097 24.6679C47.1373 24.8755 47.1806 25.0846 47.2329 25.2923C47.2583 25.4297 47.2852 25.5671 47.3121 25.706C47.3718 25.9047 47.4226 26.1048 47.4749 26.3065C47.5287 26.5036 47.5795 26.7023 47.6332 26.9009C47.7184 27.2385 47.7363 27.5865 47.7662 27.9331C47.932 28.3961 47.8647 28.8935 47.8737 29.376C47.8513 30.438 47.9096 31.5014 47.8438 32.5635C47.6915 32.9608 47.7333 33.3969 47.6332 33.8077C47.5795 34.0078 47.5302 34.208 47.4764 34.4081C47.4226 34.6083 47.3688 34.8099 47.3046 35.0086C47.2867 35.1983 47.2733 35.3895 47.2583 35.5807C47.1747 35.7256 47.0925 35.8734 47.0104 36.0213C46.9641 36.1781 46.9163 36.3365 46.8655 36.4948C46.8431 36.562 46.7998 36.695 46.7773 36.7607C46.7221 36.9623 46.6788 37.167 46.634 37.3701C46.3651 37.7405 46.1649 38.1513 45.9738 38.565C45.793 38.9235 45.5749 39.2626 45.3718 39.6076C44.6265 40.9041 43.6496 42.0393 42.6578 43.1461C42.4397 43.3254 42.2097 43.4882 42.011 43.6883C41.1537 44.5696 40.0543 45.1551 39.1268 45.9497C39.0566 45.9587 38.9147 45.9751 38.8445 45.9826C38.5427 46.1469 38.2365 46.3023 37.9288 46.4531C37.5778 46.6279 37.2283 46.8026 36.8848 46.9893C36.8116 46.9983 36.6637 47.0147 36.5905 47.0222C36.4441 47.1118 36.2962 47.2029 36.1499 47.2941L35.8616 47.3359C35.7107 47.3941 35.5599 47.4524 35.4075 47.5091C35.1521 47.5793 34.8937 47.6391 34.6383 47.7108C34.5711 47.7362 34.4396 47.784 34.3724 47.8094C34.1259 47.8661 33.878 47.9109 33.63 47.9602C33.3373 48.0319 33.0371 48.0618 32.7383 48.1006C32.2588 48.2605 31.7465 48.1903 31.2506 48.2291C30.5844 48.4741 29.851 48.3307 29.158 48.3262C28.5695 48.0633 27.9003 48.3322 27.3028 48.1006C27.0041 48.0618 26.7054 48.0304 26.4126 47.9617C26.1647 47.9109 25.9167 47.8676 25.6703 47.8094C25.6045 47.7855 25.4716 47.7362 25.4044 47.7123C25.149 47.6391 24.8906 47.5793 24.6351 47.5091C24.4828 47.4524 24.3319 47.3941 24.1826 47.3359C24.1109 47.3239 23.966 47.303 23.8928 47.2926C23.7449 47.2015 23.5985 47.1118 23.4507 47.0222C23.3775 47.0147 23.2311 46.9998 23.1579 46.9938C22.904 46.8504 22.6456 46.719 22.3931 46.5786L22.1049 46.5487C21.9585 46.4307 21.8106 46.3157 21.6597 46.2052C21.5821 46.1723 21.4267 46.1066 21.3506 46.0737C21.2729 46.0379 21.119 45.9692 21.0429 45.9348C19.4626 44.9116 17.9211 43.7765 16.6903 42.3425C15.8897 41.4687 15.1384 40.5337 14.5977 39.4732C14.4498 39.2267 14.2929 38.9848 14.1496 38.7368C14.0047 38.4246 13.8493 38.1154 13.685 37.8137C13.6776 37.742 13.6596 37.5986 13.6522 37.5284C13.561 37.3776 13.4684 37.2267 13.3773 37.0773C13.3714 37.0012 13.3609 36.8503 13.3549 36.7741C13.2638 36.6262 13.1727 36.4799 13.0831 36.3335C13.0726 36.2603 13.0532 36.1169 13.0427 36.0437C12.98 35.8943 12.9188 35.7435 12.859 35.5926C12.8067 35.3955 12.7634 35.1968 12.7171 34.9996C12.6634 34.801 12.6185 34.5993 12.5722 34.3992C12.514 34.2035 12.4617 34.0063 12.4079 33.8107C12.3273 33.4701 12.3123 33.1206 12.2825 32.7756C12.1421 32.4081 12.16 32.0093 12.16 31.6239C12.1764 30.7755 12.1764 29.9271 12.1645 29.0802C12.163 28.6948 12.1421 28.299 12.2795 27.9331C12.3079 27.5835 12.3153 27.2281 12.4244 26.892C12.4512 26.7561 12.4781 26.6201 12.5065 26.4857C12.5872 26.2258 12.6559 25.9614 12.7425 25.703C12.756 25.5103 12.7694 25.3191 12.7814 25.1265C12.865 24.9786 12.9486 24.8292 13.0308 24.6813C13.0786 24.523 13.1294 24.3662 13.1817 24.2108C13.1951 24.1406 13.2235 24.0017 13.2384 23.9315C13.3176 23.7866 13.3967 23.6402 13.4744 23.4924C13.5282 23.3266 13.5849 23.1608 13.6432 22.9965L13.4864 22.8934L13.9614 22.4498L13.9793 22.1525C14.1195 21.9569 14.254 21.7571 14.3826 21.5536C14.7112 21.0428 14.9233 20.4572 15.3355 20.0032C15.9255 19.2996 16.4409 18.5304 17.1354 17.921C18.0436 16.965 19.0339 16.0748 20.1556 15.3802C20.4529 15.1831 20.7337 14.9635 21.0369 14.7753C21.2998 14.6603 21.5582 14.5303 21.8181 14.4064C22.0167 14.3048 22.2154 14.2062 22.4155 14.1091C22.5619 14.0285 22.7083 13.9463 22.8547 13.8642C22.9294 13.8567 23.0772 13.8432 23.1519 13.8373C23.2983 13.7462 23.4462 13.655 23.5941 13.5654L23.8823 13.5236C24.0317 13.4639 24.1826 13.4056 24.3334 13.3488C24.4843 13.301 24.6351 13.2547 24.7875 13.2099C24.9339 13.1502 25.0817 13.0934 25.2296 13.0367C25.4776 12.9844 25.7285 12.9455 25.9794 12.9067C26.2349 12.8305 26.4933 12.7633 26.7502 12.6871C27.0564 12.6588 27.3745 12.6543 27.6628 12.5318C28.2379 12.484 28.8159 12.5169 29.391 12.481ZM28.4963 15.7537C28.1483 15.7835 27.7943 15.791 27.4582 15.8926C27.3223 15.9224 27.1863 15.9508 27.0504 15.9807C26.7935 16.0539 26.5336 16.1166 26.2752 16.1913C26.0721 16.2406 25.8674 16.2899 25.6673 16.3511C25.5941 16.3631 25.4492 16.387 25.376 16.4004C25.3118 16.4631 25.1818 16.5916 25.1176 16.6543C24.901 16.6947 24.6844 16.7365 24.4708 16.7918C24.3991 16.8052 24.2528 16.8336 24.1811 16.8485C23.9794 16.9844 23.7808 17.1234 23.5866 17.2697C23.5149 17.2757 23.37 17.2906 23.2968 17.2966C23.0459 17.4549 22.7994 17.6178 22.5455 17.7716C22.0257 18.1181 21.373 18.3571 21.0444 18.9217C20.9712 18.9232 20.8248 18.9277 20.7516 18.9292C20.2482 19.4445 19.7389 19.9524 19.2266 20.4587C18.4379 21.1951 17.8404 22.1077 17.2848 23.0249C17.104 23.3251 16.9188 23.6238 16.756 23.9345C16.5895 24.2844 16.4182 24.6319 16.2422 24.9771C16.1974 25.1309 16.1526 25.2848 16.1048 25.4386C16.0555 25.5865 16.0062 25.7344 15.9554 25.8823C15.9016 26.0316 15.8464 26.1825 15.7911 26.3333C15.7717 26.4006 15.7343 26.5365 15.7149 26.6052C15.6537 26.8024 15.6014 27.001 15.5491 27.2012C15.4939 27.4461 15.4505 27.6941 15.4042 27.9405C15.2922 28.3259 15.3042 28.7292 15.2773 29.1265C15.0726 29.6329 15.1817 30.1885 15.1578 30.7188C15.1832 31.2535 15.0697 31.8166 15.2773 32.3275C15.3042 32.6561 15.3146 32.9847 15.337 33.3133C15.4311 33.624 15.4849 33.9436 15.5671 34.2588C15.582 34.329 15.6104 34.4724 15.6253 34.5426C15.7239 34.7009 15.821 34.8607 15.9211 35.0191C15.8822 35.0385 15.8031 35.0758 15.7627 35.0952C15.8299 35.2521 15.8972 35.4104 15.9644 35.5687C16.0062 35.7226 16.048 35.8764 16.0869 36.0318C16.2198 36.2812 16.3467 36.5351 16.4842 36.7831C16.4946 36.8563 16.5125 37.0012 16.523 37.0728C16.5648 37.1505 16.647 37.3044 16.6888 37.382C16.868 37.742 17.0772 38.0856 17.2773 38.4351C17.5148 38.8563 17.8942 39.1774 18.1078 39.6136C19.0264 40.928 20.193 42.0587 21.5149 42.9624L21.7957 42.9923C21.9897 43.1373 22.1874 43.2772 22.3887 43.412C22.4604 43.4269 22.6052 43.4553 22.6769 43.4703C23.2714 43.6361 23.9227 43.6331 24.5186 43.4717C24.5903 43.4553 24.7307 43.424 24.8024 43.4075C26.1004 42.698 27.0325 41.53 27.8958 40.3604C28.5008 39.3865 29.2715 38.5217 29.8286 37.5135C29.975 37.2386 30.1707 36.9937 30.3828 36.7666C30.3888 36.6979 30.3992 36.562 30.4052 36.4933C30.8608 36.2155 31.1401 35.7375 31.3955 35.2834C32.099 34.4126 32.8668 33.5911 33.6091 32.7502C35.1954 31.0459 36.9893 29.5567 38.7847 28.0735C39.533 27.3012 40.5069 26.7456 41.0835 25.8135C41.1178 25.8061 41.1865 25.7926 41.2194 25.7852C41.4688 25.4222 41.7482 25.0772 41.9393 24.6783C42.0606 24.4203 42.1922 24.1671 42.3337 23.9196C42.3501 23.3789 42.3471 22.8396 42.3337 22.3004C41.6003 20.7604 40.483 19.3683 38.9834 18.5229C38.6324 18.2765 38.3261 17.9688 37.9438 17.7686C37.7824 17.667 37.6256 17.5565 37.4718 17.446C37.3045 17.44 37.1387 17.434 36.9729 17.4296C36.9699 17.3698 36.9669 17.2488 36.9654 17.1891C36.8698 17.1428 36.6786 17.0517 36.583 17.0068C36.5098 16.9979 36.3635 16.9815 36.2903 16.9725C36.1424 16.8814 35.996 16.7903 35.8496 16.6991L35.5464 16.6752C35.3986 16.5856 35.2522 16.496 35.1058 16.4064C35.0341 16.3929 34.8922 16.3631 34.8205 16.3481C34.6203 16.2884 34.4172 16.2391 34.2141 16.1913C33.9572 16.1181 33.6973 16.0539 33.4403 15.9807C33.3029 15.9508 33.167 15.9224 33.0326 15.8926C32.5785 15.7327 32.0751 15.8627 31.6315 15.6685C30.5904 15.6745 29.515 15.5177 28.4963 15.7537Z" fill="#009D89"/>
<path d="M28.6591 23.4927C29.1744 23.3627 29.7091 23.4135 30.2349 23.4061C30.7173 23.412 31.2102 23.3642 31.6822 23.4987C31.8779 23.5495 32.0751 23.5973 32.2723 23.651C32.4216 23.7078 32.5725 23.7675 32.7218 23.8288C32.7935 23.8422 32.9354 23.8661 33.0071 23.8781C33.152 23.9557 33.2984 24.0334 33.4448 24.1096C34.1229 24.492 34.8727 24.8788 35.3014 25.551C35.3388 25.7093 35.3791 25.8676 35.4209 26.026C35.3761 26.1738 35.3328 26.3247 35.2895 26.4756C34.3201 28.0484 32.4455 28.7385 31.4029 30.2441C30.9026 30.616 30.4276 31.0238 30.1781 31.6138L30.0273 31.6377C29.6165 32.2755 29.0877 32.8326 28.7173 33.4988C28.0033 34.4324 27.5268 35.6273 26.4604 36.2278C26.3095 36.2681 26.1601 36.3084 26.0108 36.3517C25.8465 36.3099 25.6822 36.2711 25.5194 36.2307C24.7023 35.7856 24.2766 34.9133 23.6836 34.2337C23.6777 34.1605 23.6642 34.0141 23.6582 33.9409C23.5746 33.7946 23.4924 33.6482 23.4103 33.5018C23.364 33.3435 23.3162 33.1866 23.2654 33.0298C23.243 32.9626 23.1952 32.8296 23.1728 32.7624C23.1145 32.5175 23.0697 32.268 23.0204 32.0216C22.8307 31.1941 22.9443 30.3292 22.9517 29.4883C23.0533 29.1836 23.0966 28.8654 23.1653 28.5533C23.2236 28.4009 23.2848 28.2515 23.3476 28.1022C23.358 28.0305 23.3804 27.8886 23.3909 27.8169C23.5865 27.4584 23.7971 27.1089 24.0003 26.7564C24.5694 25.8303 25.3431 25.0446 26.2766 24.486C26.5336 24.3381 26.7815 24.1753 27.0324 24.0185L27.3342 23.9946C27.4805 23.9035 27.6284 23.8138 27.7748 23.7257L28.0616 23.6719C28.2587 23.6077 28.4589 23.5509 28.6591 23.4927Z" fill="#009D89"/>
</svg>
