<svg width="60" height="60" viewBox="0 0 60 60" fill="none" xmlns="http://www.w3.org/2000/svg">
<path d="M0 56.25C0 57.2446 0.395088 58.1984 1.09835 58.9016C1.80161 59.6049 2.75544 60 3.75 60H56.25C57.2446 60 58.1984 59.6049 58.9016 58.9016C59.6049 58.1984 60 57.2446 60 56.25V15C60 14.0054 59.6049 13.0516 58.9016 12.3483C58.1984 11.6451 57.2446 11.25 56.25 11.25H3.75C2.75544 11.25 1.80161 11.6451 1.09835 12.3483C0.395088 13.0516 0 14.0054 0 15L0 56.25Z" fill="#009D89" fill-opacity="0.6"/>
<path d="M56.25 28.125V16.875C56.25 16.3777 56.0525 15.9008 55.7008 15.5492C55.3492 15.1975 54.8723 15 54.375 15H5.625C5.12772 15 4.65081 15.1975 4.29917 15.5492C3.94754 15.9008 3.75 16.3777 3.75 16.875V28.125H56.25Z" fill="#009D89" fill-opacity="0.8"/>
<path d="M41.25 37.5C41.25 38.4946 41.6451 39.4484 42.3484 40.1516C43.0516 40.8549 44.0054 41.25 45 41.25C45.9946 41.25 46.9484 40.8549 47.6516 40.1516C48.3549 39.4484 48.75 38.4946 48.75 37.5C48.75 36.5054 48.3549 35.5516 47.6516 34.8484C46.9484 34.1451 45.9946 33.75 45 33.75C44.0054 33.75 43.0516 34.1451 42.3484 34.8484C41.6451 35.5516 41.25 36.5054 41.25 37.5Z" fill="#009D89"/>
<path d="M11.25 37.5C11.25 38.4946 11.6451 39.4484 12.3483 40.1516C13.0516 40.8549 14.0054 41.25 15 41.25C15.9946 41.25 16.9484 40.8549 17.6516 40.1516C18.3549 39.4484 18.75 38.4946 18.75 37.5C18.75 36.5054 18.3549 35.5516 17.6516 34.8484C16.9484 34.1451 15.9946 33.75 15 33.75C14.0054 33.75 13.0516 34.1451 12.3483 34.8484C11.6451 35.5516 11.25 36.5054 11.25 37.5Z" fill="#009D89"/>
<path d="M46.875 37.5C46.875 37.9973 46.6775 38.4742 46.3258 38.8258C45.9742 39.1775 45.4973 39.375 45 39.375H15C14.5027 39.375 14.0258 39.1775 13.6742 38.8258C13.3225 38.4742 13.125 37.9973 13.125 37.5C13.125 37.0027 13.3225 36.5258 13.6742 36.1742C14.0258 35.8225 14.5027 35.625 15 35.625H45C45.4973 35.625 45.9742 35.8225 46.3258 36.1742C46.6775 36.5258 46.875 37.0027 46.875 37.5Z" fill="#009D89" fill-opacity="0.6"/>
<path d="M45 39.375H15C14.6763 39.3716 14.3593 39.2832 14.0805 39.1187C13.8018 38.9541 13.5712 38.7192 13.4119 38.4375C13.2318 38.7176 13.1325 39.0421 13.125 39.375C13.125 39.8723 13.3225 40.3492 13.6742 40.7008C14.0258 41.0525 14.5027 41.25 15 41.25H45C45.4973 41.25 45.9742 41.0525 46.3258 40.7008C46.6775 40.3492 46.875 39.8723 46.875 39.375C46.8675 39.0421 46.7682 38.7176 46.5881 38.4375C46.4288 38.7192 46.1982 38.9541 45.9195 39.1187C45.6407 39.2832 45.3237 39.3716 45 39.375Z" fill="#009D89"/>
<path d="M3.75 26.25H7.5V28.125H3.75V26.25ZM52.5 26.25H56.25V28.125H52.5V26.25Z" fill="#009D89"/>
<path d="M48.75 0H11.25C10.2554 0 9.30161 0.395088 8.59835 1.09835C7.89509 1.80161 7.5 2.75544 7.5 3.75V13.125C7.5 12.1304 7.89509 11.1766 8.59835 10.4733C9.30161 9.77009 10.2554 9.375 11.25 9.375H48.75C49.7446 9.375 50.6984 9.77009 51.4016 10.4733C52.1049 11.1766 52.5 12.1304 52.5 13.125V3.75C52.5 2.75544 52.1049 1.80161 51.4016 1.09835C50.6984 0.395088 49.7446 0 48.75 0V0Z" fill="#009D89" fill-opacity="0.6"/>
<path d="M48.75 3.75H11.25C10.2554 3.75 9.30161 4.14509 8.59835 4.84835C7.89509 5.55161 7.5 6.50544 7.5 7.5V9.375C7.5 8.38044 7.89509 7.42661 8.59835 6.72335C9.30161 6.02009 10.2554 5.625 11.25 5.625H48.75C49.7446 5.625 50.6984 6.02009 51.4016 6.72335C52.1049 7.42661 52.5 8.38044 52.5 9.375V7.5C52.5 6.50544 52.1049 5.55161 51.4016 4.84835C50.6984 4.14509 49.7446 3.75 48.75 3.75Z" fill="#009D89"/>
<path d="M48.75 0H11.25C10.2554 0 9.30161 0.395088 8.59835 1.09835C7.89509 1.80161 7.5 2.75544 7.5 3.75V5.625C7.5 4.63044 7.89509 3.67661 8.59835 2.97335C9.30161 2.27009 10.2554 1.875 11.25 1.875H48.75C49.7446 1.875 50.6984 2.27009 51.4016 2.97335C52.1049 3.67661 52.5 4.63044 52.5 5.625V3.75C52.5 2.75544 52.1049 1.80161 51.4016 1.09835C50.6984 0.395088 49.7446 0 48.75 0V0ZM48.75 7.5H11.25C10.2554 7.5 9.30161 7.89509 8.59835 8.59835C7.89509 9.30161 7.5 10.2554 7.5 11.25V13.125C7.5 12.1304 7.89509 11.1766 8.59835 10.4733C9.30161 9.77009 10.2554 9.375 11.25 9.375H48.75C49.7446 9.375 50.6984 9.77009 51.4016 10.4733C52.1049 11.1766 52.5 12.1304 52.5 13.125V11.25C52.5 10.2554 52.1049 9.30161 51.4016 8.59835C50.6984 7.89509 49.7446 7.5 48.75 7.5Z" fill="#009D89"/>
<path d="M52.5 28.125V13.125C52.5 12.1304 52.1049 11.1766 51.4016 10.4733C50.6984 9.77009 49.7446 9.375 48.75 9.375H11.25C10.2554 9.375 9.30161 9.77009 8.59835 10.4733C7.89509 11.1766 7.5 12.1304 7.5 13.125V28.125H52.5Z" fill="#009D89" fill-opacity="0.6"/>
</svg>
