<svg width="77" height="60" viewBox="0 0 77 60" fill="none" xmlns="http://www.w3.org/2000/svg">
<g clip-path="url(#clip0_15845_2554)">
<path d="M40.55 47.1898C38.6963 47.2789 36.8408 47.3234 34.985 47.3231C17.0483 47.3231 2.33666 43.7898 0.349993 39.1498C0.179145 39.4773 0.0877918 39.8404 0.0833266 40.2098V49.3998C0.483327 54.3465 15.945 58.3665 34.9417 58.3665C39.8 58.3665 44.395 58.1015 48.5917 57.6165C44.9016 55.0521 42.0936 51.4106 40.5517 47.1898H40.55ZM39.1833 39.5465C39.1833 36.3665 39.845 33.3631 41.0367 30.6681C39.05 30.7565 37.0167 30.8015 34.9417 30.8015C16.96 30.8015 2.29166 27.2665 0.304993 22.6265C0.134125 22.97 0.0435129 23.3478 0.0399933 23.7315V32.9198C0.438327 37.8698 15.9 41.8881 34.8967 41.8881C36.3983 41.8881 37.8567 41.8448 39.3133 41.7998C39.2267 41.0498 39.1817 40.3431 39.1817 39.5465H39.1833Z" fill="#009D89" fill-opacity="0.6"/>
<path d="M61.36 17.3701C64.2767 17.3701 67.1033 17.9451 69.665 19.0034C69.71 18.8284 69.7533 18.6518 69.7983 18.4301V9.24176C69.7983 4.20509 54.1583 0.0517578 34.9417 0.0517578C15.6783 0.0517578 0.0833266 4.20509 0.0399933 9.24176V18.4301C0.438327 23.3784 15.9 27.3984 34.94 27.3984C37.68 27.3984 40.3733 27.3101 42.9817 27.1334C45.013 24.1272 47.7508 21.6651 50.9549 19.9629C54.159 18.2607 57.7318 17.3704 61.36 17.3701Z" fill="#009D89" fill-opacity="0.6"/>
<path d="M59.995 22.2798C50.8017 22.2798 43.345 29.7348 43.345 38.9298C43.345 48.1231 50.8017 55.5798 59.995 55.5798C69.19 55.5798 76.645 48.1231 76.645 38.9298C76.645 29.7348 69.19 22.2798 59.995 22.2798ZM65.2967 27.3315H64.51C63.5567 27.3315 62.8533 27.5398 62.5217 27.9531C62.15 28.3681 61.9833 29.2781 61.9833 30.7281V47.9581C61.9833 49.0748 62.1083 49.8215 62.3983 50.2365C62.6883 50.6498 63.3917 50.8565 64.51 50.8565H65.2967V52.4731H55.0667V50.8565H55.895C56.8483 50.8565 57.5117 50.6898 57.8833 50.3598C58.2567 50.0281 58.4217 49.1998 58.4217 47.9581V30.3148C58.4217 29.1548 58.2967 28.3265 58.0067 27.9531C57.7183 27.5398 57.0133 27.3315 55.9367 27.3315H55.1083V25.7165H65.3383V27.3331H65.2967V27.3315Z" fill="#009D89"/>
</g>
<defs>
<clipPath id="clip0_15845_2554">
<rect width="76.6406" height="60" fill="white"/>
</clipPath>
</defs>
</svg>
