<svg width="73" height="60" viewBox="0 0 73 60" fill="none" xmlns="http://www.w3.org/2000/svg">
<path d="M1.49893 30.6002C2.03781 31.2672 2.70421 31.8201 3.45919 32.2266C4.21417 32.6332 5.04259 32.8851 5.89605 32.9679C6.74952 33.0506 7.61092 32.9624 8.42992 32.7084C9.24891 32.4545 10.0091 32.0399 10.666 31.4888C11.323 30.9377 11.8635 30.2613 12.256 29.4989C12.6486 28.7366 12.8853 27.9037 12.9523 27.0488C13.0193 26.194 12.9152 25.3344 12.6462 24.5202C12.3772 23.706 11.9487 22.9536 11.3856 22.3069C10.2838 21.0011 8.70917 20.1854 7.00693 20.0389C5.30468 19.8923 3.61378 20.4268 2.30501 21.5251C0.996235 22.6234 0.176412 24.1959 0.0253057 25.8977C-0.125801 27.5996 0.404143 29.2919 1.49893 30.6036V30.6002ZM19.289 57.957C21.7422 59.6751 24.7775 60.3484 27.7272 59.8286C30.6768 59.3088 33.2992 57.6386 35.0173 55.1853C36.7355 52.732 37.4087 49.6967 36.889 46.7471C36.3692 43.7974 34.6989 41.1751 32.2457 39.4569C31.0309 38.6064 29.6606 38.0035 28.2128 37.6825C26.7651 37.3616 25.2683 37.329 23.8079 37.5865C20.8586 38.1066 18.2367 39.777 16.519 42.2303C14.8012 44.6835 14.1284 47.7187 14.6485 50.668C15.1686 53.6173 16.839 56.2392 19.2923 57.957H19.289ZM41.2757 17.6102C43.3789 19.0826 45.9808 19.6592 48.5091 19.2132C51.0374 18.7672 53.285 17.3351 54.7574 15.2319C56.2298 13.1287 56.8064 10.5268 56.3604 7.99846C55.9143 5.47015 54.4822 3.22258 52.379 1.75019C51.3377 1.02113 50.1629 0.504326 48.9218 0.229286C47.6806 -0.0457542 46.3975 -0.0736457 45.1456 0.147203C42.6173 0.593228 40.3697 2.02535 38.8973 4.12852C38.1683 5.16991 37.6515 6.34469 37.3764 7.5858C37.1014 8.82692 37.0735 10.1101 37.2944 11.3619C37.7404 13.8903 39.1725 16.1378 41.2757 17.6102ZM60.5557 46.1969C60.964 46.9432 61.5157 47.6014 62.1793 48.1336C62.8428 48.6658 63.605 49.0617 64.422 49.2983C65.2391 49.5349 66.0948 49.6077 66.9401 49.5124C67.7853 49.4171 68.6034 49.1557 69.3473 48.7431C70.0911 48.3305 70.7461 47.775 71.2745 47.1084C71.8029 46.4418 72.1943 45.6773 72.4262 44.8589C72.658 44.0405 72.7258 43.1843 72.6257 42.3396C72.5255 41.4949 72.2593 40.6784 71.8424 39.9369C71.0068 38.4507 69.6169 37.3555 67.9765 36.8907C66.336 36.4259 64.5782 36.6292 63.0872 37.4562C61.5961 38.2832 60.4929 39.6667 60.0186 41.3045C59.5443 42.9422 59.7374 44.7011 60.5557 46.1969Z" fill="#009D89"/>
<path d="M49.7358 17.9767L53.6858 15.7867L66.1992 38.3601L62.2491 40.5501L49.7358 17.9767ZM6.78902 30.3767L10.249 27.4767L26.8391 47.2434L23.3824 50.1434L6.78902 30.3767ZM43.0291 13L46.9791 15.19L31.3724 43.3434L27.4224 41.1567L43.0291 13Z" fill="#009D89" fill-opacity="0.6"/>
</svg>
