<svg width="61" height="60" viewBox="0 0 61 60" fill="none" xmlns="http://www.w3.org/2000/svg">
<path d="M56.7169 26.6256C53.08 23.996 48.6878 22.5817 44.18 22.5888C35.1458 22.5888 27.4283 28.1536 24.3502 36H4.86145C3.57211 36 2.33558 35.4943 1.42388 34.5941C0.512187 33.6939 0 32.473 0 31.2V24.8C0 23.527 0.512187 22.3061 1.42388 21.4059C2.33558 20.5057 3.57211 20 4.86145 20H51.8554C53.1448 20 54.3813 20.5057 55.293 21.4059C56.2047 22.3061 56.7169 23.527 56.7169 24.8V26.6256ZM23.2296 40C23.0243 41.182 22.9213 42.3791 22.9217 43.5784C22.9217 48.2264 24.4531 52.5224 27.0426 56H4.86145C3.57211 56 2.33558 55.4943 1.42388 54.5941C0.512187 53.6939 0 52.473 0 51.2V44.8C0 44.1696 0.125745 43.5455 0.370055 42.9631C0.614366 42.3807 0.972458 41.8516 1.42388 41.4059C1.87531 40.9601 2.41123 40.6066 3.00105 40.3654C3.59087 40.1241 4.22303 40 4.86145 40H23.2296ZM4.86145 0H51.8554C53.1448 0 54.3813 0.505712 55.293 1.40589C56.2047 2.30606 56.7169 3.52696 56.7169 4.8V11.2C56.7169 12.473 56.2047 13.6939 55.293 14.5941C54.3813 15.4943 53.1448 16 51.8554 16H4.86145C3.57211 16 2.33558 15.4943 1.42388 14.5941C0.512187 13.6939 0 12.473 0 11.2V4.8C0 3.52696 0.512187 2.30606 1.42388 1.40589C2.33558 0.505712 3.57211 0 4.86145 0ZM43.3698 60C34.1841 60 26.738 52.648 26.738 43.5784C26.738 34.5088 34.1841 27.1568 43.3698 27.1568C52.5555 27.1568 60.0016 34.5088 60.0016 43.5784C60.0016 52.648 52.5555 60 43.3698 60Z" fill="#009D89" fill-opacity="0.3"/>
<path d="M43.178 27.1571V42.2931L52.2989 57.4347C49.632 59.1144 46.5334 60.0045 43.3701 59.9995C34.1836 59.9995 26.7374 52.6475 26.7374 43.5779C26.7374 34.5715 34.0807 27.2579 43.178 27.1571ZM6.48141 3.99951C6.91119 3.99951 7.32337 4.16808 7.62727 4.46814C7.93117 4.7682 8.1019 5.17516 8.1019 5.59951V9.59951C8.1019 10.0239 7.93117 10.4308 7.62727 10.7309C7.32337 11.0309 6.91119 11.1995 6.48141 11.1995C6.05164 11.1995 5.63946 11.0309 5.33556 10.7309C5.03166 10.4308 4.86093 10.0239 4.86093 9.59951V5.59951C4.86093 5.3894 4.90285 5.18134 4.98428 4.98722C5.06572 4.7931 5.18508 4.61671 5.33556 4.46814C5.48604 4.31957 5.66468 4.20171 5.86128 4.1213C6.05789 4.0409 6.26861 3.99951 6.48141 3.99951ZM6.48141 24.7995C6.69422 24.7995 6.90494 24.8409 7.10155 24.9213C7.29815 25.0017 7.47679 25.1196 7.62727 25.2681C7.77774 25.4167 7.89711 25.5931 7.97854 25.7872C8.05998 25.9813 8.1019 26.1894 8.1019 26.3995V30.3995C8.1019 30.8238 7.93117 31.2308 7.62727 31.5309C7.32337 31.8309 6.91119 31.9995 6.48141 31.9995C6.05164 31.9995 5.63946 31.8309 5.33556 31.5309C5.03166 31.2308 4.86093 30.8238 4.86093 30.3995V26.3995C4.86093 26.1894 4.90285 25.9813 4.98428 25.7872C5.06572 25.5931 5.18508 25.4167 5.33556 25.2681C5.48604 25.1196 5.66468 25.0017 5.86128 24.9213C6.05789 24.8409 6.26861 24.7995 6.48141 24.7995ZM6.48141 44.7995C6.69422 44.7995 6.90494 44.8409 7.10155 44.9213C7.29815 45.0017 7.47679 45.1196 7.62727 45.2681C7.77774 45.4167 7.89711 45.5931 7.97854 45.7872C8.05998 45.9813 8.1019 46.1894 8.1019 46.3995V50.3995C8.1019 50.8238 7.93117 51.2308 7.62727 51.5309C7.32337 51.8309 6.91119 51.9995 6.48141 51.9995C6.05164 51.9995 5.63946 51.8309 5.33556 51.5309C5.03166 51.2308 4.86093 50.8238 4.86093 50.3995V46.3995C4.86093 46.1894 4.90285 45.9813 4.98428 45.7872C5.06572 45.5931 5.18508 45.4167 5.33556 45.2681C5.48604 45.1196 5.66468 45.0017 5.86128 44.9213C6.05789 44.8409 6.26861 44.7995 6.48141 44.7995ZM12.9633 3.99951C13.1761 3.99951 13.3869 4.0409 13.5835 4.1213C13.7801 4.20171 13.9587 4.31957 14.1092 4.46814C14.2597 4.61671 14.379 4.7931 14.4605 4.98722C14.5419 5.18134 14.5838 5.3894 14.5838 5.59951V9.59951C14.5838 10.0239 14.4131 10.4308 14.1092 10.7309C13.8053 11.0309 13.3931 11.1995 12.9633 11.1995C12.5336 11.1995 12.1214 11.0309 11.8175 10.7309C11.5136 10.4308 11.3429 10.0239 11.3429 9.59951V5.59951C11.3429 5.17516 11.5136 4.7682 11.8175 4.46814C12.1214 4.16808 12.5336 3.99951 12.9633 3.99951ZM12.9633 24.7995C13.1761 24.7995 13.3869 24.8409 13.5835 24.9213C13.7801 25.0017 13.9587 25.1196 14.1092 25.2681C14.2597 25.4167 14.379 25.5931 14.4605 25.7872C14.5419 25.9813 14.5838 26.1894 14.5838 26.3995V30.3995C14.5838 30.8238 14.4131 31.2308 14.1092 31.5309C13.8053 31.8309 13.3931 31.9995 12.9633 31.9995C12.5336 31.9995 12.1214 31.8309 11.8175 31.5309C11.5136 31.2308 11.3429 30.8238 11.3429 30.3995V26.3995C11.3429 26.1894 11.3848 25.9813 11.4662 25.7872C11.5476 25.5931 11.667 25.4167 11.8175 25.2681C11.968 25.1196 12.1466 25.0017 12.3432 24.9213C12.5398 24.8409 12.7505 24.7995 12.9633 24.7995ZM12.9633 44.7995C13.1761 44.7995 13.3869 44.8409 13.5835 44.9213C13.7801 45.0017 13.9587 45.1196 14.1092 45.2681C14.2597 45.4167 14.379 45.5931 14.4605 45.7872C14.5419 45.9813 14.5838 46.1894 14.5838 46.3995V50.3995C14.5838 50.8238 14.4131 51.2308 14.1092 51.5309C13.8053 51.8309 13.3931 51.9995 12.9633 51.9995C12.5336 51.9995 12.1214 51.8309 11.8175 51.5309C11.5136 51.2308 11.3429 50.8238 11.3429 50.3995V46.3995C11.3429 46.1894 11.3848 45.9813 11.4662 45.7872C11.5476 45.5931 11.667 45.4167 11.8175 45.2681C11.968 45.1196 12.1466 45.0017 12.3432 44.9213C12.5398 44.8409 12.7505 44.7995 12.9633 44.7995Z" fill="#009D89"/>
</svg>
