<svg width="61" height="60" viewBox="0 0 61 60" fill="none" xmlns="http://www.w3.org/2000/svg">
<path d="M53.728 25.391C49.7504 29.3686 43.301 29.3686 39.3234 25.391L35.3219 21.3892C31.344 17.4116 31.344 10.9626 35.3219 6.98464L39.3234 2.98319C43.301 -0.994398 49.7504 -0.994398 53.728 2.98319L57.7294 6.98464C61.7073 10.9626 61.7073 17.4116 57.7294 21.3892L53.728 25.391Z" fill="#009D89" fill-opacity="0.6"/>
<path d="M26.0301 17.0164C26.0301 22.6418 21.47 27.202 15.8445 27.202H10.1856C4.56019 27.202 0 22.6419 0 17.0164V11.3575C0 5.73207 4.56013 1.17188 10.1856 1.17188H15.8445C21.4699 1.17188 26.0301 5.732 26.0301 11.3575V17.0164Z" fill="#009D89" fill-opacity="0.6"/>
<path d="M59.5408 49.8145C59.5408 55.4396 54.9807 60.0002 49.3552 60.0002H43.6963C38.0709 60.0002 33.5107 55.4397 33.5107 49.8145V44.1553C33.5107 38.5302 38.0708 33.9697 43.6963 33.9697H49.3552C54.9806 33.9697 59.5408 38.5302 59.5408 44.1553V49.8145Z" fill="#009D89" fill-opacity="0.6"/>
<path d="M26.0301 49.8145C26.0301 55.4396 21.47 60.0002 15.8445 60.0002H10.1856C4.56019 60.0002 0 55.4397 0 49.8145V44.1553C0 38.5302 4.56013 33.9697 10.1856 33.9697H15.8445C21.4699 33.9697 26.0301 38.5302 26.0301 44.1553V49.8145Z" fill="#009D89" fill-opacity="0.6"/>
</svg>
