<svg width="60" height="60" viewBox="0 0 60 60" fill="none" xmlns="http://www.w3.org/2000/svg">
<path d="M8.88889 0H51.1111C57.037 0 60 2.96296 60 8.88889V51.1111C60 57.037 57.037 60 51.1111 60H8.88889C2.96296 60 0 57.037 0 51.1111V8.88889C0 2.96296 2.96296 0 8.88889 0Z" fill="#009D89" fill-opacity="0.6"/>
<path d="M18.6622 42.1776C22.3022 42.1776 25.1422 41.422 27.1422 39.9776C29.1422 38.502 30.1422 36.462 30.1422 33.902C30.1422 31.2576 28.8977 29.222 26.4177 27.742C25.2977 27.0976 22.8177 26.142 18.9377 24.942C16.3022 24.0976 14.6577 23.4976 14.0577 23.1776C12.6977 22.4576 12.0577 21.462 12.0577 20.262C12.0577 18.902 12.6222 17.8976 13.8177 17.2976C14.7777 16.7776 16.1377 16.542 17.9422 16.542C20.0222 16.542 21.6177 16.8976 22.6577 17.6976C23.6977 18.4576 24.4577 19.742 24.8577 21.502H29.4977C29.2177 18.382 28.0577 16.062 26.0577 14.5776C24.1822 13.1776 21.5422 12.4976 18.1822 12.4976C15.0977 12.4976 12.5822 13.1776 10.5822 14.5776C8.41774 16.0176 7.38219 18.0176 7.38219 20.5376C7.38219 23.0576 8.46219 24.982 10.6622 26.2976C11.5022 26.7776 13.6977 27.582 17.2222 28.6976C19.7466 29.4664 21.4311 30.0309 22.2889 30.3687L22.7777 30.5776C24.5377 31.4576 25.4622 32.6576 25.4622 34.1776C25.4622 35.3776 24.8222 36.302 23.6177 37.022C22.4177 37.6976 20.7422 38.0576 18.6622 38.0576C16.3022 38.0576 14.5822 37.6176 13.4622 36.8176C12.2177 35.8976 11.4622 34.3376 11.1422 32.182H6.49774C6.6933 35.822 8.0133 38.4576 10.4133 40.1376C12.3733 41.4976 15.1377 42.182 18.6533 42.182L18.6622 42.1776ZM38.2977 49.5376V38.782C39.9777 41.0176 42.0577 42.1776 44.4577 42.1776C47.4177 42.1776 49.7777 41.102 51.4577 38.9376C53.0222 36.9376 53.8222 34.422 53.8222 31.382C53.8222 28.182 53.0222 25.622 51.4222 23.6176C49.6622 21.4576 47.2577 20.3776 44.2222 20.3776C41.5022 20.3776 39.4222 21.302 37.9822 23.142V20.942H33.7422V49.5376H38.2977ZM43.3777 38.4976C41.9022 38.4976 40.7022 37.8976 39.7377 36.6976C38.6577 35.382 38.1377 33.622 38.1377 31.462V31.142C38.1377 29.062 38.5377 27.4176 39.4222 26.1776C40.3822 24.7376 41.7422 24.0576 43.5422 24.0576C45.5422 24.0576 47.0177 24.7776 47.9777 26.2176C48.7377 27.4176 49.1377 29.142 49.1377 31.382C49.1377 33.622 48.7022 35.3376 47.8622 36.5376C46.9022 37.8176 45.3777 38.4976 43.3822 38.4976H43.3777Z" fill="white"/>
</svg>
