<svg width="64" height="64" viewBox="0 0 64 64" fill="none" xmlns="http://www.w3.org/2000/svg">
<path d="M32 0C14.3269 0 0 14.3269 0 32C0 49.6731 14.3269 64 32 64C49.6731 64 64 49.6731 64 32C64 14.3269 49.6731 0 32 0ZM35.0444 14.45C39.3425 14.5694 41.9688 16.9569 42.4463 20.3C42.5656 20.5387 42.5656 20.8969 42.5656 21.3744H35.0444V14.45ZM42.5662 22.0906C42.5662 22.3294 42.4469 22.5681 42.4469 22.8069C42.2081 23.8813 41.3725 24.8362 40.7756 25.1944C40.0594 25.6719 39.4631 25.7913 38.7463 25.9106V22.0906H42.5662ZM37.91 23.0487V25.7944C37.0744 25.7944 36.5975 25.1975 36.5975 24.6006C36.5969 23.7625 37.0744 23.5238 37.91 23.0487ZM36.3581 27.2275H35.0456V25.915C35.4 26.5081 35.88 26.9862 36.3575 27.2244L36.3581 27.2275ZM35.0456 23.29V22.0963H36.0006C35.6413 22.3294 35.2831 22.8069 35.0444 23.2844L35.0456 23.29ZM33.8519 14.3356L34.3294 14.455V27.2244H21.4344C21.5538 23.7619 23.4638 20.0613 25.3719 18.0312C27.7619 15.6438 30.03 14.5694 33.8506 14.3306L33.8519 14.3356ZM31.8225 12.7837C28.5988 13.2612 26.3306 14.5744 24.0625 16.8431C22.2719 18.7531 20.3612 21.8575 19.7644 25.32V12.7788L31.8225 12.7837ZM19.7631 51.2219V30.5675C21.315 40.5962 29.7919 49.6694 40.5369 51.2219H19.7631ZM44.2375 49.6694H43.9987C31.7019 49.7887 21.6731 39.0444 21.4363 27.9406H44.2375V49.6694ZM44.2375 27.2244H40.6556C41.0137 27.105 41.3719 26.8663 41.73 26.6275C42.5656 26.15 43.7594 24.8369 44.2369 23.165L44.2375 27.2244ZM44.2375 19.4644C43.4019 15.8825 40.775 13.495 37.0744 12.7769H44.2375V19.4644Z" fill="#009D89" fill-opacity="0.6"/>
<path d="M37.7915 21.3755H42.5671C42.5671 20.898 42.5671 20.5399 42.4477 20.3012C41.9702 16.958 39.3433 14.5705 35.0458 14.4512V21.3755H37.7915ZM19.7639 30.5687V51.223H40.5371C29.7921 49.6705 21.3158 40.5974 19.7639 30.5687Z" fill="white"/>
<path d="M44.2383 19.4644V12.7769H37.0752C40.7758 13.495 43.4008 15.8825 44.2383 19.4644ZM24.0614 16.8375C26.3296 14.5694 28.5983 13.2556 31.8214 12.7781H19.7639V25.3144C20.3608 21.8519 22.2708 18.7481 24.0614 16.8375ZM41.7308 26.6275C41.3727 26.8662 41.0146 27.105 40.6564 27.2244H44.2383V23.165C43.7608 24.8369 42.5671 26.15 41.7308 26.6275ZM43.9996 49.6693H44.2383V27.9406H21.4352C21.6739 39.0437 31.7027 49.7887 43.9996 49.6693ZM36.5977 24.5981C36.5977 25.195 37.0752 25.7919 37.9102 25.7919V23.0487C37.0752 23.5237 36.5977 23.7625 36.5977 24.5981ZM40.7758 25.195C41.3727 24.8369 42.2083 23.8825 42.4471 22.8075C42.4471 22.5687 42.5664 22.33 42.5664 22.0912H38.7464V25.9112C39.4633 25.7919 40.0596 25.6737 40.7758 25.195Z" fill="white"/>
<path d="M21.4341 27.2233H34.3279V14.449L33.8504 14.3296C30.0298 14.5683 27.7616 15.6421 25.3735 18.0308C23.4623 20.0602 21.5535 23.7615 21.4341 27.2233ZM35.9991 22.0896H35.0441V23.2833C35.2829 22.8058 35.641 22.3283 35.9991 22.0896ZM35.0441 27.2233H36.3566C35.8791 26.9846 35.4016 26.5071 35.0441 25.9108V27.2233Z" fill="white"/>
</svg>
