<svg width="64" height="60" viewBox="0 0 64 60" fill="none" xmlns="http://www.w3.org/2000/svg">
<path d="M50.0687 57.0374V21.5999L35.5437 21.5374C34.7125 21.5312 34.0375 20.8562 34.0375 20.0249V5.5249H18V57.0311H50.0687V57.0374Z" fill="#D4ECEA"/>
<path d="M37.2562 8.92505V18.5125L47.9625 18.5563L37.2562 8.92505Z" fill="#D4ECEA"/>
<path d="M12.1313 22.7812C11.2938 22.7812 10.6187 22.0999 10.6187 21.2687V5.52495C10.6187 4.68745 11.2938 4.01245 12.1313 4.01245H35.7375C36.575 4.01245 37.25 4.6937 37.25 5.52495C37.25 6.3562 36.575 7.03745 35.7375 7.03745H13.6438V21.2625C13.6438 22.1 12.9688 22.7812 12.1313 22.7812V22.7812ZM12.1313 32.2C11.2938 32.2 10.6187 31.5187 10.6187 30.6875V27.0125C10.6187 26.175 11.2938 25.5 12.1313 25.5C12.9688 25.5 13.6438 26.1812 13.6438 27.0125V30.6875C13.6438 31.525 12.9688 32.2 12.1313 32.2Z" fill="#61C1BD"/>
<path d="M53.2687 19.8939V19.8626V19.8251C53.2687 19.8126 53.2688 19.7939 53.2625 19.7814C53.2625 19.7689 53.2625 19.7626 53.2562 19.7501C53.2562 19.7314 53.25 19.7189 53.25 19.7001C53.25 19.6939 53.25 19.6814 53.2438 19.6751C53.2375 19.6564 53.2375 19.6376 53.2313 19.6251C53.2313 19.6189 53.225 19.6064 53.225 19.6001C53.2187 19.5814 53.2188 19.5626 53.2125 19.5501C53.2125 19.5439 53.2062 19.5314 53.2062 19.5251C53.2 19.5064 53.1938 19.4939 53.1875 19.4751C53.1875 19.4689 53.1813 19.4564 53.1813 19.4501C53.175 19.4376 53.1687 19.4189 53.1625 19.4064C53.1562 19.3939 53.1563 19.3876 53.15 19.3751L53.1312 19.3376L53.1125 19.3001C53.1125 19.2939 53.1063 19.2876 53.1063 19.2814C53.0875 19.2439 53.0687 19.2126 53.05 19.1751C53.05 19.1689 53.0438 19.1689 53.0438 19.1626C53.0313 19.1439 53.025 19.1314 53.0125 19.1189C53.0063 19.1126 53.0063 19.1064 53 19.1001C52.9875 19.0876 52.9813 19.0751 52.9688 19.0564C52.9625 19.0501 52.9563 19.0439 52.95 19.0314C52.9375 19.0189 52.9313 19.0064 52.9188 18.9939C52.9125 18.9876 52.9062 18.9751 52.8937 18.9689C52.8875 18.9564 52.875 18.9501 52.8688 18.9376L52.8312 18.9001L52.8125 18.8814C52.7937 18.8626 52.775 18.8439 52.75 18.8251L36.7375 4.40011C36.2937 4.00011 35.6563 3.90011 35.1063 4.14386C34.5625 4.38761 34.2062 4.93136 34.2062 5.52511V20.0189C34.2062 20.8501 34.8813 21.5314 35.7125 21.5314L50.2375 21.5939V57.0314H13.6313V36.1314C13.6313 35.2939 12.9563 34.6189 12.1188 34.6189C11.2813 34.6189 10.6063 35.3001 10.6063 36.1314V58.5501C10.6063 59.3876 11.2813 60.0626 12.1188 60.0626H51.7562C52.5937 60.0626 53.2687 59.3814 53.2687 58.5501V19.9439V19.8939V19.8939ZM37.2375 18.5126V8.92511L47.95 18.5564L37.2375 18.5126Z" fill="#61C1BD"/>
<path d="M33.2625 29.5313H19.5125C18.675 29.5313 18 28.8501 18 28.0188C18 27.1876 18.675 26.5063 19.5125 26.5063H33.2687C34.1062 26.5063 34.7812 27.1876 34.7812 28.0188C34.7812 28.8501 34.1 29.5313 33.2625 29.5313V29.5313ZM40.3312 37.6438H19.5125C18.675 37.6438 18 36.9626 18 36.1313C18 35.3001 18.675 34.6188 19.5125 34.6188H40.3312C41.1687 34.6188 41.8437 35.3001 41.8437 36.1313C41.8437 36.9626 41.1687 37.6438 40.3312 37.6438ZM43.3562 45.7501H19.5125C18.675 45.7501 18 45.0688 18 44.2376C18 43.4001 18.675 42.7251 19.5125 42.7251H43.3562C44.1937 42.7251 44.8687 43.4063 44.8687 44.2376C44.875 45.0751 44.1937 45.7501 43.3562 45.7501Z" fill="#61C1BD"/>
<path d="M29.875 51.0039H28.1484V56H26.8555V51.0039H25.1328V49.9492H29.875V51.0039ZM36.0859 56H34.7656L32.2031 52.0859C32.0703 51.8828 31.974 51.7188 31.9141 51.5938H31.8945C31.918 51.8021 31.9297 52.1237 31.9297 52.5586V56H30.707V49.9492H32.1133L34.582 53.7539C34.7461 54.0065 34.8464 54.1667 34.8828 54.2344H34.9023C34.8763 54.0885 34.8633 53.8099 34.8633 53.3984V49.9492H36.0859V56ZM41.0781 56H37.4961V49.9492H40.9375V51.0039H38.7852V52.4297H40.7852V53.4805H38.7852V54.9453H41.0781V56Z" fill="#61C1BD"/>
</svg>
