<svg width="60" height="60" viewBox="0 0 60 60" fill="none" xmlns="http://www.w3.org/2000/svg">
<path d="M4 0C1.79086 0 0 1.79086 0 4V56C0 58.2091 1.79086 60 4 60H56C58.2091 60 60 58.2091 60 56V4C60 1.79086 58.2091 0 56 0H4ZM19.26 29.07H14.1V31.56H19.26V33.03H12.57V27.6H19.26V29.07ZM19.26 25.2H13.38L13.35 25.26L13.26 25.41L8.76 33.48L3.3 23.73H5.04L8.79 30.18L12.45 23.73H14.22H19.26V25.2ZM27 33.03L24.78 29.04H21.72V33.03H20.25V23.67H24.75C26.64 23.67 27.93 24.69 27.93 26.46C27.93 27.72 27.21 28.44 26.25 28.92L28.5 33.03H27ZM35.7 25.26H32.55V33.03H31.08V25.26H28.89C28.83 25.05 28.71 24.78 28.53 24.51C28.35 24.21 28.08 23.94 27.78 23.67H35.7V25.26ZM38.31 33.03H36.75V23.67H38.31V33.03ZM54.66 33.03L50.73 26.43L47.76 31.29C47.19 32.16 46.14 32.76 44.97 33L44.91 33.03V33C44.52 33.09 44.13 33.12 43.74 33.12C41.85 33.12 39.33 31.38 39.33 28.35C39.33 25.32 41.94 23.67 43.74 23.67C45.27 23.67 46.71 24.18 47.46 25.2L47.49 25.23L46.59 26.61C46.05 25.71 45.15 25.14 43.74 25.2C42.9 25.23 40.83 26.16 40.83 28.35C40.83 30.54 42.81 31.56 43.74 31.56C44.94 31.56 45.69 31.32 46.59 30.27L50.73 23.4L56.52 33.03H54.66Z" fill="#009D89" fill-opacity="0.6"/>
<path d="M25.2299 25.2598H21.7199V27.5398H25.1999C25.8299 27.5398 26.3399 27.0298 26.3399 26.3998C26.3699 25.7698 25.8599 25.2598 25.2299 25.2598Z" fill="#009D89" fill-opacity="0.6"/>
</svg>
