<svg width="12" height="12" viewBox="0 0 12 12" fill="none" xmlns="http://www.w3.org/2000/svg">
<path d="M10.855 12H1.14504C0.841355 12 0.55011 11.8794 0.335374 11.6646C0.120638 11.4499 0 11.1586 0 10.855V1.14504C0 0.841355 0.120638 0.55011 0.335374 0.335374C0.55011 0.120638 0.841355 0 1.14504 0H10.855C11.1586 0 11.4499 0.120638 11.6646 0.335374C11.8794 0.55011 12 0.841355 12 1.14504V10.855C12 11.1586 11.8794 11.4499 11.6646 11.6646C11.4499 11.8794 11.1586 12 10.855 12V12ZM1.14504 0.763359C1.04381 0.763359 0.946729 0.803571 0.87515 0.87515C0.803571 0.946729 0.763359 1.04381 0.763359 1.14504V10.855C0.763359 10.9562 0.803571 11.0533 0.87515 11.1249C0.946729 11.1964 1.04381 11.2366 1.14504 11.2366H10.855C10.9562 11.2366 11.0533 11.1964 11.1249 11.1249C11.1964 11.0533 11.2366 10.9562 11.2366 10.855V1.14504C11.2366 1.04381 11.1964 0.946729 11.1249 0.87515C11.0533 0.803571 10.9562 0.763359 10.855 0.763359H1.14504Z" fill="#323333"/>
<path d="M11.4733 4.4118H0.526699C0.425471 4.4118 0.32839 4.37158 0.256811 4.3C0.185232 4.22843 0.14502 4.13134 0.14502 4.03012C0.14502 3.92889 0.185232 3.83181 0.256811 3.76023C0.32839 3.68865 0.425471 3.64844 0.526699 3.64844H11.4733C11.5745 3.64844 11.6716 3.68865 11.7432 3.76023C11.8147 3.83181 11.8549 3.92889 11.8549 4.03012C11.8549 4.13134 11.8147 4.22843 11.7432 4.3C11.6716 4.37158 11.5745 4.4118 11.4733 4.4118Z" fill="#323333"/>
<path d="M6.82446 2.27514C6.82446 2.38851 6.8695 2.49724 6.94967 2.57741C7.02984 2.65758 7.13857 2.70262 7.25194 2.70262C7.36532 2.70262 7.47405 2.65758 7.55422 2.57741C7.63439 2.49724 7.67942 2.38851 7.67942 2.27514C7.67942 2.16176 7.63439 2.05303 7.55422 1.97286C7.47405 1.89269 7.36532 1.84766 7.25194 1.84766C7.13857 1.84766 7.02984 1.89269 6.94967 1.97286C6.8695 2.05303 6.82446 2.16176 6.82446 2.27514V2.27514Z" fill="#323333"/>
<path d="M8.16797 2.27514C8.16797 2.38851 8.21301 2.49724 8.29317 2.57741C8.37334 2.65758 8.48207 2.70262 8.59545 2.70262C8.70882 2.70262 8.81756 2.65758 8.89772 2.57741C8.97789 2.49724 9.02293 2.38851 9.02293 2.27514C9.02293 2.16176 8.97789 2.05303 8.89772 1.97286C8.81756 1.89269 8.70882 1.84766 8.59545 1.84766C8.48207 1.84766 8.37334 1.89269 8.29317 1.97286C8.21301 2.05303 8.16797 2.16176 8.16797 2.27514V2.27514Z" fill="#323333"/>
<path d="M9.49622 2.27514C9.49622 2.38851 9.54125 2.49724 9.62142 2.57741C9.70159 2.65758 9.81032 2.70262 9.9237 2.70262C10.0371 2.70262 10.1458 2.65758 10.226 2.57741C10.3061 2.49724 10.3512 2.38851 10.3512 2.27514C10.3512 2.16176 10.3061 2.05303 10.226 1.97286C10.1458 1.89269 10.0371 1.84766 9.9237 1.84766C9.81032 1.84766 9.70159 1.89269 9.62142 1.97286C9.54125 2.05303 9.49622 2.16176 9.49622 2.27514V2.27514Z" fill="#323333"/>
</svg>
