<svg width="16" height="16" viewBox="0 0 16 16" fill="none" xmlns="http://www.w3.org/2000/svg">
<path d="M6.29868 7.5942H1.01698C0.879214 7.59437 0.74285 7.5669 0.616187 7.51345C0.489524 7.46001 0.375209 7.38171 0.280196 7.28333C0.185184 7.18494 0.111459 7.06852 0.0635083 6.94114C0.0155573 6.81377 -0.005618 6.6781 0.00127053 6.54241V1.32351C0.00127053 1.05784 0.108283 0.80305 0.298766 0.615193C0.489248 0.427337 0.747599 0.3218 1.01698 0.3218H6.29868C6.43628 0.315006 6.57384 0.33589 6.70299 0.38318C6.83215 0.430469 6.9502 0.503177 7.04996 0.59688C7.14972 0.690583 7.22912 0.803322 7.28331 0.928239C7.3375 1.05316 7.36535 1.18764 7.36518 1.32351V6.54241C7.37248 6.68243 7.34989 6.8224 7.29887 6.95327C7.24785 7.08414 7.16955 7.20298 7.06902 7.30213C6.9685 7.40127 6.84799 7.47849 6.71529 7.5288C6.58259 7.57912 6.44066 7.60139 6.29868 7.5942V7.5942ZM6.29868 1.32351H1.06777L1.12871 6.49232H6.29868V1.32351ZM12.0375 7.85464C11.8997 7.85678 11.7629 7.83124 11.6354 7.77958C11.5079 7.72792 11.3924 7.65121 11.296 7.55413L8.36058 4.6592C8.2607 4.56562 8.18116 4.45297 8.12681 4.32812C8.07246 4.20327 8.04444 4.06883 8.04444 3.93296C8.04444 3.79709 8.07246 3.66264 8.12681 3.53779C8.18116 3.41294 8.2607 3.3003 8.36058 3.20672L11.2858 0.311783C11.3807 0.213278 11.4949 0.13484 11.6215 0.08124C11.7481 0.0276405 11.8844 0 12.0222 0C12.16 0 12.2963 0.0276405 12.4229 0.08124C12.5495 0.13484 12.6637 0.213278 12.7586 0.311783L15.6839 3.20672C15.7837 3.3003 15.8633 3.41294 15.9176 3.53779C15.972 3.66264 16 3.79709 16 3.93296C16 4.06883 15.972 4.20327 15.9176 4.32812C15.8633 4.45297 15.7837 4.56562 15.6839 4.6592L12.7586 7.55413C12.6645 7.64878 12.5524 7.72408 12.4286 7.77566C12.3048 7.82725 12.1718 7.85409 12.0375 7.85464V7.85464ZM9.20362 3.97803L12.0375 6.72271L14.851 3.97803L12.0375 1.1432L9.20362 3.97803ZM6.29868 15.9985H1.01698C0.879214 15.9987 0.74285 15.9712 0.616187 15.9178C0.489524 15.8643 0.375209 15.786 0.280196 15.6877C0.185184 15.5893 0.111459 15.4728 0.0635083 15.3455C0.0155573 15.2181 -0.005618 15.0824 0.00127053 14.9467V9.68777C0.00127054 9.4221 0.108283 9.16731 0.298766 8.97945C0.489249 8.7916 0.747599 8.68606 1.01698 8.68606H6.29868C6.43628 8.67927 6.57384 8.70015 6.70299 8.74744C6.83215 8.79473 6.9502 8.86744 7.04996 8.96114C7.14972 9.05484 7.22912 9.16758 7.28331 9.2925C7.3375 9.41742 7.36535 9.5519 7.36518 9.68777V14.9067C7.37852 15.0499 7.36042 15.1943 7.31212 15.33C7.26381 15.4658 7.18643 15.5896 7.08524 15.6932C6.98405 15.7968 6.86142 15.8777 6.72569 15.9304C6.58997 15.9831 6.44433 16.0063 6.29868 15.9985ZM6.29868 9.72784L1.06777 9.77792L1.12871 14.9467L6.29868 14.8966V9.72784ZM14.6681 15.9985H9.37629C9.23852 15.9987 9.10216 15.9712 8.97549 15.9178C8.84883 15.8643 8.73452 15.786 8.6395 15.6877C8.54449 15.5893 8.47077 15.4728 8.42282 15.3455C8.37486 15.2181 8.35369 15.0824 8.36058 14.9467V9.68777C8.36058 9.4221 8.46759 9.16731 8.65807 8.97945C8.84856 8.7916 9.10691 8.68606 9.37629 8.68606H14.6681C14.9375 8.68606 15.1959 8.7916 15.3864 8.97945C15.5768 9.16731 15.6839 9.4221 15.6839 9.68777V14.9067C15.6966 15.0456 15.6798 15.1856 15.6344 15.3177C15.5891 15.4499 15.5163 15.5712 15.4207 15.674C15.3251 15.7768 15.2088 15.8588 15.0792 15.9146C14.9496 15.9705 14.8096 15.9991 14.6681 15.9985V15.9985ZM14.6072 9.68777L9.37629 9.73785L9.43723 14.9067L14.6072 14.8566V9.68777Z" fill="#171717"/>
</svg>
