<svg width="20" height="20" viewBox="0 0 20 20" fill="none" xmlns="http://www.w3.org/2000/svg">
<path d="M10 0C4.47715 0 0 4.47715 0 10C0 15.5229 4.47715 20 10 20C15.5228 20 20 15.5229 20 10C20 4.47715 15.5229 0 10 0ZM14.5852 12.8174C14.7377 12.9699 14.7376 13.2173 14.5852 13.3698L13.3698 14.5852C13.2173 14.7377 12.97 14.7378 12.8173 14.5852L10 11.7678L7.18262 14.5852C7.03008 14.7377 6.78273 14.7377 6.6302 14.5852L5.41484 13.3698C5.2623 13.2173 5.26227 12.97 5.41484 12.8174L8.23227 10L5.41488 7.18262C5.26234 7.03012 5.26234 6.78273 5.41488 6.6302L6.63023 5.41488C6.78277 5.2623 7.03012 5.26234 7.18266 5.41488L10 8.23223L12.8174 5.41484C12.9699 5.26227 13.2172 5.2623 13.3698 5.41484L14.5852 6.63016C14.7376 6.78273 14.7377 7.03004 14.5852 7.18258L11.7678 10L14.5852 12.8174Z" fill="#BDBDBD"/>
</svg>
