<svg width="24" height="24" viewBox="0 0 24 24"  xmlns="http://www.w3.org/2000/svg">
<path d="M4 2.5L4.0045 19.75H21.25V21.25H3.505C2.953 21.25 2.505 20.8025 2.505 20.25L2.5 2.5H4ZM6.25 13C6.38261 13 6.50978 13.0527 6.60355 13.1464C6.69732 13.2402 6.75 13.3674 6.75 13.5V18C6.75 18.1326 6.69732 18.2598 6.60355 18.3535C6.50978 18.4473 6.38261 18.5 6.25 18.5H5.75C5.61739 18.5 5.49021 18.4473 5.39644 18.3535C5.30268 18.2598 5.25 18.1326 5.25 18V13.5C5.25 13.3674 5.30268 13.2402 5.39644 13.1464C5.49021 13.0527 5.61739 13 5.75 13H6.25ZM10.75 9.5C10.8157 9.5 10.8807 9.51293 10.9413 9.53806C11.002 9.56318 11.0571 9.60001 11.1035 9.64644C11.15 9.69287 11.1868 9.74799 11.2119 9.80865C11.2371 9.86932 11.25 9.93433 11.25 10V18C11.25 18.1326 11.1973 18.2598 11.1035 18.3535C11.0098 18.4473 10.8826 18.5 10.75 18.5H10.25C10.1174 18.5 9.99021 18.4473 9.89644 18.3535C9.80267 18.2598 9.75 18.1326 9.75 18V10C9.75 9.93433 9.76293 9.86932 9.78806 9.80865C9.81318 9.74799 9.85001 9.69287 9.89644 9.64644C9.94287 9.60001 9.99799 9.56318 10.0587 9.53806C10.1193 9.51293 10.1843 9.5 10.25 9.5H10.75ZM15.25 13C15.3826 13 15.5098 13.0527 15.6035 13.1464C15.6973 13.2402 15.75 13.3674 15.75 13.5V18C15.75 18.1326 15.6973 18.2598 15.6035 18.3535C15.5098 18.4473 15.3826 18.5 15.25 18.5H14.75C14.6843 18.5 14.6193 18.4871 14.5587 18.4619C14.498 18.4368 14.4429 18.4 14.3964 18.3535C14.35 18.3071 14.3132 18.252 14.2881 18.1913C14.2629 18.1307 14.25 18.0657 14.25 18V13.5C14.25 13.4343 14.2629 13.3693 14.2881 13.3087C14.3132 13.248 14.35 13.1929 14.3964 13.1464C14.4429 13.1 14.498 13.0632 14.5587 13.0381C14.6193 13.0129 14.6843 13 14.75 13H15.25ZM19.75 11C19.8156 11 19.8807 11.0129 19.9413 11.0381C20.002 11.0632 20.0571 11.1 20.1035 11.1464C20.15 11.1929 20.1868 11.248 20.2119 11.3087C20.2371 11.3693 20.25 11.4343 20.25 11.5V18C20.25 18.1326 20.1973 18.2598 20.1035 18.3535C20.0098 18.4473 19.8826 18.5 19.75 18.5H19.25C19.1174 18.5 18.9902 18.4473 18.8964 18.3535C18.8027 18.2598 18.75 18.1326 18.75 18V11.5C18.75 11.4343 18.7629 11.3693 18.788 11.3087C18.8132 11.248 18.85 11.1929 18.8964 11.1464C18.9429 11.1 18.998 11.0632 19.0586 11.0381C19.1193 11.0129 19.1843 11 19.25 11H19.75ZM19.75 3.3215C19.8156 3.3215 19.8807 3.33443 19.9413 3.35956C20.002 3.38469 20.0571 3.42152 20.1035 3.46795C20.15 3.51438 20.1868 3.56949 20.2119 3.63016C20.2371 3.69082 20.25 3.75584 20.25 3.8215V7.3465C20.25 7.4791 20.1973 7.60628 20.1035 7.70005C20.0098 7.79382 19.8826 7.8465 19.75 7.8465H19.25C19.1174 7.8465 18.9902 7.79382 18.8964 7.70005C18.8027 7.60628 18.75 7.4791 18.75 7.3465L18.7495 5.862L15.393 9.166C15.316 9.24169 15.2166 9.29043 15.1096 9.30494C15.0027 9.31945 14.8938 9.29895 14.7995 9.2465L10.569 6.9L6.8215 9.812C6.7228 9.88866 6.59897 9.92559 6.47441 9.9155C6.34984 9.90541 6.23357 9.84904 6.1485 9.7575L5.778 9.3585C5.73056 9.30744 5.69431 9.24704 5.67159 9.18115C5.64887 9.11527 5.64017 9.04536 5.64606 8.97592C5.65194 8.90647 5.67228 8.83903 5.70576 8.7779C5.73925 8.71678 5.78514 8.66334 5.8405 8.621L10.1705 5.307C10.2479 5.24776 10.3408 5.21241 10.438 5.2053C10.5352 5.1982 10.6323 5.21964 10.7175 5.267L14.873 7.573L17.668 4.822H16.511C16.3885 4.82198 16.2703 4.77702 16.1788 4.69564C16.0873 4.61426 16.0288 4.50212 16.0145 4.3805L16.011 4.322V3.822C16.011 3.75634 16.0239 3.69132 16.0491 3.63066C16.0742 3.56999 16.111 3.51488 16.1574 3.46845C16.2039 3.42202 16.259 3.38519 16.3196 3.36006C16.3803 3.33493 16.4453 3.322 16.511 3.322H19.75V3.3215Z" />
</svg>
