<svg width="30" height="30" viewBox="0 0 30 30" fill="none" xmlns="http://www.w3.org/2000/svg">
<g opacity="0.9">
<path d="M15 16.875C17.8788 16.875 20.2125 14.5413 20.2125 11.6625C20.2125 8.78372 17.8788 6.45 15 6.45C12.1212 6.45 9.7875 8.78372 9.7875 11.6625C9.7875 14.5413 12.1212 16.875 15 16.875ZM15 15C13.1567 15 11.6625 13.5058 11.6625 11.6625C11.6625 9.81925 13.1567 8.325 15 8.325C16.8433 8.325 18.3375 9.81925 18.3375 11.6625C18.3375 13.5058 16.8433 15 15 15Z" fill="#171717"/>
<path d="M15 28.125C22.2487 28.125 28.125 22.2487 28.125 15C28.125 7.75126 22.2487 1.875 15 1.875C7.75126 1.875 1.875 7.75126 1.875 15C1.875 22.2487 7.75126 28.125 15 28.125ZM24.3665 21.2336C21.5152 19.6435 18.3479 18.75 15 18.75C11.652 18.75 8.48473 19.6434 5.63346 21.2336C4.44357 19.4492 3.75 17.3056 3.75 15C3.75 8.7868 8.7868 3.75 15 3.75C21.2132 3.75 26.25 8.7868 26.25 15C26.25 17.3056 25.5564 19.4492 24.3665 21.2336ZM23.1811 22.7223C21.13 24.8944 18.2233 26.25 15 26.25C11.7767 26.25 8.86998 24.8944 6.8189 22.7222C9.33843 21.3705 12.099 20.625 15 20.625C17.9009 20.625 20.6615 21.3705 23.1811 22.7223Z" fill="#171717"/>
</g>
</svg>
