<svg width="24" height="24" viewBox="0 0 24 24" fill="none" xmlns="http://www.w3.org/2000/svg">
<path d="M2.99927 5.97931L20.9984 6.00001L21.0001 4.50001L3.00099 4.47931L2.99927 5.97931Z" fill="#171717"/>
<path d="M11.2501 12.75H20.9992V11.25H11.2501V12.75Z" fill="#171717"/>
<path d="M2.99927 19.4793L20.9984 19.5L21.0001 18L3.00099 17.9793L2.99927 19.4793Z" fill="#171717"/>
<path d="M8.95013 11.3896C9.35013 11.6896 9.35013 12.2896 8.95013 12.5896L4.20013 16.1521C3.7057 16.5229 3.00013 16.1702 3.00013 15.5521L3.00013 8.42711C3.00013 7.80908 3.7057 7.45629 4.20013 7.82712L8.95013 11.3896ZM4.50013 9.92711L4.50013 14.0521L7.25013 11.9896L4.50013 9.92711Z" fill="#171717"/>
</svg>
