<svg width="12" height="12" viewBox="0 0 12 12" fill="none" xmlns="http://www.w3.org/2000/svg">
<path d="M10.8335 12H1.16648C1.01301 12.001 0.860876 11.9715 0.718898 11.9132C0.576921 11.855 0.44793 11.7691 0.339412 11.6606C0.230895 11.5521 0.145013 11.4231 0.0867526 11.2811C0.0284918 11.1391 -0.000987744 10.987 2.52473e-05 10.8335V1.16648C-0.000987744 1.01301 0.0284918 0.860876 0.0867526 0.718898C0.145013 0.576921 0.230895 0.44793 0.339412 0.339412C0.44793 0.230895 0.576921 0.145013 0.718898 0.0867526C0.860876 0.0284918 1.01301 -0.000987744 1.16648 2.52473e-05H10.8335C10.987 -0.000987744 11.1391 0.0284918 11.2811 0.0867526C11.4231 0.145013 11.5521 0.230895 11.6606 0.339412C11.7691 0.44793 11.855 0.576921 11.9132 0.718898C11.9715 0.860876 12.001 1.01301 12 1.16648V10.8335C12.001 10.987 11.9715 11.1391 11.9132 11.2811C11.855 11.4231 11.7691 11.5521 11.6606 11.6606C11.5521 11.7691 11.4231 11.855 11.2811 11.9132C11.1391 11.9715 10.987 12.001 10.8335 12V12ZM1.16648 0.777659C1.06335 0.777659 0.964458 0.818623 0.89154 0.89154C0.818623 0.964458 0.777659 1.06335 0.777659 1.16648V10.8335C0.777659 10.9366 0.818623 11.0355 0.89154 11.1085C0.964458 11.1814 1.06335 11.2223 1.16648 11.2223H10.8335C10.9366 11.2223 11.0355 11.1814 11.1085 11.1085C11.1814 11.0355 11.2223 10.9366 11.2223 10.8335V1.16648C11.2223 1.06335 11.1814 0.964458 11.1085 0.89154C11.0355 0.818623 10.9366 0.777659 10.8335 0.777659H1.16648Z" fill="#171717"/>
<path d="M6.00002 5.49645H3.07246C2.76309 5.49645 2.4664 5.37356 2.24765 5.15481C2.0289 4.93606 1.90601 4.63937 1.90601 4.33V3.12543C1.90601 2.81607 2.0289 2.51938 2.24765 2.30063C2.4664 2.08188 2.76309 1.95898 3.07246 1.95898H3.4384C3.52646 1.97668 3.60568 2.02433 3.66259 2.09382C3.7195 2.16331 3.7506 2.25036 3.7506 2.34018C3.7506 2.43 3.7195 2.51705 3.66259 2.58654C3.60568 2.65603 3.52646 2.70367 3.4384 2.72137H3.07246C2.96934 2.72137 2.87044 2.76233 2.79752 2.83525C2.7246 2.90817 2.68364 3.00707 2.68364 3.11019V4.33C2.68364 4.43312 2.7246 4.53202 2.79752 4.60494C2.87044 4.67786 2.96934 4.71882 3.07246 4.71882H6.00002C6.05645 4.70748 6.11469 4.70881 6.17054 4.72271C6.2264 4.73661 6.27847 4.76274 6.323 4.79921C6.36753 4.83568 6.4034 4.88158 6.42804 4.9336C6.45267 4.98562 6.46545 5.04246 6.46545 5.10001C6.46545 5.15757 6.45267 5.21441 6.42804 5.26643C6.4034 5.31845 6.36753 5.36435 6.323 5.40082C6.27847 5.43729 6.2264 5.46342 6.17054 5.47732C6.11469 5.49122 6.05645 5.49255 6.00002 5.48121V5.49645ZM8.92758 5.49645H8.56163C8.47357 5.47875 8.39436 5.43111 8.33744 5.36162C8.28053 5.29213 8.24943 5.20508 8.24943 5.11526C8.24943 5.02544 8.28053 4.93839 8.33744 4.8689C8.39436 4.79941 8.47357 4.75177 8.56163 4.73407H8.92758C9.0307 4.73407 9.1296 4.6931 9.20251 4.62019C9.27543 4.54727 9.31639 4.44837 9.31639 4.34525V3.12543C9.31639 3.02231 9.27543 2.92342 9.20251 2.8505C9.1296 2.77758 9.0307 2.73662 8.92758 2.73662H6.03814C5.98171 2.74796 5.92346 2.74663 5.86761 2.73273C5.81176 2.71883 5.75969 2.6927 5.71516 2.65623C5.67063 2.61976 5.63475 2.57386 5.61011 2.52184C5.58548 2.46982 5.5727 2.41298 5.5727 2.35542C5.5727 2.29787 5.58548 2.24103 5.61011 2.18901C5.63475 2.13699 5.67063 2.09109 5.71516 2.05462C5.75969 2.01815 5.81176 1.99202 5.86761 1.97812C5.92346 1.96422 5.98171 1.96289 6.03814 1.97423H8.92758C9.23694 1.97423 9.53363 2.09713 9.75238 2.31588C9.97113 2.53463 10.094 2.83132 10.094 3.14068V4.33C10.094 4.63937 9.97113 4.93606 9.75238 5.15481C9.53363 5.37356 9.23694 5.49645 8.92758 5.49645V5.49645ZM6.00002 10.0403H3.07246C2.76309 10.0403 2.4664 9.91738 2.24765 9.69863C2.0289 9.47987 1.90601 9.18318 1.90601 8.87382V7.66925C1.90601 7.35989 2.0289 7.0632 2.24765 6.84445C2.4664 6.6257 2.76309 6.5028 3.07246 6.5028H3.4384C3.52646 6.5205 3.60568 6.56814 3.66259 6.63763C3.7195 6.70712 3.7506 6.79417 3.7506 6.884C3.7506 6.97382 3.7195 7.06087 3.66259 7.13036C3.60568 7.19985 3.52646 7.24749 3.4384 7.26519H3.07246C2.96934 7.26519 2.87044 7.30615 2.79752 7.37907C2.7246 7.45199 2.68364 7.55088 2.68364 7.654V8.85857C2.68364 8.96169 2.7246 9.06059 2.79752 9.13351C2.87044 9.20643 2.96934 9.24739 3.07246 9.24739H6.00002C6.05645 9.23605 6.11469 9.23738 6.17054 9.25128C6.2264 9.26518 6.27847 9.29131 6.323 9.32778C6.36753 9.36425 6.4034 9.41015 6.42804 9.46217C6.45267 9.51419 6.46545 9.57103 6.46545 9.62858C6.46545 9.68614 6.45267 9.74298 6.42804 9.795C6.4034 9.84702 6.36753 9.89292 6.323 9.92939C6.27847 9.96586 6.2264 9.99199 6.17054 10.0059C6.11469 10.0198 6.05645 10.0211 6.00002 10.0098V10.0403ZM8.92758 10.0403H8.56163C8.47357 10.0226 8.39436 9.97493 8.33744 9.90544C8.28053 9.83595 8.24943 9.7489 8.24943 9.65908C8.24943 9.56926 8.28053 9.48221 8.33744 9.41272C8.39436 9.34323 8.47357 9.29559 8.56163 9.27789H8.92758C9.0307 9.27789 9.1296 9.23692 9.20251 9.164C9.27543 9.09109 9.31639 8.99219 9.31639 8.88907V7.66925C9.31639 7.56613 9.27543 7.46723 9.20251 7.39432C9.1296 7.3214 9.0307 7.28044 8.92758 7.28044H6.03814C5.95008 7.26274 5.87086 7.21509 5.81395 7.1456C5.75704 7.07611 5.72594 6.98906 5.72594 6.89924C5.72594 6.80942 5.75704 6.72237 5.81395 6.65288C5.87086 6.58339 5.95008 6.53575 6.03814 6.51805H8.92758C9.23694 6.51805 9.53363 6.64094 9.75238 6.8597C9.97113 7.07845 10.094 7.37514 10.094 7.6845V8.88907C10.09 9.19578 9.96536 9.48857 9.74704 9.70403C9.52872 9.9195 9.23432 10.0403 8.92758 10.0403V10.0403Z" fill="#171717"/>
</svg>
