<svg width="16" height="16" viewBox="0 0 16 16" fill="none" xmlns="http://www.w3.org/2000/svg">
<path d="M4.81466 12.6698C5.03095 12.6698 5.23609 12.7116 5.42785 12.7954C5.61961 12.8791 5.78908 12.9954 5.93179 13.1419C6.07449 13.2907 6.18598 13.4651 6.27295 13.6674C6.35768 13.8674 6.40227 14.0814 6.40227 14.307C6.40227 14.5326 6.35991 14.7465 6.27295 14.9465C6.18821 15.1465 6.07226 15.3233 5.93179 15.4721C5.78908 15.6209 5.62184 15.7372 5.42785 15.8279C5.23609 15.9163 5.03095 15.9628 4.81466 15.9628C4.58722 15.9628 4.37761 15.9186 4.18362 15.8279C3.99186 15.7395 3.82239 15.6186 3.67968 15.4721C3.53698 15.3233 3.42549 15.1488 3.33853 14.9465C3.25379 14.7465 3.2092 14.5326 3.2092 14.307C3.2092 14.0814 3.25156 13.8674 3.33853 13.6674C3.42326 13.4674 3.53921 13.2907 3.67968 13.1419C3.82239 12.993 3.98963 12.8767 4.18362 12.7954C4.37761 12.7116 4.58945 12.6698 4.81466 12.6698ZM11.9143 12.7047C12.1306 12.7047 12.338 12.7465 12.5365 12.8302C12.7371 12.914 12.9066 13.0302 13.0493 13.1791C13.192 13.3279 13.3035 13.5023 13.3905 13.7047C13.4752 13.9047 13.5198 14.1186 13.5198 14.3442C13.5198 14.5698 13.4774 14.7837 13.3905 14.9837C13.3057 15.1837 13.1898 15.3605 13.0493 15.5093C12.9066 15.6581 12.7371 15.7744 12.5365 15.8651C12.3358 15.9535 12.1306 16 11.9143 16C11.6981 16 11.4929 15.9558 11.3012 15.8651C11.1094 15.7767 10.9399 15.6558 10.7972 15.5093C10.6545 15.3605 10.543 15.186 10.4561 14.9837C10.3713 14.7837 10.3267 14.5698 10.3267 14.3442C10.3267 14.1186 10.3691 13.9047 10.4561 13.7047C10.5408 13.5047 10.6567 13.3279 10.7972 13.1791C10.9377 13.0302 11.1072 12.914 11.3012 12.8302C11.4929 12.7465 11.6981 12.7047 11.9143 12.7047ZM0.551271 1.14885H1.25589C1.52792 2.62094 1.86908 4.8535 2.08538 6.05117C2.1768 6.56047 2.26822 7.06978 2.35741 7.5721C2.44883 8.07675 2.53134 8.53489 2.60492 8.94187C2.6785 9.35117 2.74317 9.62791 2.79222 9.90233C2.84351 10.1767 2.87473 10.2488 2.88587 10.3186C2.91932 10.4977 2.96838 10.5907 3.03081 10.793C3.09325 10.993 3.17575 11.107 3.27832 11.2814C3.38089 11.4535 3.50799 11.6256 3.66185 11.7326C3.8157 11.8395 4.00524 11.893 4.23268 11.893H13.1742C13.4931 11.9047 13.7049 11.9186 13.8364 11.7581C13.9457 11.6279 13.9658 11.5954 13.9658 11.5581C13.9658 11.0721 13.7027 10.9884 13.1586 10.9884H4.54262C4.23268 10.9884 3.96733 10.7512 3.9205 10.4326L3.70421 8.98605H13.2612C13.5912 8.98605 13.8677 8.89536 14.0884 8.71164C14.3092 8.52791 14.4942 8.19768 14.6436 7.72326C14.7239 7.49768 14.8287 7.18838 14.9603 6.79768C15.0896 6.40699 15.2234 6.01164 15.3527 5.61396C15.482 5.21629 15.6069 4.85117 15.7206 4.52094C15.8343 4.18838 15.9079 3.96745 15.9414 3.8628C15.9748 3.75583 15.9949 3.62792 15.9993 3.47908C16.0038 3.33025 15.9704 3.19071 15.8968 3.06048C15.8232 2.93025 15.6961 2.82094 15.5222 2.73025C15.346 2.64187 15.0985 2.59536 14.7796 2.59536H2.45998C2.42654 2.35815 2.37971 2.13257 2.34626 1.92094C2.32396 1.74188 2.29944 1.56746 2.27937 1.39536C2.25707 1.22327 2.23254 1.09071 2.21247 0.995364C2.19018 0.911643 2.16119 0.813969 2.12774 0.702341C2.09429 0.588388 2.03632 0.479086 1.95605 0.372109C1.87577 0.265132 1.76874 0.17676 1.6305 0.106993C1.49448 0.0372257 1.31163 1.64737e-05 1.08419 1.64737e-05H0.549041C0.254707 -0.00230911 0.0116583 0.241877 0.000509258 0.551179C-0.0128696 0.87676 0.239098 1.14885 0.551271 1.14885ZM13.6268 8.04652L3.4411 8.02326L2.65621 3.48839L14.9625 3.53955L13.6268 8.04652Z" fill="#171717"/>
<path d="M13.1006 5.12827H4.1591C4.00524 5.12827 3.88037 4.99804 3.88037 4.83757C3.88037 4.67711 4.00524 4.54688 4.1591 4.54688H13.1006C13.2545 4.54688 13.3793 4.67711 13.3793 4.83757C13.3793 4.99804 13.2545 5.12827 13.1006 5.12827ZM12.6323 7.06548H4.62735C4.4735 7.06548 4.34863 6.93524 4.34863 6.77478C4.34863 6.61431 4.4735 6.48408 4.62735 6.48408H12.6323C12.7862 6.48408 12.9111 6.61431 12.9111 6.77478C12.9111 6.93524 12.7862 7.06548 12.6323 7.06548Z" fill="#171717"/>
</svg>
