<svg width="18" height="18" viewBox="0 0 18 18" fill="none" xmlns="http://www.w3.org/2000/svg">
<path d="M14.625 2.25H2.25C1.008 2.25 0 3.258 0 4.5V14.625C0 15.867 1.008 16.875 2.25 16.875H14.625C15.867 16.875 16.875 15.867 16.875 14.625V4.5C16.875 3.258 15.867 2.25 14.625 2.25ZM15.75 14.625C15.75 15.2471 15.2471 15.75 14.625 15.75H2.25C1.62787 15.75 1.125 15.2471 1.125 14.625V4.5C1.125 3.87787 1.62787 3.375 2.25 3.375H14.625C15.2471 3.375 15.75 3.87787 15.75 4.5V14.625ZM6.47662 5.70488C6.30337 5.60138 6.08625 5.59913 5.90962 5.697C5.73412 5.79713 5.625 5.985 5.625 6.1875V12.9375C5.625 13.1411 5.73412 13.3267 5.90962 13.428C5.99625 13.4764 6.09188 13.5 6.1875 13.5C6.28762 13.5 6.38775 13.4741 6.47662 13.4201L12.1028 10.0451C12.2704 9.94388 12.375 9.7605 12.375 9.5625C12.375 9.3645 12.2704 9.18225 12.1028 9.07987L6.47662 5.70488ZM6.75 11.9441V7.18087L10.719 9.5625L6.75 11.9441Z" fill="#171717"/>
</svg>
