<svg width="16" height="16" viewBox="0 0 16 16" fill="none" xmlns="http://www.w3.org/2000/svg">
<path d="M3.60269 9.73062C1.91035 8.03862 1.91035 5.29462 3.60269 3.60262C5.29469 1.91029 8.03869 1.91029 9.73069 3.60262C11.344 5.21529 11.4194 7.78362 9.95735 9.48596L10.438 9.96629L10.55 9.85429L13.85 13.1543L13.1427 13.8613L9.84269 10.5613L9.96635 10.438L9.48635 9.95762C7.78368 11.4193 5.21535 11.3436 3.60269 9.73096V9.73062ZM4.30935 4.30962C3.00802 5.61129 3.00802 7.72196 4.30935 9.02362C5.61135 10.3253 7.72202 10.3253 9.02368 9.02362C10.3254 7.72196 10.3254 5.61129 9.02368 4.30962C7.72202 3.00796 5.61135 3.00796 4.30969 4.30962H4.30935Z" fill="black"/>
</svg>
