<svg width="18" height="18" viewBox="0 0 18 18" fill="none" xmlns="http://www.w3.org/2000/svg">
<path d="M12.4728 18H3.49105C3.10932 18 2.80014 17.6343 2.80014 17.1838C2.80014 16.7328 3.10932 16.3676 3.49105 16.3676H12.4728C14.7621 16.3676 16.6182 14.1748 16.6182 11.4703C16.6182 8.76534 14.7621 6.57298 12.4728 6.57298H2.3134L5.32816 10.1296C5.5869 10.4349 5.5869 10.9299 5.32816 11.2352C5.06907 11.5409 4.649 11.5409 4.39025 11.2352L0.194057 6.28527C-0.0646857 5.98 -0.0646857 5.48456 0.194057 5.1793L4.39025 0.228948C4.649 -0.0763161 5.06907 -0.0763161 5.32816 0.228948C5.5869 0.534621 5.5869 1.02966 5.32816 1.33492L2.27195 4.94055H12.4728C15.5252 4.94055 18 7.86383 18 11.4703C18 15.0763 15.5252 18 12.4728 18Z" fill="#009D89"/>
</svg>
