<svg width="18" height="16" viewBox="0 0 18 16" fill="none" xmlns="http://www.w3.org/2000/svg">
<path d="M14.6995 16H3.29851C2.83786 15.997 2.3971 15.8095 2.07243 15.4787C1.74776 15.1478 1.56555 14.7004 1.56556 14.234V8.03552C1.56556 7.87939 1.62682 7.72966 1.73586 7.61926C1.8449 7.50886 1.9928 7.44684 2.14701 7.44684C2.28908 7.46388 2.41996 7.53334 2.51461 7.64195C2.60926 7.75056 2.66105 7.89068 2.66005 8.03552V14.2801C2.66003 14.4343 2.71972 14.5823 2.82631 14.6924C2.9329 14.8024 3.07788 14.8658 3.23011 14.8688H14.6995C14.8538 14.8688 15.0017 14.8068 15.1107 14.6964C15.2197 14.586 15.281 14.4363 15.281 14.2801V7.94318C15.3075 7.80985 15.3787 7.68992 15.4826 7.60375C15.5865 7.51758 15.7167 7.4705 15.8511 7.4705C15.9854 7.4705 16.1156 7.51758 16.2195 7.60375C16.3234 7.68992 16.3946 7.80985 16.4211 7.94318V14.234C16.4182 14.6975 16.2366 15.1415 15.915 15.4714C15.5934 15.8013 15.1573 15.991 14.6995 16V16ZM0.585066 7.3545C0.497927 7.3534 0.412054 7.33323 0.333337 7.29537C0.254621 7.25752 0.184923 7.20287 0.129025 7.13519C0.0807898 7.07469 0.0448679 7.00513 0.0233328 6.9305C0.00179781 6.85588 -0.00492369 6.77767 0.00355635 6.7004C0.0120364 6.62314 0.03555 6.54833 0.0727398 6.48031C0.109929 6.41229 0.160059 6.35241 0.220233 6.30411L7.41429 0.532746C7.8091 0.20071 8.30302 0.013244 8.81613 0.000675748C9.32924 -0.0118925 9.83153 0.151172 10.2417 0.46349L17.7664 6.23485C17.8279 6.2804 17.8798 6.33797 17.919 6.40416C17.9581 6.47036 17.9838 6.54383 17.9944 6.62024C18.0051 6.69664 18.0004 6.77443 17.9809 6.849C17.9613 6.92357 17.9271 6.99341 17.8804 7.05439C17.7894 7.1794 17.6532 7.2629 17.5015 7.28668C17.3499 7.31046 17.1951 7.27261 17.071 7.18136L9.51208 1.40999C9.31682 1.26554 9.08125 1.18768 8.83941 1.18768C8.59758 1.18768 8.36201 1.26554 8.16675 1.40999L0.938498 7.22753C0.840735 7.31349 0.714482 7.35885 0.585066 7.3545V7.3545Z" fill="#171717"/>
<path d="M4.40441 9.85938H5.52171C5.67373 9.85938 5.74973 9.93633 5.74973 10.0902V11.2214C5.74973 11.3753 5.67373 11.4523 5.52171 11.4523H4.40441C4.2524 11.4523 4.17639 11.3753 4.17639 11.2214V10.0902C4.17639 9.93633 4.2524 9.85938 4.40441 9.85938Z" fill="#171717"/>
<path d="M4.40441 7.53906H5.52171C5.67373 7.53906 5.74973 7.61601 5.74973 7.76992V8.9011C5.74973 9.05501 5.67373 9.13196 5.52171 9.13196H4.40441C4.2524 9.13196 4.17639 9.05501 4.17639 8.9011V7.76992C4.17639 7.61601 4.2524 7.53906 4.40441 7.53906V7.53906Z" fill="#171717"/>
<path d="M4.40441 12.2139H5.52171C5.67373 12.2139 5.74973 12.2908 5.74973 12.4447V13.5759C5.74973 13.7298 5.67373 13.8068 5.52171 13.8068H4.40441C4.2524 13.8068 4.17639 13.7298 4.17639 13.5759V12.4447C4.17639 12.2908 4.2524 12.2139 4.40441 12.2139Z" fill="#171717"/>
<path d="M6.65038 12.2139H7.76769C7.9197 12.2139 7.99571 12.2908 7.99571 12.4447V13.5759C7.99571 13.7298 7.9197 13.8068 7.76769 13.8068H6.65038C6.49837 13.8068 6.42236 13.7298 6.42236 13.5759V12.4447C6.42236 12.2908 6.49837 12.2139 6.65038 12.2139V12.2139Z" fill="#171717"/>
<path d="M8.88513 12.2139H10.0024C10.1544 12.2139 10.2304 12.2908 10.2304 12.4447V13.5759C10.2304 13.7298 10.1544 13.8068 10.0024 13.8068H8.88513C8.73311 13.8068 8.6571 13.7298 8.6571 13.5759V12.4447C8.6571 12.2908 8.73311 12.2139 8.88513 12.2139Z" fill="#171717"/>
<path d="M6.65038 9.85938H7.76769C7.9197 9.85938 7.99571 9.93633 7.99571 10.0902V11.2214C7.99571 11.3753 7.9197 11.4523 7.76769 11.4523H6.65038C6.49837 11.4523 6.42236 11.3753 6.42236 11.2214V10.0902C6.42236 9.93633 6.49837 9.85938 6.65038 9.85938V9.85938Z" fill="#171717"/>
</svg>
