<svg width="24" height="24" viewBox="0 0 24 24"  xmlns="http://www.w3.org/2000/svg">
<path d="M19 16C19.2652 16 19.5196 16.1054 19.7071 16.2929C19.8947 16.4804 20 16.7348 20 17V21C20 21.2652 19.8947 21.5196 19.7071 21.7071C19.5196 21.8946 19.2652 22 19 22H5C4.73478 22 4.48043 21.8946 4.29289 21.7071C4.10536 21.5196 4 21.2652 4 21V17C4 16.7348 4.10536 16.4804 4.29289 16.2929C4.48043 16.1054 4.73478 16 5 16H19ZM18.5 17.5H5.5V20.5H18.5V17.5ZM16.191 18.25C16.3899 18.25 16.5807 18.329 16.7213 18.4697C16.862 18.6103 16.941 18.8011 16.941 19C16.941 19.1989 16.862 19.3897 16.7213 19.5303C16.5807 19.671 16.3899 19.75 16.191 19.75C15.9921 19.75 15.8013 19.671 15.6607 19.5303C15.52 19.3897 15.441 19.1989 15.441 19C15.441 18.8011 15.52 18.6103 15.6607 18.4697C15.8013 18.329 15.9921 18.25 16.191 18.25ZM19 9.5C19.2652 9.5 19.5196 9.60536 19.7071 9.79289C19.8947 9.98043 20 10.2348 20 10.5V14.5C20 14.7652 19.8947 15.0196 19.7071 15.2071C19.5196 15.3946 19.2652 15.5 19 15.5H5C4.73478 15.5 4.48043 15.3946 4.29289 15.2071C4.10536 15.0196 4 14.7652 4 14.5V10.5C4 10.2348 4.10536 9.98043 4.29289 9.79289C4.48043 9.60536 4.73478 9.5 5 9.5H19ZM18.5 11H5.5V14H18.5V11ZM16.191 11.75C16.3899 11.75 16.5807 11.829 16.7213 11.9697C16.862 12.1103 16.941 12.3011 16.941 12.5C16.941 12.6989 16.862 12.8897 16.7213 13.0303C16.5807 13.171 16.3899 13.25 16.191 13.25C15.9921 13.25 15.8013 13.171 15.6607 13.0303C15.52 12.8897 15.441 12.6989 15.441 12.5C15.441 12.3011 15.52 12.1103 15.6607 11.9697C15.8013 11.829 15.9921 11.75 16.191 11.75ZM19 3C19.2652 3 19.5196 3.10536 19.7071 3.29289C19.8947 3.48043 20 3.73478 20 4V8C20 8.26522 19.8947 8.51957 19.7071 8.70711C19.5196 8.89464 19.2652 9 19 9H5C4.73478 9 4.48043 8.89464 4.29289 8.70711C4.10536 8.51957 4 8.26522 4 8V4C4 3.73478 4.10536 3.48043 4.29289 3.29289C4.48043 3.10536 4.73478 3 5 3H19ZM18.5 4.5H5.5V7.5H18.5V4.5ZM16.191 5.25C16.3899 5.25 16.5807 5.32902 16.7213 5.46967C16.862 5.61032 16.941 5.80109 16.941 6C16.941 6.19891 16.862 6.38968 16.7213 6.53033C16.5807 6.67098 16.3899 6.75 16.191 6.75C15.9921 6.75 15.8013 6.67098 15.6607 6.53033C15.52 6.38968 15.441 6.19891 15.441 6C15.441 5.80109 15.52 5.61032 15.6607 5.46967C15.8013 5.32902 15.9921 5.25 16.191 5.25Z" />
</svg>
