<svg width="24" height="24" viewBox="0 0 24 24"  xmlns="http://www.w3.org/2000/svg">
<path d="M14 3V4.5H4.5V19.5H19.5V10H21V20C21 20.2652 20.8946 20.5196 20.7071 20.7071C20.5196 20.8946 20.2652 21 20 21H4C3.73478 21 3.48043 20.8946 3.29289 20.7071C3.10536 20.5196 3 20.2652 3 20V4C3 3.73478 3.10536 3.48043 3.29289 3.29289C3.48043 3.10536 3.73478 3 4 3H14ZM8 9.5C8.06566 9.5 8.13068 9.51293 8.19134 9.53806C8.25201 9.56319 8.30712 9.60002 8.35355 9.64645C8.39998 9.69287 8.43681 9.74799 8.46194 9.80866C8.48707 9.86932 8.5 9.93434 8.5 10V17.5C8.5 17.5657 8.48707 17.6307 8.46194 17.6913C8.43681 17.752 8.39998 17.8071 8.35355 17.8536C8.30712 17.9 8.25201 17.9368 8.19134 17.9619C8.13068 17.9871 8.06566 18 8 18H7.5C7.36739 18 7.24022 17.9473 7.14645 17.8536C7.05268 17.7598 7 17.6326 7 17.5V10C7 9.93434 7.01293 9.86932 7.03806 9.80866C7.06319 9.74799 7.10002 9.69287 7.14645 9.64645C7.19288 9.60002 7.248 9.56319 7.30866 9.53806C7.36932 9.51293 7.43434 9.5 7.5 9.5H8ZM12.265 6C12.3976 6 12.5248 6.05268 12.6186 6.14645C12.7123 6.24021 12.765 6.36739 12.765 6.5V17.5C12.765 17.6326 12.7123 17.7598 12.6186 17.8536C12.5248 17.9473 12.3976 18 12.265 18H11.765C11.6324 18 11.5052 17.9473 11.4114 17.8536C11.3177 17.7598 11.265 17.6326 11.265 17.5V6.5C11.265 6.36739 11.3177 6.24021 11.4114 6.14645C11.5052 6.05268 11.6324 6 11.765 6H12.265ZM16.5 12C16.5657 12 16.6307 12.0129 16.6913 12.0381C16.752 12.0632 16.8071 12.1 16.8536 12.1464C16.9 12.1929 16.9368 12.248 16.9619 12.3087C16.9871 12.3693 17 12.4343 17 12.5V17.5C17 17.6326 16.9473 17.7598 16.8536 17.8536C16.7598 17.9473 16.6326 18 16.5 18H16C15.9343 18 15.8693 17.9871 15.8087 17.9619C15.748 17.9368 15.6929 17.9 15.6464 17.8536C15.6 17.8071 15.5632 17.752 15.5381 17.6913C15.5129 17.6307 15.5 17.5657 15.5 17.5V12.5C15.5 12.4343 15.5129 12.3693 15.5381 12.3087C15.5632 12.248 15.6 12.1929 15.6464 12.1464C15.6929 12.1 15.748 12.0632 15.8087 12.0381C15.8693 12.0129 15.9343 12 16 12H16.5ZM18.75 2C18.8157 2 18.8807 2.01293 18.9413 2.03806C19.002 2.06319 19.0571 2.10002 19.1036 2.14645C19.15 2.19288 19.1868 2.248 19.2119 2.30866C19.2371 2.36932 19.25 2.43434 19.25 2.5V4.7495L21.5 4.75C21.5657 4.75 21.6307 4.76293 21.6913 4.78806C21.752 4.81319 21.8071 4.85002 21.8536 4.89645C21.9 4.94288 21.9368 4.998 21.9619 5.05866C21.9871 5.11932 22 5.18434 22 5.25V5.75C22 5.81566 21.9871 5.88068 21.9619 5.94134C21.9368 6.002 21.9 6.05712 21.8536 6.10355C21.8071 6.14998 21.752 6.18681 21.6913 6.21194C21.6307 6.23707 21.5657 6.25 21.5 6.25L19.25 6.2495V8.5C19.25 8.56566 19.2371 8.63068 19.2119 8.69134C19.1868 8.752 19.15 8.80712 19.1036 8.85355C19.0571 8.89998 19.002 8.93681 18.9413 8.96194C18.8807 8.98707 18.8157 9 18.75 9H18.25C18.1843 9 18.1193 8.98707 18.0587 8.96194C17.998 8.93681 17.9429 8.89998 17.8964 8.85355C17.85 8.80712 17.8132 8.752 17.7881 8.69134C17.7629 8.63068 17.75 8.56566 17.75 8.5V6.2495L15.5 6.25C15.4343 6.25 15.3693 6.23707 15.3087 6.21194C15.248 6.18681 15.1929 6.14998 15.1464 6.10355C15.1 6.05712 15.0632 6.002 15.0381 5.94134C15.0129 5.88068 15 5.81566 15 5.75V5.25C15 5.11739 15.0527 4.99021 15.1464 4.89645C15.2402 4.80268 15.3674 4.75 15.5 4.75L17.75 4.7495V2.5C17.75 2.43434 17.7629 2.36932 17.7881 2.30866C17.8132 2.248 17.85 2.19288 17.8964 2.14645C17.9429 2.10002 17.998 2.06319 18.0587 2.03806C18.1193 2.01293 18.1843 2 18.25 2H18.75Z" />
</svg>
