<svg width="14" height="16" viewBox="0 0 14 16" fill="none" xmlns="http://www.w3.org/2000/svg">
<path d="M6.88662 0.900191C7.7616 0.900191 8.60958 0.974007 9.40355 1.11984C10.1561 1.25667 10.8259 1.45291 11.3966 1.69776C11.9133 1.92101 12.3256 2.18026 12.5848 2.44672C12.7145 2.57995 12.8693 2.77799 12.8693 2.97603C12.8693 3.17407 12.7145 3.37212 12.5848 3.50534C12.3238 3.7718 11.9133 4.03106 11.3966 4.2543C10.8277 4.50096 10.1561 4.6954 9.40355 4.83223C8.60778 4.97806 7.7616 5.05187 6.88662 5.05187C6.01163 5.05187 5.16365 4.97806 4.36968 4.83223C3.61712 4.6954 2.94738 4.49916 2.37666 4.2543C1.85995 4.03106 1.44766 3.7718 1.18841 3.50534C1.05878 3.37212 0.903945 3.17407 0.903945 2.97603C0.903945 2.77799 1.05878 2.57995 1.18841 2.44672C1.44946 2.18026 1.85995 1.92101 2.37666 1.69776C2.94558 1.45111 3.61712 1.25667 4.36968 1.11984C5.16545 0.974007 6.01163 0.900191 6.88662 0.900191V0.900191ZM6.88662 0C3.08421 0 0.00375334 1.33228 0.00375334 2.97603C0.00375334 4.61978 3.08601 5.95026 6.88662 5.95026C10.6872 5.95026 13.7695 4.61798 13.7695 2.97423C13.7695 1.33048 10.689 0 6.88662 0V0ZM6.90822 9.398C5.13484 9.398 3.46049 9.12254 2.19482 8.62023C1.55208 8.36458 1.04077 8.06211 0.675296 7.72004C0.252206 7.32396 0.0271584 6.86666 0.0271584 6.40036H0.92735C0.92735 6.87026 1.52508 7.38697 2.52609 7.78305C3.68914 8.24395 5.24467 8.49781 6.90822 8.49781C8.57177 8.49781 10.1273 8.24395 11.2904 7.78305C12.2914 7.38697 12.8891 6.87026 12.8891 6.40036H13.7893C13.7893 6.86666 13.566 7.32396 13.1411 7.72004C12.7757 8.06211 12.2644 8.36458 11.6216 8.62023C10.356 9.12254 8.6816 9.398 6.90822 9.398V9.398ZM6.89562 12.7989C5.12404 12.7989 3.45149 12.5487 2.18762 12.095C1.54488 11.8645 1.03357 11.5891 0.668095 11.2794C0.118978 10.8131 0.00195312 10.3468 0.00195312 10.0371H0.903945C0.903945 10.3468 1.32163 10.8275 2.49188 11.2488C3.66033 11.6683 5.22486 11.8987 6.89562 11.8987C8.56637 11.8987 10.1291 11.6683 11.2994 11.2488C12.4714 10.8293 12.8873 10.3468 12.8873 10.0371H13.7893C13.7893 10.3468 13.6741 10.8131 13.1231 11.2794C12.7577 11.5891 12.2464 11.8645 11.6036 12.095C10.3397 12.5487 8.66719 12.7989 6.89562 12.7989V12.7989ZM6.89562 16C5.12404 16 3.45329 15.7533 2.18762 15.3033C1.54488 15.0746 1.03357 14.8027 0.668095 14.4949C0.117178 14.0322 0.00195312 13.5677 0.00195312 13.258H0.902144C0.902144 13.5623 1.31983 14.0376 2.49008 14.4535C3.66033 14.8694 5.22486 15.098 6.89562 15.098C8.56637 15.098 10.1309 14.8694 11.3012 14.4535C12.4714 14.0376 12.8891 13.5623 12.8891 13.258H13.7893C13.7893 13.5659 13.6741 14.0304 13.1231 14.4949C12.7577 14.8027 12.2464 15.0746 11.6036 15.3033C10.3379 15.7533 8.66719 16 6.89562 16V16Z" fill="#171717"/>
<path d="M0.556318 13.656H0.437493C0.196242 13.656 0 13.4598 0 13.2185V3.07519C0 2.83394 0.196242 2.6377 0.437493 2.6377H0.556318C0.745359 2.6377 0.900191 2.79253 0.900191 2.98157V13.3122C0.900191 13.5012 0.745359 13.656 0.556318 13.656ZM13.4453 13.6974H13.3264C13.0852 13.6974 12.8889 13.5012 12.8889 13.26V3.1346C12.8889 2.89335 13.0852 2.69711 13.3264 2.69711H13.4453C13.6343 2.69711 13.7891 2.85194 13.7891 3.04098V13.3536C13.7891 13.5426 13.6343 13.6974 13.4453 13.6974ZM11.3388 5.91439C11.0255 5.91439 10.7717 6.16825 10.7717 6.48151C10.7717 6.79478 11.0255 7.04863 11.3388 7.04863C11.6521 7.04863 11.9059 6.79478 11.9059 6.48151C11.9059 6.16825 11.6521 5.91439 11.3388 5.91439ZM11.3388 9.33512C11.0255 9.33512 10.7717 9.58897 10.7717 9.90224C10.7717 10.2155 11.0255 10.4694 11.3388 10.4694C11.6521 10.4694 11.9059 10.2155 11.9059 9.90224C11.9059 9.58897 11.6521 9.33512 11.3388 9.33512ZM11.3388 12.7198C11.0255 12.7198 10.7717 12.9737 10.7717 13.287C10.7717 13.6002 11.0255 13.8541 11.3388 13.8541C11.6521 13.8541 11.9059 13.6002 11.9059 13.287C11.9059 12.9737 11.6521 12.7198 11.3388 12.7198Z" fill="#171717"/>
</svg>
