<svg width="16" height="16" viewBox="0 0 16 16" fill="none" xmlns="http://www.w3.org/2000/svg">
<path d="M14.9218 0.963855C15.0189 0.963855 15.1015 1.05253 15.1015 1.15663V14.8434C15.1015 14.9475 15.0189 15.0361 14.9218 15.0361H1.07817C0.981132 15.0361 0.898473 14.9475 0.898473 14.8434V1.15663C0.898473 1.05253 0.981132 0.963855 1.07817 0.963855H14.9218V0.963855ZM14.9218 0H1.07817C0.485175 0 0 0.520482 0 1.15663V14.8434C0 15.4795 0.485175 16 1.07817 16H14.9218C15.5148 16 16 15.4795 16 14.8434V1.15663C16 0.520482 15.5148 0 14.9218 0Z" fill="#171717"/>
<path d="M3.29199 7.99986H4.72955V12.5107H3.29199V7.99986ZM7.28121 3.39648H8.71877V12.5107H7.28121V3.39648ZM11.4501 5.5054H12.8877V12.5126H11.4501V5.5054Z" fill="#171717"/>
</svg>
