<svg width="17" height="16" viewBox="0 0 17 16" fill="none" xmlns="http://www.w3.org/2000/svg">
<path d="M1.54545 13.6002V7.52857C1.72761 7.46134 1.89062 7.348 2.01965 7.19887C2.14867 7.04974 2.23959 6.86956 2.28414 6.67475C2.32869 6.47993 2.32545 6.27667 2.27471 6.08349C2.22397 5.89031 2.12734 5.71333 1.99364 5.5687L3.53909 2.34891C3.64403 2.38349 3.75351 2.40103 3.86364 2.40091C4.14957 2.39914 4.42478 2.28803 4.63636 2.08893L7.04727 3.87281L6.25523 4.93674L7.80068 6.15666L8.27205 5.5207L7.34091 4.80075L8.28364 3.53683L9.20318 4.26878L9.65909 3.62083L8.11364 2.40091L7.48773 3.23685L5.02273 1.38098C5.02862 1.32114 5.02862 1.26083 5.02273 1.20099C5.02289 1.01284 4.98031 0.827289 4.89843 0.659317C4.81654 0.491345 4.69765 0.345661 4.55135 0.234028C4.40505 0.122395 4.23545 0.0479415 4.05623 0.0166795C3.87701 -0.0145824 3.6932 -0.00177665 3.51964 0.0540628C3.34608 0.109902 3.18764 0.20721 3.05711 0.33813C2.92657 0.469049 2.82761 0.629911 2.76821 0.807726C2.7088 0.985541 2.69062 1.17533 2.71514 1.36175C2.73965 1.54818 2.80617 1.72603 2.90932 1.88094L1.29818 5.20072C1.2519 5.19679 1.20538 5.19679 1.15909 5.20072C0.887268 5.2029 0.624833 5.30392 0.417662 5.48611C0.210491 5.6683 0.0717643 5.92007 0.0257324 6.19741C-0.0202994 6.47475 0.0292921 6.76002 0.165838 7.00335C0.302384 7.24668 0.517198 7.43258 0.772727 7.52857V13.6002H0V16H17V13.6002H1.54545ZM3.86364 0.801016C3.94005 0.801016 4.01475 0.824474 4.07829 0.868423C4.14183 0.912373 4.19135 0.97484 4.22059 1.04793C4.24983 1.12101 4.25748 1.20143 4.24258 1.27902C4.22767 1.35661 4.19087 1.42788 4.13684 1.48381C4.0828 1.53975 4.01396 1.57784 3.93901 1.59328C3.86406 1.60871 3.78638 1.60079 3.71578 1.57052C3.64518 1.54024 3.58484 1.48898 3.54239 1.4232C3.49993 1.35743 3.47727 1.2801 3.47727 1.20099C3.47727 1.09491 3.51798 0.993175 3.59044 0.918165C3.66289 0.843156 3.76117 0.801016 3.86364 0.801016ZM1.15909 6.00067C1.23551 6.00067 1.31021 6.02413 1.37374 6.06808C1.43728 6.11203 1.4868 6.17449 1.51604 6.24758C1.54529 6.32066 1.55294 6.40109 1.53803 6.47867C1.52312 6.55626 1.48633 6.62753 1.43229 6.68346C1.37826 6.7394 1.30941 6.7775 1.23447 6.79293C1.15952 6.80836 1.08183 6.80044 1.01124 6.77017C0.940637 6.7399 0.880295 6.68863 0.837841 6.62285C0.795387 6.55708 0.772727 6.47975 0.772727 6.40064C0.772727 6.34812 0.782721 6.29611 0.802138 6.24758C0.821554 6.19905 0.850013 6.15496 0.885891 6.11782C0.921768 6.08068 0.96436 6.05121 1.01124 6.03111C1.05811 6.01101 1.10835 6.00067 1.15909 6.00067V6.00067ZM16.2273 15.2001H0.772727V14.4001H16.2273V15.2001Z" fill="#171717"/>
<path d="M10.4316 10.4005H16.2271V11.2004H10.4316V10.4005ZM10.4316 12.0004H16.2271V12.8003H10.4316V12.0004ZM16.2271 3.43695L14.4537 1.60107H10.4316V9.60054H16.2271V3.43695ZM14.2953 2.56501L15.296 3.60094H14.2953V2.56501ZM11.2044 8.80059V2.40102H13.5225V4.40089H15.4544V8.80059H11.2044Z" fill="#171717"/>
</svg>
