<svg width="24" height="24" viewBox="0 0 24 24"  xmlns="http://www.w3.org/2000/svg">
<path d="M15.2485 17.8915C15.4244 18.3648 15.6884 18.8005 16.0265 19.1755L12 21.5L7.974 19.175C8.31183 18.8001 8.57564 18.3646 8.7515 17.8915L12 19.7675L15.2485 17.8915ZM5.0235 14C5.68654 14 6.32242 14.2634 6.79126 14.7322C7.2601 15.2011 7.5235 15.837 7.5235 16.5C7.5235 17.163 7.2601 17.7989 6.79126 18.2678C6.32242 18.7366 5.68654 19 5.0235 19C4.36046 19 3.72457 18.7366 3.25573 18.2678C2.78689 17.7989 2.5235 17.163 2.5235 16.5C2.5235 15.837 2.78689 15.2011 3.25573 14.7322C3.72457 14.2634 4.36046 14 5.0235 14ZM19.0235 14C19.6865 14 20.3224 14.2634 20.7913 14.7322C21.2601 15.2011 21.5235 15.837 21.5235 16.5C21.5235 17.163 21.2601 17.7989 20.7913 18.2678C20.3224 18.7366 19.6865 19 19.0235 19C18.3605 19 17.7246 18.7366 17.2557 18.2678C16.7869 17.7989 16.5235 17.163 16.5235 16.5C16.5235 15.837 16.7869 15.2011 17.2557 14.7322C17.7246 14.2634 18.3605 14 19.0235 14ZM5.0235 15.5C4.75828 15.5 4.50393 15.6054 4.31639 15.7929C4.12885 15.9804 4.0235 16.2348 4.0235 16.5C4.0235 16.7652 4.12885 17.0196 4.31639 17.2071C4.50393 17.3947 4.75828 17.5 5.0235 17.5C5.28871 17.5 5.54307 17.3947 5.7306 17.2071C5.91814 17.0196 6.0235 16.7652 6.0235 16.5C6.0235 16.2348 5.91814 15.9804 5.7306 15.7929C5.54307 15.6054 5.28871 15.5 5.0235 15.5ZM19.0235 15.5C18.7583 15.5 18.5039 15.6054 18.3164 15.7929C18.1289 15.9804 18.0235 16.2348 18.0235 16.5C18.0235 16.7652 18.1289 17.0196 18.3164 17.2071C18.5039 17.3947 18.7583 17.5 19.0235 17.5C19.2887 17.5 19.5431 17.3947 19.7306 17.2071C19.9181 17.0196 20.0235 16.7652 20.0235 16.5C20.0235 16.2348 19.9181 15.9804 19.7306 15.7929C19.5431 15.6054 19.2887 15.5 19.0235 15.5ZM8.184 5.703C8.33597 6.18447 8.57791 6.63273 8.897 7.024L5.7055 8.866V12.562C5.20885 12.4736 4.70001 12.4794 4.2055 12.579V8L8.184 5.703ZM15.816 5.703L19.794 8V12.579C19.2995 12.4792 18.7906 12.4735 18.294 12.562V8.866L15.103 7.024C15.4221 6.63273 15.664 6.18447 15.816 5.703ZM12.0235 2C12.3518 2 12.6769 2.06466 12.9802 2.1903C13.2835 2.31594 13.5591 2.50009 13.7913 2.73223C14.0234 2.96438 14.2076 3.23998 14.3332 3.54329C14.4588 3.84661 14.5235 4.1717 14.5235 4.5C14.5235 4.82831 14.4588 5.1534 14.3332 5.45671C14.2076 5.76002 14.0234 6.03562 13.7913 6.26777C13.5591 6.49992 13.2835 6.68406 12.9802 6.8097C12.6769 6.93534 12.3518 7 12.0235 7C11.3605 7 10.7246 6.73661 10.2557 6.26777C9.78689 5.79893 9.5235 5.16304 9.5235 4.5C9.5235 3.83696 9.78689 3.20107 10.2557 2.73223C10.7246 2.26339 11.3605 2 12.0235 2ZM12.0235 3.5C11.8922 3.5 11.7621 3.52587 11.6408 3.57612C11.5195 3.62638 11.4092 3.70004 11.3164 3.79289C11.2235 3.88575 11.1499 3.99599 11.0996 4.11732C11.0494 4.23864 11.0235 4.36868 11.0235 4.5C11.0235 4.63132 11.0494 4.76136 11.0996 4.88268C11.1499 5.00401 11.2235 5.11425 11.3164 5.20711C11.4092 5.29997 11.5195 5.37363 11.6408 5.42388C11.7621 5.47414 11.8922 5.5 12.0235 5.5C12.2887 5.5 12.5431 5.39465 12.7306 5.20711C12.9181 5.01957 13.0235 4.76522 13.0235 4.5C13.0235 4.23478 12.9181 3.98043 12.7306 3.79289C12.5431 3.60536 12.2887 3.5 12.0235 3.5Z" />
</svg>
