<svg width="16" height="16" viewBox="0 0 16 16" fill="none" xmlns="http://www.w3.org/2000/svg">
<path d="M8.2497 8.82506C8.1619 8.82137 8.07593 8.80051 7.99739 8.76383L0.318316 4.93652C0.228746 4.88961 0.154145 4.82145 0.102113 4.73897C0.0500822 4.6565 0.0224813 4.56267 0.0221233 4.46704C0.0122819 4.36571 0.0352232 4.26395 0.0880012 4.17484C0.140779 4.08573 0.220984 4.01333 0.318316 3.96694L7.99739 0.0681942C8.08279 0.0234861 8.17913 0 8.27712 0C8.37512 0 8.47146 0.0234861 8.55686 0.0681942L15.6765 3.96694C15.7736 4.01167 15.8553 4.08076 15.9125 4.16642C15.9697 4.25208 16 4.3509 16 4.45173C16 4.55256 15.9697 4.65138 15.9125 4.73704C15.8553 4.8227 15.7736 4.8918 15.6765 4.93652L8.53492 8.75362C8.44912 8.80226 8.35015 8.82705 8.2497 8.82506ZM1.76637 4.42622L8.23873 7.68198L14.2833 4.43642L8.19485 1.15005L1.76637 4.42622Z" fill="#171717"/>
<path d="M8.24971 12.4075C8.16191 12.4038 8.07594 12.383 7.9974 12.3463L0.318327 8.48837C0.220521 8.44354 0.138575 8.37357 0.0821924 8.28674C0.02581 8.19992 -0.0026463 8.09988 0.00019359 7.99848C0.00302292 7.90349 0.0343025 7.81112 0.0905094 7.73178C0.146716 7.65244 0.225617 7.58928 0.318327 7.54941L3.82876 5.74292C3.89491 5.70893 3.96766 5.6875 4.04278 5.67988C4.1179 5.67226 4.19391 5.67861 4.26637 5.69855C4.33884 5.71849 4.40632 5.75163 4.46491 5.79604C4.52349 5.84045 4.57201 5.89525 4.60764 5.95725C4.6446 6.01818 4.66826 6.08531 4.67723 6.15478C4.68621 6.22424 4.68033 6.29468 4.65994 6.36202C4.63955 6.42937 4.60505 6.4923 4.55842 6.5472C4.51179 6.60209 4.45395 6.64786 4.38823 6.68188L1.76638 7.99848L8.23874 11.244L14.2833 7.99848L11.815 6.68188C11.7475 6.64835 11.688 6.60252 11.6399 6.54713C11.5918 6.49174 11.5562 6.42793 11.5352 6.35948C11.5142 6.29103 11.5082 6.21935 11.5176 6.14871C11.527 6.07806 11.5516 6.00989 11.5898 5.94826C11.6281 5.88662 11.6793 5.83278 11.7404 5.78994C11.8015 5.74709 11.8713 5.71612 11.9455 5.69887C12.0197 5.68162 12.0969 5.67843 12.1725 5.68951C12.2481 5.70058 12.3205 5.72569 12.3854 5.76333L15.6765 7.55961C15.7655 7.60358 15.8395 7.66996 15.8899 7.75117C15.9404 7.83238 15.9652 7.92515 15.9617 8.01889C15.9628 8.1122 15.9369 8.20406 15.8867 8.28486C15.8365 8.36566 15.7639 8.43243 15.6765 8.47817L8.53493 12.3361C8.44913 12.3847 8.35016 12.4095 8.24971 12.4075V12.4075Z" fill="#171717"/>
<path d="M8.24969 15.9999C8.16035 15.9968 8.07341 15.9722 7.99738 15.9284L0.318312 12.0807C0.228045 12.0372 0.152547 11.9712 0.100245 11.8901C0.047943 11.809 0.0208947 11.716 0.022119 11.6214C0.0152867 11.5232 0.0397452 11.4253 0.0924317 11.34C0.145118 11.2547 0.223691 11.1857 0.318312 11.1417L3.82874 9.32504C3.96028 9.27581 4.10661 9.27299 4.24023 9.31711C4.37384 9.36123 4.48552 9.44926 4.55426 9.56462C4.623 9.67999 4.64406 9.81474 4.61348 9.94354C4.5829 10.0723 4.50279 10.1863 4.38822 10.264L1.76636 11.601L8.23872 14.8568L14.2832 11.601L11.815 10.2742C11.6834 10.2018 11.5877 10.0841 11.5487 9.94659C11.5097 9.80905 11.5305 9.66275 11.6065 9.53937C11.6823 9.41763 11.8068 9.32882 11.9528 9.29246C12.0989 9.25609 12.2545 9.27516 12.3854 9.34546L15.6765 11.1417C15.7631 11.1883 15.8351 11.2552 15.8852 11.3358C15.9352 11.4165 15.9616 11.5079 15.9617 11.601C15.9632 11.6972 15.9378 11.792 15.8877 11.8762C15.8377 11.9603 15.7648 12.0308 15.6765 12.0807L8.53492 15.9284C8.44703 15.9724 8.34942 15.9968 8.24969 15.9999V15.9999Z" fill="#171717"/>
</svg>
