<svg width="16" height="16" viewBox="0 0 16 16" fill="none" xmlns="http://www.w3.org/2000/svg">
<path d="M7.98968 15.9997C6.1131 15.9925 4.29846 15.3284 2.86159 14.1228C1.42471 12.9173 0.456578 11.2468 0.125684 9.40201C-0.205211 7.55721 0.122084 5.65493 1.0506 4.02625C1.97913 2.39757 3.45008 1.14562 5.20747 0.488282C5.3345 0.442448 5.47457 0.448865 5.59687 0.50612C5.71917 0.563376 5.81371 0.666787 5.85971 0.793625C5.8841 0.85569 5.89578 0.922009 5.89406 0.988661C5.89234 1.05531 5.87726 1.12094 5.84971 1.18167C5.82216 1.2424 5.78269 1.297 5.73364 1.34223C5.6846 1.38747 5.62697 1.42242 5.56416 1.44502C4.46747 1.85233 3.49069 2.52802 2.72332 3.41017C1.95595 4.29231 1.42254 5.35269 1.17198 6.49414C0.921413 7.63558 0.961711 8.82158 1.28918 9.94344C1.61664 11.0653 2.2208 12.0871 3.04629 12.9153C3.87177 13.7434 4.89218 14.3514 6.01399 14.6836C7.1358 15.0157 8.32313 15.0613 9.46717 14.8162C10.6112 14.5712 11.6754 14.0433 12.5621 13.2809C13.4489 12.5185 14.1299 11.5461 14.5427 10.4526C14.5907 10.3277 14.686 10.2266 14.8081 10.1714C14.9302 10.1161 15.0692 10.1111 15.1949 10.1575C15.2581 10.1812 15.3159 10.2172 15.3651 10.2633C15.4142 10.3095 15.4537 10.365 15.4812 10.4266C15.5086 10.4881 15.5236 10.5545 15.5252 10.6219C15.5268 10.6893 15.515 10.7563 15.4904 10.8191C14.9113 12.3388 13.8845 13.6474 12.5454 14.5723C11.2062 15.4972 9.61782 15.9949 7.98968 15.9997V15.9997Z" fill="#171717"/>
<path d="M15.4904 8.5089H7.98967C7.85452 8.5089 7.72491 8.45528 7.62935 8.35984C7.53379 8.2644 7.4801 8.13496 7.4801 7.99999V0.508905C7.4801 0.373935 7.53379 0.244493 7.62935 0.149055C7.72491 0.0536166 7.85452 0 7.98967 0C10.1141 0 12.1516 0.842854 13.6538 2.34314C15.1561 3.84343 16 5.87826 16 7.99999C16 8.13496 15.9463 8.2644 15.8507 8.35984C15.7552 8.45528 15.6256 8.5089 15.4904 8.5089ZM8.49923 7.49109H14.9707C14.8439 5.81901 14.1214 4.24766 12.9341 3.06194C11.7468 1.87622 10.1735 1.15462 8.49923 1.02799V7.49109Z" fill="#171717"/>
</svg>
