<svg width="16" height="16" viewBox="0 0 16 16" fill="none" xmlns="http://www.w3.org/2000/svg">
<path d="M7.98968 16.0002C6.1131 15.993 4.29846 15.3288 2.86159 14.1233C1.42471 12.9178 0.456578 11.2473 0.125684 9.4025C-0.205211 7.5577 0.122084 5.65542 1.0506 4.02674C1.97913 2.39806 3.45008 1.14611 5.20747 0.48877C5.3345 0.442936 5.47457 0.449353 5.59687 0.506609C5.71917 0.563865 5.81371 0.667275 5.85971 0.794113C5.8841 0.856178 5.89578 0.922497 5.89406 0.989149C5.89234 1.0558 5.87726 1.12143 5.84971 1.18216C5.82216 1.24289 5.78269 1.29749 5.73364 1.34272C5.6846 1.38795 5.62697 1.42291 5.56416 1.44551C4.46747 1.85282 3.49069 2.52851 2.72332 3.41065C1.95595 4.2928 1.42254 5.35318 1.17198 6.49463C0.921413 7.63607 0.961711 8.82207 1.28918 9.94392C1.61664 11.0658 2.2208 12.0876 3.04629 12.9158C3.87177 13.7439 4.89218 14.3519 6.01399 14.6841C7.1358 15.0162 8.32313 15.0618 9.46717 14.8167C10.6112 14.5717 11.6754 14.0438 12.5621 13.2814C13.4489 12.519 14.1299 11.5465 14.5427 10.4531C14.5907 10.3282 14.686 10.2271 14.8081 10.1718C14.9302 10.1166 15.0692 10.1116 15.1949 10.158C15.2581 10.1817 15.3159 10.2176 15.3651 10.2638C15.4142 10.31 15.4537 10.3655 15.4812 10.4271C15.5086 10.4886 15.5236 10.555 15.5252 10.6224C15.5268 10.6897 15.515 10.7568 15.4904 10.8195C14.9113 12.3393 13.8845 13.6479 12.5454 14.5728C11.2062 15.4977 9.61782 15.9954 7.98968 16.0002V16.0002Z" fill="#171717"/>
<path d="M15.4903 8.5089H7.98954C7.8544 8.5089 7.72479 8.45528 7.62923 8.35984C7.53367 8.2644 7.47998 8.13496 7.47998 7.99999V0.508905C7.47998 0.373935 7.53367 0.244493 7.62923 0.149055C7.72479 0.0536166 7.8544 0 7.98954 0C10.114 0 12.1515 0.842854 13.6537 2.34314C15.1559 3.84343 15.9999 5.87826 15.9999 7.99999C15.9999 8.13496 15.9462 8.2644 15.8506 8.35984C15.7551 8.45528 15.6255 8.5089 15.4903 8.5089ZM8.49911 7.49109H14.9706C14.8438 5.81901 14.1212 4.24766 12.934 3.06194C11.7467 1.87622 10.1733 1.15462 8.49911 1.02799V7.49109Z" fill="#171717"/>
</svg>
