<svg width="15" height="17" viewBox="0 0 15 17" fill="none" xmlns="http://www.w3.org/2000/svg">
<path d="M7.46809 17C7.19522 16.9971 6.92773 16.9228 6.69149 16.7845L0.765957 13.3253C0.533223 13.1855 0.340296 12.9869 0.206039 12.7489C0.0717814 12.5109 0.000788278 12.2417 0 11.9675V5.03849C0.000819444 4.76312 0.0729751 4.49279 0.209255 4.25452C0.345535 4.01625 0.541166 3.81838 0.776596 3.6807L6.69149 0.210784C6.9276 0.072697 7.19544 0 7.46809 0C7.74073 0 8.00857 0.072697 8.24468 0.210784L14.1702 3.6807C14.4156 3.81142 14.6219 4.00627 14.7678 4.24503C14.9137 4.48379 14.9939 4.75775 15 5.03849V11.9675C14.9992 12.2429 14.927 12.5132 14.7907 12.7515C14.6545 12.9898 14.4588 13.1877 14.2234 13.3253L8.24468 16.7845C8.00844 16.9228 7.74095 16.9971 7.46809 17V17ZM7.46809 1.0621C7.37914 1.06295 7.29165 1.0851 7.21277 1.12676L1.28723 4.58589C1.21102 4.63403 1.14779 4.70059 1.10323 4.77958C1.05867 4.85857 1.03416 4.94754 1.03191 5.03849V11.9675C1.03297 12.0573 1.05706 12.1452 1.10183 12.2227C1.14659 12.3002 1.21049 12.3645 1.28723 12.4094L7.21277 15.8793C7.29134 15.9217 7.37903 15.9439 7.46809 15.9439C7.55714 15.9439 7.64483 15.9217 7.7234 15.8793L13.6489 12.4094C13.7272 12.3662 13.7923 12.3023 13.8373 12.2244C13.8823 12.1466 13.9054 12.0578 13.9043 11.9675V5.03849C13.9054 4.94828 13.8823 4.85947 13.8373 4.78161C13.7923 4.70375 13.7272 4.63981 13.6489 4.59667L7.7234 1.12676C7.64499 1.08388 7.55719 1.06165 7.46809 1.0621V1.0621Z" fill="#171717"/>
<path d="M7.38285 14.2843C7.3149 14.2857 7.24735 14.2734 7.18417 14.248C7.12098 14.2227 7.06343 14.1848 7.01488 14.1366C6.96633 14.0885 6.92776 14.031 6.90143 13.9675C6.87511 13.904 6.86156 13.8359 6.86157 13.767V7.96947C6.86157 7.82657 6.91761 7.68952 7.01737 7.58848C7.11712 7.48743 7.25241 7.43066 7.39349 7.43066C7.53456 7.43066 7.66985 7.48743 7.76961 7.58848C7.86936 7.68952 7.9254 7.82657 7.9254 7.96947V13.767C7.92554 13.8378 7.91135 13.9078 7.88372 13.9727C7.85608 14.0377 7.81559 14.0962 7.76474 14.1447C7.71389 14.1932 7.65376 14.2306 7.58808 14.2546C7.52239 14.2786 7.45254 14.2887 7.38285 14.2843V14.2843Z" fill="#171717"/>
<path d="M7.44678 8.47662C7.34326 8.47539 7.24244 8.44296 7.15718 8.38346C7.07192 8.32397 7.00608 8.2401 6.96806 8.14256C6.94204 8.07819 6.92884 8.00925 6.92921 7.9397C6.92957 7.87014 6.9435 7.80135 6.97019 7.73726C6.99688 7.67318 7.03581 7.61506 7.08473 7.56626C7.13366 7.51746 7.19162 7.47893 7.25529 7.45289L11.7127 5.6856C11.8412 5.63633 11.9836 5.64038 12.1091 5.69688C12.2346 5.75337 12.333 5.85775 12.383 5.98733C12.4085 6.05161 12.4211 6.12044 12.4199 6.18972C12.4186 6.25901 12.4037 6.32734 12.3759 6.39067C12.3481 6.45399 12.3081 6.51102 12.2581 6.55835C12.2082 6.60569 12.1493 6.64238 12.0851 6.66623L7.63827 8.47662C7.57483 8.48672 7.51022 8.48672 7.44678 8.47662V8.47662Z" fill="#171717"/>
<path d="M7.36191 8.47616C7.29895 8.49129 7.23337 8.49129 7.17042 8.47616L2.97893 6.7412C2.91526 6.71516 2.85729 6.67663 2.80837 6.62783C2.75944 6.57903 2.72051 6.52091 2.69382 6.45683C2.66713 6.39274 2.65321 6.32395 2.65284 6.2544C2.65247 6.18484 2.66568 6.1159 2.69169 6.05153C2.71629 5.98743 2.75327 5.92893 2.80045 5.87948C2.84763 5.83002 2.90408 5.7906 2.96649 5.7635C3.0289 5.73641 3.09601 5.7222 3.16391 5.72169C3.2318 5.72119 3.29911 5.73441 3.36191 5.76057L7.5534 7.39855C7.61801 7.42355 7.67707 7.46132 7.72712 7.50967C7.77718 7.55803 7.81724 7.61598 7.84496 7.68017C7.87269 7.74436 7.88752 7.8135 7.8886 7.88355C7.88969 7.95361 7.87699 8.02318 7.85127 8.08822C7.82014 8.19668 7.75614 8.29249 7.66833 8.3621C7.58051 8.43172 7.47332 8.47162 7.36191 8.47616V8.47616Z" fill="#171717"/>
<path d="M1.65967 6.17023C1.65967 6.52462 1.79865 6.8645 2.04604 7.11509C2.29343 7.36568 2.62896 7.50647 2.97882 7.50647C3.32868 7.50647 3.66421 7.36568 3.9116 7.11509C4.15898 6.8645 4.29797 6.52462 4.29797 6.17023C4.29797 5.81583 4.15898 5.47595 3.9116 5.22536C3.66421 4.97477 3.32868 4.83398 2.97882 4.83398C2.62896 4.83398 2.29343 4.97477 2.04604 5.22536C1.79865 5.47595 1.65967 5.81583 1.65967 6.17023Z" fill="#171717"/>
<path d="M6.21289 13.7669C6.21289 14.1213 6.35187 14.4612 6.59926 14.7118C6.84665 14.9624 7.18218 15.1031 7.53204 15.1031C7.8819 15.1031 8.21743 14.9624 8.46482 14.7118C8.71221 14.4612 8.85119 14.1213 8.85119 13.7669C8.85119 13.4125 8.71221 13.0726 8.46482 12.822C8.21743 12.5714 7.8819 12.4307 7.53204 12.4307C7.18218 12.4307 6.84665 12.5714 6.59926 12.822C6.35187 13.0726 6.21289 13.4125 6.21289 13.7669V13.7669Z" fill="#171717"/>
<path d="M10.6382 6.17023C10.6382 6.52462 10.7772 6.8645 11.0246 7.11509C11.2719 7.36568 11.6075 7.50647 11.9573 7.50647C12.3072 7.50647 12.6427 7.36568 12.8901 7.11509C13.1375 6.8645 13.2765 6.52462 13.2765 6.17023C13.2765 5.81583 13.1375 5.47595 12.8901 5.22536C12.6427 4.97477 12.3072 4.83398 11.9573 4.83398C11.6075 4.83398 11.2719 4.97477 11.0246 5.22536C10.7772 5.47595 10.6382 5.81583 10.6382 6.17023V6.17023Z" fill="#171717"/>
</svg>
