<svg width="12" height="12" viewBox="0 0 12 12" fill="none" xmlns="http://www.w3.org/2000/svg">
<path d="M11.9979 7.03409V3.40696C11.9979 3.40226 12 3.39861 12 3.39443C12 3.39026 11.9979 3.38609 11.9979 3.38191V0.521739C11.9979 0.383365 11.9527 0.250659 11.8724 0.152814C11.792 0.0549689 11.6831 0 11.5694 0H0.430561C0.316937 0 0.207967 0.0549689 0.127623 0.152814C0.0472789 0.250659 0.00214209 0.383365 0.00214209 0.521739V3.38191C0.00214209 3.38661 0 3.39026 0 3.39443C0 3.39861 0.00214209 3.40226 0.00214209 3.40696V7.03409C0.00214209 7.03878 0 7.04243 0 7.04661C0 7.05078 0.00214209 7.05444 0.00214209 7.05913V11.4783C0.00214209 11.6166 0.0472789 11.7493 0.127623 11.8472C0.207967 11.945 0.316937 12 0.430561 12H11.5694C11.6831 12 11.792 11.945 11.8724 11.8472C11.9527 11.7493 11.9979 11.6166 11.9979 11.4783V7.05913C11.9979 7.05444 12 7.05078 12 7.04661C12 7.04243 11.9979 7.03826 11.9979 7.03409ZM4.50054 6.52487V3.91617H7.28526V6.52487H4.50054ZM7.28526 7.56835V10.9565H4.50054V7.56835H7.28526ZM0.858979 3.91617H3.6437V6.52487H0.858979V3.91617ZM8.14209 3.91617H11.141V6.52487H8.14209V3.91617ZM11.141 1.04348V2.8727H0.858979V1.04348H11.141ZM0.858979 7.56835H3.6437V10.9565H0.858979V7.56835ZM8.14209 10.9565V7.56835H11.141V10.9565H8.14209Z" fill="#171717"/>
</svg>
