<svg width="14" height="16" viewBox="0 0 14 16" fill="none" xmlns="http://www.w3.org/2000/svg">
<path d="M12.4929 16H1.50708C1.10738 16 0.724047 15.8371 0.441414 15.5472C0.158781 15.2572 0 14.864 0 14.4539V1.53592C0.00261836 1.12764 0.162555 0.736989 0.444904 0.449237C0.727254 0.161485 1.10909 -8.8357e-06 1.50708 3.62576e-10H12.4929C12.8909 -8.8357e-06 13.2727 0.161485 13.5551 0.449237C13.8374 0.736989 13.9974 1.12764 14 1.53592V14.4539C14 14.864 13.8412 15.2572 13.5586 15.5472C13.276 15.8371 12.8926 16 12.4929 16V16ZM1.50708 1.02734C1.44115 1.02598 1.37562 1.03814 1.31432 1.06309C1.25302 1.08804 1.1972 1.12529 1.15011 1.17265C1.10302 1.22001 1.06561 1.27654 1.04008 1.33891C1.01455 1.40129 1.0014 1.46827 1.00142 1.53592V14.4539C1.00142 14.5915 1.05469 14.7234 1.14952 14.8207C1.24435 14.918 1.37297 14.9727 1.50708 14.9727H12.4929C12.627 14.9727 12.7556 14.918 12.8505 14.8207C12.9453 14.7234 12.9986 14.5915 12.9986 14.4539V1.53592C12.9986 1.46827 12.9855 1.40129 12.9599 1.33891C12.9344 1.27654 12.897 1.22001 12.8499 1.17265C12.8028 1.12529 12.747 1.08804 12.6857 1.06309C12.6244 1.03814 12.5588 1.02598 12.4929 1.02734H1.50708Z" fill="#171717"/>
<path d="M11.5015 5.46235H2.4987C2.37421 5.4521 2.25808 5.39403 2.17352 5.29974C2.08896 5.20545 2.04221 5.08189 2.04261 4.95377V2.58378C2.0452 2.44797 2.09962 2.31862 2.19417 2.22352C2.28873 2.12842 2.41586 2.07517 2.54827 2.0752H11.5511C11.6835 2.07517 11.8107 2.12842 11.9052 2.22352C11.9998 2.31862 12.0542 2.44797 12.0568 2.58378V4.95377C12.0573 5.02602 12.0428 5.09755 12.0142 5.1636C11.9857 5.22965 11.9437 5.2887 11.8912 5.33682C11.8387 5.38494 11.7768 5.42102 11.7096 5.44267C11.6424 5.46432 11.5714 5.47103 11.5015 5.46235V5.46235ZM3.03411 4.43502H10.9661V3.10253H3.03411V4.43502ZM6.18708 13.9252H2.4987C2.37336 13.9125 2.25713 13.8523 2.17278 13.7564C2.08842 13.6604 2.042 13.5356 2.04261 13.4064V6.35746C2.0426 6.28981 2.05574 6.22283 2.08127 6.16045C2.1068 6.09808 2.14421 6.04155 2.1913 5.99419C2.23839 5.94683 2.29422 5.90958 2.35551 5.88463C2.41681 5.85968 2.48234 5.84752 2.54827 5.84888H6.18708C6.31857 5.84888 6.44466 5.90246 6.53763 5.99784C6.6306 6.09321 6.68283 6.22257 6.68283 6.35746V13.4064C6.68415 13.474 6.6723 13.5413 6.64798 13.6042C6.62366 13.667 6.58735 13.7243 6.54119 13.7726C6.49502 13.8209 6.43992 13.8593 6.37912 13.8855C6.31832 13.9117 6.25303 13.9252 6.18708 13.9252V13.9252ZM3.03411 12.8978H5.68142V6.87621H3.03411V12.8978ZM11.5015 13.9252H7.81315C7.7472 13.9252 7.68191 13.9117 7.62111 13.8855C7.56031 13.8593 7.50521 13.8209 7.45905 13.7726C7.41288 13.7243 7.37657 13.667 7.35225 13.6042C7.32793 13.5413 7.31608 13.474 7.3174 13.4064V6.35746C7.3174 6.22257 7.36963 6.09321 7.4626 5.99784C7.55557 5.90246 7.68166 5.84888 7.81315 5.84888H11.5015C11.5675 5.84752 11.633 5.85968 11.6943 5.88463C11.7556 5.90958 11.8114 5.94683 11.8585 5.99419C11.9056 6.04155 11.943 6.09808 11.9685 6.16045C11.9941 6.22283 12.0072 6.28981 12.0072 6.35746V13.4064C12.0072 13.544 11.9539 13.6759 11.8591 13.7732C11.7643 13.8705 11.6356 13.9252 11.5015 13.9252V13.9252ZM8.31881 12.908H10.9661V6.87621H8.31881V12.908Z" fill="#171717"/>
</svg>
