<svg width="16" height="16" viewBox="0 0 16 16" fill="none" xmlns="http://www.w3.org/2000/svg">
<path d="M15.3866 8.91115H5.3168L5.28786 8.91561L5.2563 8.92095L5.23526 8.9263L5.19844 8.9361L5.18003 8.94323L5.14321 8.95749L5.12041 8.96907L5.0906 8.98333L5.05904 9.00293L5.04063 9.01452L5.00644 9.04036L4.99329 9.05016L4.96436 9.07689L4.94946 9.09115L4.92754 9.11521L4.90825 9.13748L4.89335 9.15798L4.87143 9.18917V9.19451L4.86354 9.20877C4.85652 9.22035 4.85039 9.23194 4.84425 9.24352L4.83373 9.2658C4.82847 9.27649 4.82321 9.28807 4.81883 9.29966L4.80918 9.3255C4.80918 9.33619 4.80217 9.34599 4.79954 9.35669C4.79691 9.36738 4.79428 9.37718 4.79165 9.38698C4.78902 9.39678 4.78726 9.4057 4.78551 9.4155C4.78376 9.4253 4.78551 9.43866 4.78025 9.45025C4.77499 9.46183 4.78025 9.46718 4.78025 9.47609V9.63114C4.78025 9.64094 4.78025 9.65341 4.78551 9.66411C4.79077 9.6748 4.78551 9.67747 4.79077 9.6846C4.79603 9.69173 4.79691 9.71044 4.80129 9.72292L4.80743 9.73895C4.81181 9.75232 4.81707 9.76569 4.82233 9.77905L4.83198 9.79955C4.83724 9.81024 4.8425 9.82182 4.84776 9.83252C4.85302 9.84321 4.85915 9.85212 4.86529 9.86103L4.87844 9.88242C4.88546 9.89311 4.89422 9.9038 4.90211 9.9145L4.91351 9.92964L4.93894 9.95816L4.95472 9.97509L4.97751 9.99647L5.0003 10.017L5.02047 10.0321L5.05115 10.0544H5.05641L7.50418 11.653C7.64136 11.7421 7.80775 11.7721 7.96674 11.7365C8.12573 11.7009 8.26429 11.6026 8.35195 11.4632C8.43961 11.3237 8.46918 11.1546 8.43416 10.993C8.39914 10.8314 8.3024 10.6906 8.16521 10.6015L7.48752 10.1613H15.3866C15.5494 10.1613 15.7055 10.0956 15.8206 9.97863C15.9357 9.86165 16.0003 9.703 16.0003 9.53757C16.0003 9.37215 15.9357 9.21349 15.8206 9.09652C15.7055 8.97954 15.5494 8.91383 15.3866 8.91383V8.91115ZM15.7531 5.96528L15.7224 5.94301H15.7172L13.2685 4.34621C13.1313 4.25712 12.9649 4.22706 12.806 4.26266C12.647 4.29825 12.5084 4.39658 12.4207 4.53601C12.3331 4.67544 12.3035 4.84456 12.3385 5.00615C12.3735 5.16774 12.4703 5.30858 12.6075 5.39767L13.2825 5.84053H5.38518C5.22242 5.84053 5.06632 5.90625 4.95123 6.02322C4.83614 6.1402 4.77148 6.29885 4.77148 6.46428C4.77148 6.62971 4.83614 6.78836 4.95123 6.90534C5.06632 7.02231 5.22242 7.08803 5.38518 7.08803H15.3866C15.4085 7.08921 15.4305 7.08921 15.4524 7.08803H15.4708L15.5225 7.07823L15.5418 7.07288L15.5927 7.05684L15.6093 7.0506C15.6294 7.04247 15.649 7.03324 15.6681 7.02298H15.6733C15.6933 7.0119 15.7126 6.9997 15.7312 6.98645L15.7496 6.97219L15.7855 6.94278L15.8048 6.92496C15.818 6.91249 15.8302 6.89823 15.8425 6.88486L15.8522 6.87328C15.8676 6.85426 15.882 6.83433 15.8951 6.81358L15.903 6.79932C15.91 6.78774 15.9162 6.77615 15.9223 6.76457L15.9328 6.74229C15.9381 6.7316 15.9425 6.72002 15.9468 6.70932L15.9565 6.68348C15.9565 6.67368 15.9635 6.66299 15.9661 6.65319L15.974 6.62289C15.9767 6.61309 15.974 6.60418 15.9802 6.59527C15.9863 6.58636 15.9802 6.5721 15.9854 6.56052C15.9907 6.54893 15.9854 6.54359 15.9854 6.53467V6.49636V6.47854V6.47141V6.43488V6.40814V6.38052C15.9854 6.37161 15.9854 6.35824 15.9802 6.34666C15.9749 6.33508 15.9802 6.33418 15.9758 6.32795C15.9714 6.32171 15.9696 6.30122 15.9653 6.28785L15.96 6.27448C15.9547 6.26023 15.9504 6.24597 15.9442 6.23171L15.9363 6.21478C15.931 6.20235 15.9252 6.19016 15.9188 6.17825L15.9039 6.15241L15.889 6.12746C15.882 6.11766 15.875 6.10785 15.8671 6.09805L15.853 6.08023L15.8294 6.0535L15.8127 6.03479L15.7908 6.01429L15.7671 5.99291L15.7531 5.96528Z" fill="black"/>
<path d="M13.6766 12.057C13.5138 12.057 13.3577 12.1227 13.2427 12.2397C13.1276 12.3567 13.0629 12.5153 13.0629 12.6808V14.7525H1.22739V1.24749H13.0629V3.04121C13.0629 3.20664 13.1276 3.36529 13.2427 3.48227C13.3577 3.59924 13.5138 3.66496 13.6766 3.66496C13.8394 3.66496 13.9955 3.59924 14.1106 3.48227C14.2256 3.36529 14.2903 3.20664 14.2903 3.04121V0.623747C14.2903 0.458319 14.2256 0.299666 14.1106 0.182691C13.9955 0.065716 13.8394 0 13.6766 0H0.613694C0.450932 0 0.294837 0.065716 0.179747 0.182691C0.0646569 0.299666 0 0.458319 0 0.623747V15.3763C0 15.5417 0.0646569 15.7003 0.179747 15.8173C0.294837 15.9343 0.450932 16 0.613694 16H13.6766C13.8394 16 13.9955 15.9343 14.1106 15.8173C14.2256 15.7003 14.2903 15.5417 14.2903 15.3763V12.6808C14.2903 12.5153 14.2256 12.3567 14.1106 12.2397C13.9955 12.1227 13.8394 12.057 13.6766 12.057Z" fill="black"/>
</svg>
