<svg width="60" height="60" viewBox="0 0 60 60" fill="none" xmlns="http://www.w3.org/2000/svg">
<g clip-path="url(#clip0_15846_2839)">
<path d="M56.4844 60H3.51562C2.58322 60 1.68901 59.6296 1.0297 58.9703C0.370395 58.311 0 57.4168 0 56.4844L0 3.51562C0 2.58322 0.370395 1.68901 1.0297 1.0297C1.68901 0.370395 2.58322 0 3.51562 0L56.4844 0C57.4168 0 58.311 0.370395 58.9703 1.0297C59.6296 1.68901 60 2.58322 60 3.51562V56.4844C60 57.4168 59.6296 58.311 58.9703 58.9703C58.311 59.6296 57.4168 60 56.4844 60ZM10.1886 20.962C3.94254 27.0775 1.0032 34.3396 1.37063 42.7483C1.73789 56.1262 22.3144 55.7444 27.4582 52.3021C27.8253 50.0087 28.9277 47.3333 28.5605 40.0709C28.5605 38.9242 27.4574 37.7774 25.9887 36.6307C24.1499 35.8673 22.6809 35.1026 21.212 35.1026C19.0048 34.7218 16.0669 33.1932 14.598 32.0466C13.8616 31.6645 11.6589 29.3712 10.9238 26.6956C10.5559 25.931 10.1886 24.0182 10.1886 20.962V20.962ZM17.1699 15.2285V15.2364C14.9681 16.7637 13.5 18.2907 12.3984 19.4365C12.0312 22.1087 12.0312 24.021 12.3984 25.5489C12.7644 27.8438 13.8674 29.7531 15.3363 30.8998C17.1731 32.0472 19.3778 33.5753 20.4801 33.5753C23.4199 33.9592 25.6259 34.34 28.5636 37.0154C31.5016 39.3088 30.0326 50.012 30.0326 51.54L34.4394 49.2466V46.9532C34.8067 37.0127 33.3339 33.9566 27.4582 32.4285C13.872 30.9008 17.1654 19.0668 17.1698 15.2363L17.175 15.2326L17.1699 15.2285ZM18.2729 14.464V21.3446C18.2729 25.167 20.4776 27.079 21.9471 28.6071C23.4166 30.1352 27.4582 31.2832 29.6629 31.6632C31.8675 32.0432 33.337 33.1913 35.1746 36.2474C36.2769 39.3055 35.9095 46.9505 35.9095 48.4786C37.0133 48.0966 38.4818 46.9498 39.9511 45.8031V43.5097C39.9511 40.0696 39.5839 37.3941 38.8487 35.1007C38.1131 33.956 37.3792 32.8092 36.6441 32.0445C35.1739 30.1351 31.8683 29.7531 30.03 29.3712C28.9264 28.9878 27.826 28.6063 25.9887 27.4597C20.8442 24.7843 22.6816 12.9343 22.6816 11.4063C21.5793 12.1711 20.1097 12.9352 18.2729 14.4638V14.464ZM28.9284 21.3441C27.8262 17.9047 28.1933 11.4081 28.1934 8.73205L28.1965 8.73094H28.1934V8.73205C27.0902 9.11432 25.6226 9.87873 24.155 11.0244L23.7878 14.8464C23.4193 19.4333 24.1543 22.4909 25.2566 24.4021C27.4613 27.4597 30.7697 27.8416 33.7075 28.6063C37.0114 29.7531 38.4809 31.2819 39.5832 33.5751C40.6856 36.2505 40.6856 40.0754 40.6856 44.6596C42.1423 43.6481 43.496 42.4959 44.7271 41.2194V38.5408C44.7271 37.0127 44.7264 35.4867 43.6247 32.4285C42.5231 29.3704 37.7437 27.4604 35.1746 27.0778C32.6025 26.3129 30.0307 24.4001 28.9284 21.3441V21.3441ZM56.485 11.4063C52.0761 5.29102 43.6247 4.14404 32.2354 7.58344C31.133 11.7884 31.133 16.3751 31.8683 20.5795C33.337 26.3132 40.6856 26.3132 42.8934 27.4619C45.4621 28.6086 47.6668 30.9013 48.7691 36.635C49.1365 37.7823 49.1365 38.5457 49.1365 39.3104C58.6893 27.8416 60.8918 18.6686 56.4848 11.4063H56.485Z" fill="#009D89" fill-opacity="0.6"/>
</g>
<defs>
<clipPath id="clip0_15846_2839">
<rect width="60" height="60" fill="white"/>
</clipPath>
</defs>
</svg>
