<svg width="20" height="20" viewBox="0 0 20 20" fill="none" xmlns="http://www.w3.org/2000/svg">
<path d="M13.8551 11.6405L13.8222 11.682C13.7439 11.7906 13.7048 11.93 13.713 12.0711C13.7212 12.2123 13.776 12.3443 13.8662 12.4399C13.9563 12.5354 14.0748 12.5871 14.197 12.5842C14.3192 12.5812 14.4357 12.5239 14.5223 12.4241L18.7641 7.58677L18.8027 7.5391C18.9347 7.36534 19.0051 7.14023 18.9997 6.90892C18.9943 6.67762 18.9135 6.45723 18.7736 6.29199L14.4314 1.16493L14.3956 1.12679C14.3051 1.03986 14.19 0.994848 14.0725 1.00047C13.955 1.00609 13.8434 1.06195 13.7595 1.15723L13.7265 1.19867C13.6514 1.30341 13.6125 1.43667 13.6174 1.57267C13.6222 1.70868 13.6705 1.83777 13.7528 1.93498L17.3362 6.16512H6.96645C3.67925 6.16548 1 9.02823 1 12.5826C1 16.0976 3.62001 18.9362 6.85715 18.9989L6.96645 19H15.8799C16.0019 19 16.1193 18.9457 16.2077 18.8482C16.2961 18.7508 16.3487 18.6177 16.3546 18.4766C16.3605 18.3355 16.3193 18.1971 16.2394 18.0902C16.1596 17.9834 16.0473 17.9161 15.9258 17.9025L15.8799 17.8999H6.96645C4.18804 17.8999 1.95043 15.5091 1.95043 12.5829C1.95043 9.69341 4.13228 7.32569 6.86254 7.26702L6.96645 7.26592L17.6917 7.26555L13.8551 11.6405Z" fill="#171717" stroke="#171717" stroke-width="0.4"/>
</svg>
