<svg width="63" height="62" viewBox="0 0 63 62" fill="none" xmlns="http://www.w3.org/2000/svg">
<path d="M40.8597 5.05812L42.2313 3.88155C40.9363 2.37777 39.2655 1.24297 37.3997 0.60247L36.8148 2.31511C38.3813 2.84422 39.7806 3.79105 40.8597 5.05812ZM43.1015 11.5676H44.9116C44.9116 9.75745 44.3825 7.52266 43.38 5.82394L41.8205 6.63153C42.6559 8.04481 43.1015 9.75745 43.1015 11.5676ZM23.5802 15.4593C24.3529 17.2764 25.6061 18.8567 27.2004 20.0403L28.2795 18.5852C26.9428 17.5966 25.8985 16.2669 25.251 14.7492L23.5802 15.4593ZM35.2206 1.91828L35.499 0.129057C33.5427 -0.170308 31.5307 0.0524751 29.6997 0.783481L30.3681 2.46828C31.9067 1.84866 33.6332 1.66765 35.2206 1.91828ZM44.292 58.9228L43.7072 60.6355C45.1762 61.1367 46.7148 61.3943 48.2742 61.3943C48.6571 61.3943 49.04 61.3804 49.416 61.3456L49.2698 59.5424C47.6059 59.6747 45.8793 59.4658 44.292 58.9228ZM61.2096 41.6502L59.5526 42.3742C60.2279 43.9268 60.5691 45.5767 60.5691 47.2894C60.5691 48.3476 60.4368 49.3989 60.1653 50.4153L61.9127 50.8748C62.219 49.7052 62.3722 48.5008 62.3722 47.2894C62.3792 45.3261 61.9823 43.4325 61.2096 41.6502ZM56.7957 56.152L58.0488 57.4538C59.4551 56.1032 60.5482 54.502 61.3001 52.7058L59.6292 52.0096C58.9748 53.576 58.021 54.9684 56.7957 56.152ZM41.7161 34.7927L42.5585 36.3939C44.0622 35.6072 45.6844 35.1408 47.3831 35.0224L47.2508 33.2193C45.3015 33.3585 43.4357 33.8876 41.7161 34.7927ZM58.7729 40.8844L60.3184 39.9445C59.302 38.2806 57.9792 36.8673 56.378 35.7464L55.3337 37.2293C56.733 38.1971 57.8887 39.4293 58.7729 40.8844ZM50.9337 59.2918L51.3236 61.0601C53.2242 60.6424 54.9925 59.8418 56.5729 58.6931L55.5077 57.2311C54.1292 58.2336 52.5906 58.9298 50.9337 59.2918ZM49.1236 48.4729L47.5293 47.6236C46.7078 49.1552 45.7192 50.6033 44.5844 51.926L45.9559 53.1026C47.1673 51.6824 48.2394 50.1229 49.1236 48.4729ZM50.0913 33.3098C49.785 33.268 49.4856 33.2262 49.1793 33.2053L49.0609 35.0085C49.4578 35.0363 49.8546 35.0781 50.2445 35.1477C50.2654 35.5794 50.3141 36.004 50.3141 36.4357C50.3141 37.4104 50.2584 38.399 50.1331 39.3667L51.9293 39.5895C52.0615 38.5452 52.1242 37.48 52.1242 36.4357C52.1242 36.1572 52.0894 35.8857 52.0824 35.6072C52.702 35.8091 53.3147 36.0458 53.8995 36.3521L54.728 34.7439C53.8438 34.2914 52.9248 33.9363 51.978 33.6787C51.8736 32.7319 51.7274 31.7921 51.5185 30.8592L49.7502 31.249C49.9033 31.9313 50.0008 32.6205 50.0913 33.3098ZM49.3116 29.5642L51.0451 29.0421C50.5021 27.2529 49.7641 25.5124 48.8382 23.8763L47.2648 24.7605C48.1211 26.2851 48.8103 27.9003 49.3116 29.5642ZM43.004 19.2814C44.2641 20.4928 45.392 21.8365 46.3527 23.2845L47.8565 22.282C46.8192 20.7225 45.6078 19.2814 44.2502 17.9795L43.004 19.2814ZM32.9927 59.3057L33.4801 61.0462C35.2902 60.538 37.0376 59.8348 38.6876 58.9437L37.8313 57.3564C36.2997 58.1779 34.6706 58.8393 32.9927 59.3057ZM4.66451 45.5907C8.15246 50.0045 13.6106 52.3786 21.1226 52.7267C25.3624 52.7267 28.7599 52.5596 31.3427 52.2393C32.8187 51.9678 33.9465 51.759 34.8585 51.5849C35.2066 52.6779 35.68 53.7362 36.2927 54.7248L37.8313 53.771C37.33 52.9703 36.9402 52.121 36.6408 51.2368C37.887 50.9862 38.6389 50.8191 39.7876 50.5615C40.2123 50.464 40.7205 50.4988 40.8946 50.0045C40.9572 49.8166 40.9572 49.6147 40.9572 49.4128C40.9433 46.5027 40.9433 43.5926 40.9433 40.6825V37.4312C41.0059 37.3825 41.0616 37.3199 41.1243 37.2711L40.9433 37.0135V27.8377H22.8492V35.0711H31.8927V43.3419C31.8927 43.4742 31.9067 43.6204 31.8927 43.7527C31.8301 44.24 30.932 44.3305 30.556 44.435C29.9364 44.609 29.3099 44.7483 28.6763 44.8527C27.451 45.0616 26.2118 45.1521 24.9656 45.159L22.8492 45.1799C13.8056 45.0059 9.64928 40.4667 9.64928 29.9332C9.64928 23.758 11.0347 19.2536 13.7916 16.42C14.3625 16.0511 14.9404 15.689 15.5391 15.3758L15.3859 15.0903C15.8733 14.7561 16.3745 14.4498 16.9245 14.1922L17.1125 14.6239C18.7068 13.9277 20.3846 13.4125 22.0973 13.0922L22.0625 12.9112C22.32 12.8903 22.5707 12.8625 22.8352 12.8486H22.8422C22.884 13.0922 22.9118 13.3429 22.9675 13.5865L24.7289 13.1827C24.708 13.1062 24.701 13.0226 24.6871 12.9391C29.4909 13.3777 32.0389 15.6612 32.2826 20.263C31.3776 20.1168 30.5003 19.8523 29.6719 19.4415L28.8713 21.0637C30.4098 21.8225 32.0668 22.2124 33.7934 22.2124C34.0649 22.2124 34.3294 22.2054 34.594 22.1845L34.4826 20.6042H36.2161L36.5364 21.8643C37.5876 21.5997 38.5901 21.1611 39.5161 20.6042H40.8806C40.8737 20.277 40.8458 19.9776 40.8319 19.6643C41.0965 19.4485 41.368 19.2327 41.6116 18.989L40.6996 18.07C40.6718 17.8124 40.637 17.5548 40.5952 17.3112C40.9572 17.5827 41.3401 17.8264 41.6882 18.1188L42.454 17.1928L42.8787 17.4922C44.0205 15.8701 44.7027 13.9764 44.8559 11.9992L43.0528 11.853C42.9344 13.2872 42.468 14.6726 41.723 15.8979C41.1452 15.4663 40.5534 15.0555 39.9408 14.6796C38.1098 9.44416 33.501 7.13975 25.6827 6.56191C26.4485 5.1904 27.5485 4.02775 28.8852 3.19232L27.9244 1.65373C26.2466 2.69802 24.8751 4.17396 23.9491 5.92837L25.0839 6.5271C23.8378 6.45052 22.5289 6.40178 21.1226 6.40178C7.43537 7.55051 0.32025 15.3758 0 29.8845C0.0696196 33.1496 0.487337 36.0319 1.21138 38.5869L1.09303 38.5939C1.24619 40.4667 1.61517 42.3185 2.17213 44.1008L3.36959 43.7249C3.68288 44.254 4.01705 44.7622 4.37907 45.2426L2.79871 45.8691C3.4949 47.6166 4.37907 49.2805 5.43729 50.8261L6.92715 49.8026C6.02906 48.4868 5.27717 47.0666 4.66451 45.5907ZM44.6749 54.4741L43.3939 53.2001C42.2939 54.307 41.0616 55.2887 39.7598 56.1589C39.4256 55.8387 39.1053 55.5045 38.8129 55.1425L37.4205 56.2982C38.6737 57.8019 40.1844 59.0064 41.9249 59.8836L42.7395 58.2684C42.2034 57.9969 41.7021 57.6766 41.2148 57.3355C42.4401 56.4792 43.6167 55.5393 44.6749 54.4741ZM18.6998 60.7608C20.4821 61.3386 22.327 61.7146 24.1998 61.8886L24.3669 60.0855C22.6333 59.9253 20.9137 59.5772 19.2568 59.0412L18.6998 60.7608ZM26.5529 60.1899L26.1004 60.1829L26.0586 61.993L26.5599 62C28.2795 62 29.9852 61.826 31.6491 61.4918L31.2871 59.7165C29.7554 60.0298 28.1611 60.1899 26.5529 60.1899ZM49.8685 41.0863C49.5274 42.792 48.9983 44.4698 48.2951 46.0571L49.9451 46.7951C50.704 45.0824 51.2748 43.2793 51.6438 41.4413L49.8685 41.0863ZM7.97144 51.209L6.55817 52.3368C7.72778 53.8058 9.05751 55.1425 10.5126 56.319L11.6474 54.9127C10.2898 53.8197 9.05055 52.5735 7.97144 51.209ZM12.0024 57.4469C13.541 58.519 15.2049 59.4171 16.9315 60.1203L17.6138 58.4424C16.0055 57.788 14.46 56.9526 13.0328 55.957L12.0024 57.4469Z" fill="#009D89" fill-opacity="0.6"/>
</svg>
